<?xml version="1.0" encoding="utf-8" standalone="no"?>
<!DOCTYPE svg PUBLIC "-//W3C//DTD SVG 1.1//EN"
  "http://www.w3.org/Graphics/SVG/1.1/DTD/svg11.dtd">
<!-- Created with matplotlib (http://matplotlib.org/) -->
<svg height="441pt" version="1.1" viewBox="0 0 585 441" width="585pt" xmlns="http://www.w3.org/2000/svg" xmlns:xlink="http://www.w3.org/1999/xlink">
 <defs>
  <style type="text/css">
*{stroke-linecap:butt;stroke-linejoin:round;}
  </style>
 </defs>
 <g id="figure_1">
  <g id="patch_1">
   <path d="
M0 441
L585 441
L585 0
L0 0
z
" style="fill:#ffffff;"/>
  </g>
  <g id="axes_1">
   <g id="patch_2">
    <path d="
M73.125 396.9
L526.5 396.9
L526.5 44.1
L73.125 44.1
z
" style="fill:#ffffff;"/>
   </g>
   <g id="LineCollection_1">
    <defs>
     <path d="
M92.6951 -297.885
L92.6951 -336.864" id="C0_0_0235afe9d5"/>
     <path d="
M99.2185 -306.506
L99.2185 -350.789" id="C0_1_8bd72c16d8"/>
     <path d="
M105.742 -314.271
L105.742 -361.929" id="C0_2_d71ec9d9d7"/>
     <path d="
M112.265 -307.014
L112.265 -363.714" id="C0_3_56af06b512"/>
     <path d="
M118.789 -303.761
L118.789 -363.981" id="C0_4_7f1190394b"/>
     <path d="
M125.312 -292.513
L125.312 -358.627" id="C0_5_816ac59898"/>
     <path d="
M131.835 -287.739
L131.835 -350.126" id="C0_6_f16420c7db"/>
     <path d="
M138.359 -287.317
L138.359 -340.799" id="C0_7_7b70a698a4"/>
     <path d="
M144.882 -276.078
L144.882 -329.563" id="C0_8_9ef5f31df4"/>
     <path d="
M151.406 -267.188
L151.406 -320.527" id="C0_9_a9adfd1240"/>
     <path d="
M157.929 -264.37
L157.929 -307.38" id="C0_a_2918ba10fa"/>
     <path d="
M164.452 -261.317
L164.452 -295.892" id="C0_b_dcbcdb03b1"/>
     <path d="
M170.976 -255.207
L170.976 -288.297" id="C0_c_ecc974d110"/>
     <path d="
M177.499 -245.29
L177.499 -280.217" id="C0_d_a239014aec"/>
     <path d="
M184.022 -233.395
L184.022 -269.763" id="C0_e_98906f042f"/>
     <path d="
M190.546 -232.957
L190.546 -262.03" id="C0_f_a72d4bf978"/>
     <path d="
M197.069 -225.554
L197.069 -256.816" id="C0_10_5ce6f56eec"/>
     <path d="
M203.593 -214.868
L203.593 -251.783" id="C0_11_f77cebf63c"/>
     <path d="
M210.116 -201.211
L210.116 -246.466" id="C0_12_043f7d18ae"/>
    </defs>
    <g clip-path="url(#p5873ec822d)">
     <use style="fill:none;stroke:#ff0000;" x="0.0" xlink:href="#C0_0_0235afe9d5" y="441.0"/>
    </g>
    <g clip-path="url(#p5873ec822d)">
     <use style="fill:none;stroke:#ff0000;" x="0.0" xlink:href="#C0_1_8bd72c16d8" y="441.0"/>
    </g>
    <g clip-path="url(#p5873ec822d)">
     <use style="fill:none;stroke:#ff0000;" x="0.0" xlink:href="#C0_2_d71ec9d9d7" y="441.0"/>
    </g>
    <g clip-path="url(#p5873ec822d)">
     <use style="fill:none;stroke:#ff0000;" x="0.0" xlink:href="#C0_3_56af06b512" y="441.0"/>
    </g>
    <g clip-path="url(#p5873ec822d)">
     <use style="fill:none;stroke:#ff0000;" x="0.0" xlink:href="#C0_4_7f1190394b" y="441.0"/>
    </g>
    <g clip-path="url(#p5873ec822d)">
     <use style="fill:none;stroke:#ff0000;" x="0.0" xlink:href="#C0_5_816ac59898" y="441.0"/>
    </g>
    <g clip-path="url(#p5873ec822d)">
     <use style="fill:none;stroke:#ff0000;" x="0.0" xlink:href="#C0_6_f16420c7db" y="441.0"/>
    </g>
    <g clip-path="url(#p5873ec822d)">
     <use style="fill:none;stroke:#ff0000;" x="0.0" xlink:href="#C0_7_7b70a698a4" y="441.0"/>
    </g>
    <g clip-path="url(#p5873ec822d)">
     <use style="fill:none;stroke:#ff0000;" x="0.0" xlink:href="#C0_8_9ef5f31df4" y="441.0"/>
    </g>
    <g clip-path="url(#p5873ec822d)">
     <use style="fill:none;stroke:#ff0000;" x="0.0" xlink:href="#C0_9_a9adfd1240" y="441.0"/>
    </g>
    <g clip-path="url(#p5873ec822d)">
     <use style="fill:none;stroke:#ff0000;" x="0.0" xlink:href="#C0_a_2918ba10fa" y="441.0"/>
    </g>
    <g clip-path="url(#p5873ec822d)">
     <use style="fill:none;stroke:#ff0000;" x="0.0" xlink:href="#C0_b_dcbcdb03b1" y="441.0"/>
    </g>
    <g clip-path="url(#p5873ec822d)">
     <use style="fill:none;stroke:#ff0000;" x="0.0" xlink:href="#C0_c_ecc974d110" y="441.0"/>
    </g>
    <g clip-path="url(#p5873ec822d)">
     <use style="fill:none;stroke:#ff0000;" x="0.0" xlink:href="#C0_d_a239014aec" y="441.0"/>
    </g>
    <g clip-path="url(#p5873ec822d)">
     <use style="fill:none;stroke:#ff0000;" x="0.0" xlink:href="#C0_e_98906f042f" y="441.0"/>
    </g>
    <g clip-path="url(#p5873ec822d)">
     <use style="fill:none;stroke:#ff0000;" x="0.0" xlink:href="#C0_f_a72d4bf978" y="441.0"/>
    </g>
    <g clip-path="url(#p5873ec822d)">
     <use style="fill:none;stroke:#ff0000;" x="0.0" xlink:href="#C0_10_5ce6f56eec" y="441.0"/>
    </g>
    <g clip-path="url(#p5873ec822d)">
     <use style="fill:none;stroke:#ff0000;" x="0.0" xlink:href="#C0_11_f77cebf63c" y="441.0"/>
    </g>
    <g clip-path="url(#p5873ec822d)">
     <use style="fill:none;stroke:#ff0000;" x="0.0" xlink:href="#C0_12_043f7d18ae" y="441.0"/>
    </g>
   </g>
   <g id="line2d_1">
    <path clip-path="url(#p5873ec822d)" d="
M74.5087 236.06
L75.8925 198
L77.2762 176.855
L78.66 162.632
L80.0437 152.202
L81.4275 144.17
L82.8112 137.792
L84.195 132.624
L85.5787 128.38
L86.9625 124.863
L88.3462 121.936
L89.73 119.494
L91.1137 117.459
L92.4975 115.771
L93.8812 114.381
L95.265 113.251
L96.6487 112.348
L98.0325 111.647
L99.4162 111.126
L100.8 110.765
L102.184 110.549
L103.567 110.464
L104.951 110.499
L106.335 110.642
L107.719 110.885
L109.102 111.22
L110.486 111.64
L111.87 112.138
L113.254 112.708
L114.637 113.347
L116.021 114.048
L117.405 114.808
L118.789 115.624
L120.172 116.491
L121.556 117.407
L122.94 118.368
L124.324 119.372
L125.707 120.418
L127.091 121.501
L128.475 122.621
L129.859 123.775
L131.242 124.963
L132.626 126.181
L134.01 127.428
L135.394 128.704
L136.777 130.007
L138.161 131.335
L139.545 132.687
L140.929 134.063
L142.312 135.461
L143.696 136.881
L145.08 138.32
L146.464 139.779
L147.847 141.257
L149.231 142.753
L150.615 144.266
L151.999 145.796
L153.382 147.341
L154.766 148.902
L156.15 150.477
L157.534 152.067
L158.917 153.67
L160.301 155.287
L161.685 156.916
L163.069 158.557
L164.452 160.21
L165.836 161.874
L167.22 163.55
L168.604 165.235
L169.987 166.932
L171.371 168.638
L172.755 170.353
L174.139 172.078
L175.522 173.812
L176.906 175.554
L178.29 177.305
L179.674 179.063
L181.057 180.83
L182.441 182.604
L183.825 184.386
L185.209 186.175
L186.592 187.97
L187.976 189.773
L189.36 191.582
L190.744 193.397
L192.127 195.218
L193.511 197.045
L194.895 198.878
L196.279 200.717
L197.662 202.561
L199.046 204.41
L200.43 206.265
L201.814 208.124
L203.197 209.989
L204.581 211.858
L205.965 213.731
L207.349 215.609
L208.732 217.492
L210.116 219.378" style="fill:none;stroke:#0000ff;stroke-linecap:square;"/>
   </g>
   <g id="line2d_2">
    <defs>
     <path d="
M0 1.5
C0.397805 1.5 0.77937 1.34195 1.06066 1.06066
C1.34195 0.77937 1.5 0.397805 1.5 0
C1.5 -0.397805 1.34195 -0.77937 1.06066 -1.06066
C0.77937 -1.34195 0.397805 -1.5 0 -1.5
C-0.397805 -1.5 -0.77937 -1.34195 -1.06066 -1.06066
C-1.34195 -0.77937 -1.5 -0.397805 -1.5 0
C-1.5 0.397805 -1.34195 0.77937 -1.06066 1.06066
C-0.77937 1.34195 -0.397805 1.5 0 1.5
z
" id="mb0b177905e" style="stroke:#008000;stroke-width:0.5;"/>
    </defs>
    <g clip-path="url(#p5873ec822d)">
     <use style="fill:#008000;stroke:#008000;stroke-width:0.5;" x="73.125" xlink:href="#mb0b177905e" y="117.849996891"/>
     <use style="fill:#008000;stroke:#008000;stroke-width:0.5;" x="79.648381295" xlink:href="#mb0b177905e" y="122.950315186"/>
     <use style="fill:#008000;stroke:#008000;stroke-width:0.5;" x="86.1717625899" xlink:href="#mb0b177905e" y="128.287578568"/>
     <use style="fill:#008000;stroke:#008000;stroke-width:0.5;" x="92.6951438849" xlink:href="#mb0b177905e" y="123.625054535"/>
     <use style="fill:#008000;stroke:#008000;stroke-width:0.5;" x="99.2185251799" xlink:href="#mb0b177905e" y="112.352200456"/>
     <use style="fill:#008000;stroke:#008000;stroke-width:0.5;" x="105.741906475" xlink:href="#mb0b177905e" y="102.9"/>
     <use style="fill:#008000;stroke:#008000;stroke-width:0.5;" x="112.26528777" xlink:href="#mb0b177905e" y="105.636273379"/>
     <use style="fill:#008000;stroke:#008000;stroke-width:0.5;" x="118.788669065" xlink:href="#mb0b177905e" y="107.129106823"/>
     <use style="fill:#008000;stroke:#008000;stroke-width:0.5;" x="125.31205036" xlink:href="#mb0b177905e" y="115.42988223"/>
     <use style="fill:#008000;stroke:#008000;stroke-width:0.5;" x="131.835431655" xlink:href="#mb0b177905e" y="122.06768523"/>
     <use style="fill:#008000;stroke:#008000;stroke-width:0.5;" x="138.35881295" xlink:href="#mb0b177905e" y="126.942163563"/>
     <use style="fill:#008000;stroke:#008000;stroke-width:0.5;" x="144.882194245" xlink:href="#mb0b177905e" y="138.179254596"/>
     <use style="fill:#008000;stroke:#008000;stroke-width:0.5;" x="151.40557554" xlink:href="#mb0b177905e" y="147.142182596"/>
     <use style="fill:#008000;stroke:#008000;stroke-width:0.5;" x="157.928956835" xlink:href="#mb0b177905e" y="155.125163097"/>
     <use style="fill:#008000;stroke:#008000;stroke-width:0.5;" x="164.452338129" xlink:href="#mb0b177905e" y="162.39558334"/>
     <use style="fill:#008000;stroke:#008000;stroke-width:0.5;" x="170.975719424" xlink:href="#mb0b177905e" y="169.247772585"/>
     <use style="fill:#008000;stroke:#008000;stroke-width:0.5;" x="177.499100719" xlink:href="#mb0b177905e" y="178.246466632"/>
     <use style="fill:#008000;stroke:#008000;stroke-width:0.5;" x="184.022482014" xlink:href="#mb0b177905e" y="189.421159986"/>
     <use style="fill:#008000;stroke:#008000;stroke-width:0.5;" x="190.545863309" xlink:href="#mb0b177905e" y="193.50638544"/>
     <use style="fill:#008000;stroke:#008000;stroke-width:0.5;" x="197.069244604" xlink:href="#mb0b177905e" y="199.815067066"/>
     <use style="fill:#008000;stroke:#008000;stroke-width:0.5;" x="203.592625899" xlink:href="#mb0b177905e" y="207.67474991"/>
     <use style="fill:#008000;stroke:#008000;stroke-width:0.5;" x="210.116007194" xlink:href="#mb0b177905e" y="217.161129849"/>
     <use style="fill:#008000;stroke:#008000;stroke-width:0.5;" x="216.639388489" xlink:href="#mb0b177905e" y="219.865465051"/>
     <use style="fill:#008000;stroke:#008000;stroke-width:0.5;" x="223.162769784" xlink:href="#mb0b177905e" y="221.740295729"/>
     <use style="fill:#008000;stroke:#008000;stroke-width:0.5;" x="229.686151079" xlink:href="#mb0b177905e" y="225.607241763"/>
     <use style="fill:#008000;stroke:#008000;stroke-width:0.5;" x="236.209532374" xlink:href="#mb0b177905e" y="230.552587854"/>
     <use style="fill:#008000;stroke:#008000;stroke-width:0.5;" x="242.732913669" xlink:href="#mb0b177905e" y="238.893415713"/>
     <use style="fill:#008000;stroke:#008000;stroke-width:0.5;" x="249.256294964" xlink:href="#mb0b177905e" y="245.824451903"/>
     <use style="fill:#008000;stroke:#008000;stroke-width:0.5;" x="255.779676259" xlink:href="#mb0b177905e" y="254.708343765"/>
     <use style="fill:#008000;stroke:#008000;stroke-width:0.5;" x="262.303057554" xlink:href="#mb0b177905e" y="257.764994047"/>
     <use style="fill:#008000;stroke:#008000;stroke-width:0.5;" x="268.826438849" xlink:href="#mb0b177905e" y="261.476921808"/>
     <use style="fill:#008000;stroke:#008000;stroke-width:0.5;" x="275.349820144" xlink:href="#mb0b177905e" y="268.415959342"/>
     <use style="fill:#008000;stroke:#008000;stroke-width:0.5;" x="281.873201439" xlink:href="#mb0b177905e" y="276.361934613"/>
     <use style="fill:#008000;stroke:#008000;stroke-width:0.5;" x="288.396582734" xlink:href="#mb0b177905e" y="283.609398027"/>
     <use style="fill:#008000;stroke:#008000;stroke-width:0.5;" x="294.919964029" xlink:href="#mb0b177905e" y="282.245817805"/>
     <use style="fill:#008000;stroke:#008000;stroke-width:0.5;" x="301.443345324" xlink:href="#mb0b177905e" y="286.744119482"/>
     <use style="fill:#008000;stroke:#008000;stroke-width:0.5;" x="307.966726619" xlink:href="#mb0b177905e" y="292.453454852"/>
     <use style="fill:#008000;stroke:#008000;stroke-width:0.5;" x="314.490107914" xlink:href="#mb0b177905e" y="300.366882027"/>
     <use style="fill:#008000;stroke:#008000;stroke-width:0.5;" x="321.013489209" xlink:href="#mb0b177905e" y="304.197832489"/>
     <use style="fill:#008000;stroke:#008000;stroke-width:0.5;" x="327.536870504" xlink:href="#mb0b177905e" y="308.111326031"/>
     <use style="fill:#008000;stroke:#008000;stroke-width:0.5;" x="334.060251799" xlink:href="#mb0b177905e" y="318.373723431"/>
     <use style="fill:#008000;stroke:#008000;stroke-width:0.5;" x="340.583633094" xlink:href="#mb0b177905e" y="321.790313433"/>
     <use style="fill:#008000;stroke:#008000;stroke-width:0.5;" x="347.107014388" xlink:href="#mb0b177905e" y="321.777507328"/>
     <use style="fill:#008000;stroke:#008000;stroke-width:0.5;" x="353.630395683" xlink:href="#mb0b177905e" y="322.985667224"/>
     <use style="fill:#008000;stroke:#008000;stroke-width:0.5;" x="360.153776978" xlink:href="#mb0b177905e" y="329.11059645"/>
     <use style="fill:#008000;stroke:#008000;stroke-width:0.5;" x="366.677158273" xlink:href="#mb0b177905e" y="337.187129329"/>
     <use style="fill:#008000;stroke:#008000;stroke-width:0.5;" x="373.200539568" xlink:href="#mb0b177905e" y="333.988021437"/>
     <use style="fill:#008000;stroke:#008000;stroke-width:0.5;" x="379.723920863" xlink:href="#mb0b177905e" y="331.677470286"/>
     <use style="fill:#008000;stroke:#008000;stroke-width:0.5;" x="386.247302158" xlink:href="#mb0b177905e" y="334.347488986"/>
     <use style="fill:#008000;stroke:#008000;stroke-width:0.5;" x="392.770683453" xlink:href="#mb0b177905e" y="341.742606791"/>
     <use style="fill:#008000;stroke:#008000;stroke-width:0.5;" x="399.294064748" xlink:href="#mb0b177905e" y="345.462889787"/>
     <use style="fill:#008000;stroke:#008000;stroke-width:0.5;" x="405.817446043" xlink:href="#mb0b177905e" y="340.91735347"/>
     <use style="fill:#008000;stroke:#008000;stroke-width:0.5;" x="412.340827338" xlink:href="#mb0b177905e" y="340.796204147"/>
     <use style="fill:#008000;stroke:#008000;stroke-width:0.5;" x="418.864208633" xlink:href="#mb0b177905e" y="343.570337617"/>
     <use style="fill:#008000;stroke:#008000;stroke-width:0.5;" x="425.387589928" xlink:href="#mb0b177905e" y="349.627235239"/>
     <use style="fill:#008000;stroke:#008000;stroke-width:0.5;" x="431.910971223" xlink:href="#mb0b177905e" y="345.935996948"/>
     <use style="fill:#008000;stroke:#008000;stroke-width:0.5;" x="438.434352518" xlink:href="#mb0b177905e" y="339.768671282"/>
     <use style="fill:#008000;stroke:#008000;stroke-width:0.5;" x="444.957733813" xlink:href="#mb0b177905e" y="342.454872728"/>
     <use style="fill:#008000;stroke:#008000;stroke-width:0.5;" x="451.481115108" xlink:href="#mb0b177905e" y="343.368911372"/>
     <use style="fill:#008000;stroke:#008000;stroke-width:0.5;" x="458.004496403" xlink:href="#mb0b177905e" y="347.636822286"/>
     <use style="fill:#008000;stroke:#008000;stroke-width:0.5;" x="464.527877698" xlink:href="#mb0b177905e" y="343.952264873"/>
     <use style="fill:#008000;stroke:#008000;stroke-width:0.5;" x="471.051258993" xlink:href="#mb0b177905e" y="342.407259167"/>
     <use style="fill:#008000;stroke:#008000;stroke-width:0.5;" x="477.574640288" xlink:href="#mb0b177905e" y="347.642755216"/>
     <use style="fill:#008000;stroke:#008000;stroke-width:0.5;" x="484.098021583" xlink:href="#mb0b177905e" y="346.325059475"/>
     <use style="fill:#008000;stroke:#008000;stroke-width:0.5;" x="490.621402878" xlink:href="#mb0b177905e" y="345.717437138"/>
     <use style="fill:#008000;stroke:#008000;stroke-width:0.5;" x="497.144784173" xlink:href="#mb0b177905e" y="341.15449488"/>
     <use style="fill:#008000;stroke:#008000;stroke-width:0.5;" x="503.668165468" xlink:href="#mb0b177905e" y="347.512972447"/>
     <use style="fill:#008000;stroke:#008000;stroke-width:0.5;" x="510.191546763" xlink:href="#mb0b177905e" y="358.351966696"/>
     <use style="fill:#008000;stroke:#008000;stroke-width:0.5;" x="516.714928058" xlink:href="#mb0b177905e" y="358.713992908"/>
     <use style="fill:#008000;stroke:#008000;stroke-width:0.5;" x="523.238309353" xlink:href="#mb0b177905e" y="353.027077454"/>
    </g>
   </g>
   <g id="line2d_3">
    <defs>
     <path d="
M3 1.83697e-16
L-3 -1.83697e-16" id="m12d35e2592" style="stroke:#ff0000;stroke-width:0.5;"/>
    </defs>
    <g clip-path="url(#p5873ec822d)">
     <use style="fill:#ff0000;stroke:#ff0000;stroke-width:0.5;" x="92.6951438849" xlink:href="#m12d35e2592" y="143.114550935"/>
     <use style="fill:#ff0000;stroke:#ff0000;stroke-width:0.5;" x="99.2185251799" xlink:href="#m12d35e2592" y="134.493708318"/>
     <use style="fill:#ff0000;stroke:#ff0000;stroke-width:0.5;" x="105.741906475" xlink:href="#m12d35e2592" y="126.728888709"/>
     <use style="fill:#ff0000;stroke:#ff0000;stroke-width:0.5;" x="112.26528777" xlink:href="#m12d35e2592" y="133.98620901"/>
     <use style="fill:#ff0000;stroke:#ff0000;stroke-width:0.5;" x="118.788669065" xlink:href="#m12d35e2592" y="137.239113622"/>
     <use style="fill:#ff0000;stroke:#ff0000;stroke-width:0.5;" x="125.31205036" xlink:href="#m12d35e2592" y="148.486568909"/>
     <use style="fill:#ff0000;stroke:#ff0000;stroke-width:0.5;" x="131.835431655" xlink:href="#m12d35e2592" y="153.261004777"/>
     <use style="fill:#ff0000;stroke:#ff0000;stroke-width:0.5;" x="138.35881295" xlink:href="#m12d35e2592" y="153.682984132"/>
     <use style="fill:#ff0000;stroke:#ff0000;stroke-width:0.5;" x="144.882194245" xlink:href="#m12d35e2592" y="164.921999595"/>
     <use style="fill:#ff0000;stroke:#ff0000;stroke-width:0.5;" x="151.40557554" xlink:href="#m12d35e2592" y="173.811809257"/>
     <use style="fill:#ff0000;stroke:#ff0000;stroke-width:0.5;" x="157.928956835" xlink:href="#m12d35e2592" y="176.630468116"/>
     <use style="fill:#ff0000;stroke:#ff0000;stroke-width:0.5;" x="164.452338129" xlink:href="#m12d35e2592" y="179.683392594"/>
     <use style="fill:#ff0000;stroke:#ff0000;stroke-width:0.5;" x="170.975719424" xlink:href="#m12d35e2592" y="185.792597155"/>
     <use style="fill:#ff0000;stroke:#ff0000;stroke-width:0.5;" x="177.499100719" xlink:href="#m12d35e2592" y="195.710288931"/>
     <use style="fill:#ff0000;stroke:#ff0000;stroke-width:0.5;" x="184.022482014" xlink:href="#m12d35e2592" y="207.605486963"/>
     <use style="fill:#ff0000;stroke:#ff0000;stroke-width:0.5;" x="190.545863309" xlink:href="#m12d35e2592" y="208.042915265"/>
     <use style="fill:#ff0000;stroke:#ff0000;stroke-width:0.5;" x="197.069244604" xlink:href="#m12d35e2592" y="215.446408273"/>
     <use style="fill:#ff0000;stroke:#ff0000;stroke-width:0.5;" x="203.592625899" xlink:href="#m12d35e2592" y="226.132214126"/>
     <use style="fill:#ff0000;stroke:#ff0000;stroke-width:0.5;" x="210.116007194" xlink:href="#m12d35e2592" y="239.788553635"/>
    </g>
   </g>
   <g id="line2d_4">
    <g clip-path="url(#p5873ec822d)">
     <use style="fill:#ff0000;stroke:#ff0000;stroke-width:0.5;" x="92.6951438849" xlink:href="#m12d35e2592" y="104.135558135"/>
     <use style="fill:#ff0000;stroke:#ff0000;stroke-width:0.5;" x="99.2185251799" xlink:href="#m12d35e2592" y="90.2106925936"/>
     <use style="fill:#ff0000;stroke:#ff0000;stroke-width:0.5;" x="105.741906475" xlink:href="#m12d35e2592" y="79.0711112912"/>
     <use style="fill:#ff0000;stroke:#ff0000;stroke-width:0.5;" x="112.26528777" xlink:href="#m12d35e2592" y="77.2863377472"/>
     <use style="fill:#ff0000;stroke:#ff0000;stroke-width:0.5;" x="118.788669065" xlink:href="#m12d35e2592" y="77.0191000243"/>
     <use style="fill:#ff0000;stroke:#ff0000;stroke-width:0.5;" x="125.31205036" xlink:href="#m12d35e2592" y="82.3731955514"/>
     <use style="fill:#ff0000;stroke:#ff0000;stroke-width:0.5;" x="131.835431655" xlink:href="#m12d35e2592" y="90.8743656832"/>
     <use style="fill:#ff0000;stroke:#ff0000;stroke-width:0.5;" x="138.35881295" xlink:href="#m12d35e2592" y="100.201342993"/>
     <use style="fill:#ff0000;stroke:#ff0000;stroke-width:0.5;" x="144.882194245" xlink:href="#m12d35e2592" y="111.436509597"/>
     <use style="fill:#ff0000;stroke:#ff0000;stroke-width:0.5;" x="151.40557554" xlink:href="#m12d35e2592" y="120.472555934"/>
     <use style="fill:#ff0000;stroke:#ff0000;stroke-width:0.5;" x="157.928956835" xlink:href="#m12d35e2592" y="133.619858078"/>
     <use style="fill:#ff0000;stroke:#ff0000;stroke-width:0.5;" x="164.452338129" xlink:href="#m12d35e2592" y="145.107774087"/>
     <use style="fill:#ff0000;stroke:#ff0000;stroke-width:0.5;" x="170.975719424" xlink:href="#m12d35e2592" y="152.702948015"/>
     <use style="fill:#ff0000;stroke:#ff0000;stroke-width:0.5;" x="177.499100719" xlink:href="#m12d35e2592" y="160.782644333"/>
     <use style="fill:#ff0000;stroke:#ff0000;stroke-width:0.5;" x="184.022482014" xlink:href="#m12d35e2592" y="171.236833009"/>
     <use style="fill:#ff0000;stroke:#ff0000;stroke-width:0.5;" x="190.545863309" xlink:href="#m12d35e2592" y="178.969855615"/>
     <use style="fill:#ff0000;stroke:#ff0000;stroke-width:0.5;" x="197.069244604" xlink:href="#m12d35e2592" y="184.18372586"/>
     <use style="fill:#ff0000;stroke:#ff0000;stroke-width:0.5;" x="203.592625899" xlink:href="#m12d35e2592" y="189.217285693"/>
     <use style="fill:#ff0000;stroke:#ff0000;stroke-width:0.5;" x="210.116007194" xlink:href="#m12d35e2592" y="194.533706063"/>
    </g>
   </g>
   <g id="line2d_5">
    <defs>
     <path d="
M0 3
C0.795609 3 1.55874 2.6839 2.12132 2.12132
C2.6839 1.55874 3 0.795609 3 0
C3 -0.795609 2.6839 -1.55874 2.12132 -2.12132
C1.55874 -2.6839 0.795609 -3 0 -3
C-0.795609 -3 -1.55874 -2.6839 -2.12132 -2.12132
C-2.6839 -1.55874 -3 -0.795609 -3 0
C-3 0.795609 -2.6839 1.55874 -2.12132 2.12132
C-1.55874 2.6839 -0.795609 3 0 3
z
" id="md175be6dbf" style="stroke:#000000;stroke-width:0.5;"/>
    </defs>
    <g clip-path="url(#p5873ec822d)">
     <use style="fill:#ff0000;stroke:#000000;stroke-width:0.5;" x="92.6951438849" xlink:href="#md175be6dbf" y="123.625054535"/>
     <use style="fill:#ff0000;stroke:#000000;stroke-width:0.5;" x="99.2185251799" xlink:href="#md175be6dbf" y="112.352200456"/>
     <use style="fill:#ff0000;stroke:#000000;stroke-width:0.5;" x="105.741906475" xlink:href="#md175be6dbf" y="102.9"/>
     <use style="fill:#ff0000;stroke:#000000;stroke-width:0.5;" x="112.26528777" xlink:href="#md175be6dbf" y="105.636273379"/>
     <use style="fill:#ff0000;stroke:#000000;stroke-width:0.5;" x="118.788669065" xlink:href="#md175be6dbf" y="107.129106823"/>
     <use style="fill:#ff0000;stroke:#000000;stroke-width:0.5;" x="125.31205036" xlink:href="#md175be6dbf" y="115.42988223"/>
     <use style="fill:#ff0000;stroke:#000000;stroke-width:0.5;" x="131.835431655" xlink:href="#md175be6dbf" y="122.06768523"/>
     <use style="fill:#ff0000;stroke:#000000;stroke-width:0.5;" x="138.35881295" xlink:href="#md175be6dbf" y="126.942163563"/>
     <use style="fill:#ff0000;stroke:#000000;stroke-width:0.5;" x="144.882194245" xlink:href="#md175be6dbf" y="138.179254596"/>
     <use style="fill:#ff0000;stroke:#000000;stroke-width:0.5;" x="151.40557554" xlink:href="#md175be6dbf" y="147.142182596"/>
     <use style="fill:#ff0000;stroke:#000000;stroke-width:0.5;" x="157.928956835" xlink:href="#md175be6dbf" y="155.125163097"/>
     <use style="fill:#ff0000;stroke:#000000;stroke-width:0.5;" x="164.452338129" xlink:href="#md175be6dbf" y="162.39558334"/>
     <use style="fill:#ff0000;stroke:#000000;stroke-width:0.5;" x="170.975719424" xlink:href="#md175be6dbf" y="169.247772585"/>
     <use style="fill:#ff0000;stroke:#000000;stroke-width:0.5;" x="177.499100719" xlink:href="#md175be6dbf" y="178.246466632"/>
     <use style="fill:#ff0000;stroke:#000000;stroke-width:0.5;" x="184.022482014" xlink:href="#md175be6dbf" y="189.421159986"/>
     <use style="fill:#ff0000;stroke:#000000;stroke-width:0.5;" x="190.545863309" xlink:href="#md175be6dbf" y="193.50638544"/>
     <use style="fill:#ff0000;stroke:#000000;stroke-width:0.5;" x="197.069244604" xlink:href="#md175be6dbf" y="199.815067066"/>
     <use style="fill:#ff0000;stroke:#000000;stroke-width:0.5;" x="203.592625899" xlink:href="#md175be6dbf" y="207.67474991"/>
     <use style="fill:#ff0000;stroke:#000000;stroke-width:0.5;" x="210.116007194" xlink:href="#md175be6dbf" y="217.161129849"/>
    </g>
   </g>
   <g id="patch_3">
    <path d="
M73.125 44.1
L526.5 44.1" style="fill:none;stroke:#000000;stroke-linecap:square;stroke-linejoin:miter;"/>
   </g>
   <g id="patch_4">
    <path d="
M526.5 396.9
L526.5 44.1" style="fill:none;stroke:#000000;stroke-linecap:square;stroke-linejoin:miter;"/>
   </g>
   <g id="patch_5">
    <path d="
M73.125 396.9
L526.5 396.9" style="fill:none;stroke:#000000;stroke-linecap:square;stroke-linejoin:miter;"/>
   </g>
   <g id="patch_6">
    <path d="
M73.125 396.9
L73.125 44.1" style="fill:none;stroke:#000000;stroke-linecap:square;stroke-linejoin:miter;"/>
   </g>
   <g id="matplotlib.axis_1">
    <g id="xtick_1">
     <g id="line2d_6">
      <defs>
       <path d="
M0 0
L0 -4" id="m93b0483c22" style="stroke:#000000;stroke-width:0.5;"/>
      </defs>
      <g>
       <use style="stroke:#000000;stroke-width:0.5;" x="73.125" xlink:href="#m93b0483c22" y="396.9"/>
      </g>
     </g>
     <g id="line2d_7">
      <defs>
       <path d="
M0 0
L0 4" id="m741efc42ff" style="stroke:#000000;stroke-width:0.5;"/>
      </defs>
      <g>
       <use style="stroke:#000000;stroke-width:0.5;" x="73.125" xlink:href="#m741efc42ff" y="44.1"/>
      </g>
     </g>
     <g id="text_1">
      <!-- 0.0000 -->
      <defs>
       <path d="
M31.7812 66.4062
Q24.1719 66.4062 20.3281 58.9062
Q16.5 51.4219 16.5 36.375
Q16.5 21.3906 20.3281 13.8906
Q24.1719 6.39062 31.7812 6.39062
Q39.4531 6.39062 43.2812 13.8906
Q47.125 21.3906 47.125 36.375
Q47.125 51.4219 43.2812 58.9062
Q39.4531 66.4062 31.7812 66.4062
M31.7812 74.2188
Q44.0469 74.2188 50.5156 64.5156
Q56.9844 54.8281 56.9844 36.375
Q56.9844 17.9688 50.5156 8.26562
Q44.0469 -1.42188 31.7812 -1.42188
Q19.5312 -1.42188 13.0625 8.26562
Q6.59375 17.9688 6.59375 36.375
Q6.59375 54.8281 13.0625 64.5156
Q19.5312 74.2188 31.7812 74.2188" id="DejaVuSans-30"/>
       <path d="
M10.6875 12.4062
L21 12.4062
L21 0
L10.6875 0
z
" id="DejaVuSans-2e"/>
      </defs>
      <g transform="translate(52.9246875 410.018125)scale(0.12 -0.12)">
       <use xlink:href="#DejaVuSans-30"/>
       <use x="63.623046875" xlink:href="#DejaVuSans-2e"/>
       <use x="95.41015625" xlink:href="#DejaVuSans-30"/>
       <use x="159.033203125" xlink:href="#DejaVuSans-30"/>
       <use x="222.65625" xlink:href="#DejaVuSans-30"/>
       <use x="286.279296875" xlink:href="#DejaVuSans-30"/>
      </g>
     </g>
    </g>
    <g id="xtick_2">
     <g id="line2d_8">
      <g>
       <use style="stroke:#000000;stroke-width:0.5;" x="163.8" xlink:href="#m93b0483c22" y="396.9"/>
      </g>
     </g>
     <g id="line2d_9">
      <g>
       <use style="stroke:#000000;stroke-width:0.5;" x="163.8" xlink:href="#m741efc42ff" y="44.1"/>
      </g>
     </g>
     <g id="text_2">
      <!-- 0.0001 -->
      <defs>
       <path d="
M12.4062 8.29688
L28.5156 8.29688
L28.5156 63.9219
L10.9844 60.4062
L10.9844 69.3906
L28.4219 72.9062
L38.2812 72.9062
L38.2812 8.29688
L54.3906 8.29688
L54.3906 0
L12.4062 0
z
" id="DejaVuSans-31"/>
      </defs>
      <g transform="translate(143.7553125 410.018125)scale(0.12 -0.12)">
       <use xlink:href="#DejaVuSans-30"/>
       <use x="63.623046875" xlink:href="#DejaVuSans-2e"/>
       <use x="95.41015625" xlink:href="#DejaVuSans-30"/>
       <use x="159.033203125" xlink:href="#DejaVuSans-30"/>
       <use x="222.65625" xlink:href="#DejaVuSans-30"/>
       <use x="286.279296875" xlink:href="#DejaVuSans-31"/>
      </g>
     </g>
    </g>
    <g id="xtick_3">
     <g id="line2d_10">
      <g>
       <use style="stroke:#000000;stroke-width:0.5;" x="254.475" xlink:href="#m93b0483c22" y="396.9"/>
      </g>
     </g>
     <g id="line2d_11">
      <g>
       <use style="stroke:#000000;stroke-width:0.5;" x="254.475" xlink:href="#m741efc42ff" y="44.1"/>
      </g>
     </g>
     <g id="text_3">
      <!-- 0.0002 -->
      <defs>
       <path d="
M19.1875 8.29688
L53.6094 8.29688
L53.6094 0
L7.32812 0
L7.32812 8.29688
Q12.9375 14.1094 22.625 23.8906
Q32.3281 33.6875 34.8125 36.5312
Q39.5469 41.8438 41.4219 45.5312
Q43.3125 49.2188 43.3125 52.7812
Q43.3125 58.5938 39.2344 62.25
Q35.1562 65.9219 28.6094 65.9219
Q23.9688 65.9219 18.8125 64.3125
Q13.6719 62.7031 7.8125 59.4219
L7.8125 69.3906
Q13.7656 71.7812 18.9375 73
Q24.125 74.2188 28.4219 74.2188
Q39.75 74.2188 46.4844 68.5469
Q53.2188 62.8906 53.2188 53.4219
Q53.2188 48.9219 51.5312 44.8906
Q49.8594 40.875 45.4062 35.4062
Q44.1875 33.9844 37.6406 27.2188
Q31.1094 20.4531 19.1875 8.29688" id="DejaVuSans-32"/>
      </defs>
      <g transform="translate(234.4771875 410.018125)scale(0.12 -0.12)">
       <use xlink:href="#DejaVuSans-30"/>
       <use x="63.623046875" xlink:href="#DejaVuSans-2e"/>
       <use x="95.41015625" xlink:href="#DejaVuSans-30"/>
       <use x="159.033203125" xlink:href="#DejaVuSans-30"/>
       <use x="222.65625" xlink:href="#DejaVuSans-30"/>
       <use x="286.279296875" xlink:href="#DejaVuSans-32"/>
      </g>
     </g>
    </g>
    <g id="xtick_4">
     <g id="line2d_12">
      <g>
       <use style="stroke:#000000;stroke-width:0.5;" x="345.15" xlink:href="#m93b0483c22" y="396.9"/>
      </g>
     </g>
     <g id="line2d_13">
      <g>
       <use style="stroke:#000000;stroke-width:0.5;" x="345.15" xlink:href="#m741efc42ff" y="44.1"/>
      </g>
     </g>
     <g id="text_4">
      <!-- 0.0003 -->
      <defs>
       <path d="
M40.5781 39.3125
Q47.6562 37.7969 51.625 33
Q55.6094 28.2188 55.6094 21.1875
Q55.6094 10.4062 48.1875 4.48438
Q40.7656 -1.42188 27.0938 -1.42188
Q22.5156 -1.42188 17.6562 -0.515625
Q12.7969 0.390625 7.625 2.20312
L7.625 11.7188
Q11.7188 9.32812 16.5938 8.10938
Q21.4844 6.89062 26.8125 6.89062
Q36.0781 6.89062 40.9375 10.5469
Q45.7969 14.2031 45.7969 21.1875
Q45.7969 27.6406 41.2812 31.2656
Q36.7656 34.9062 28.7188 34.9062
L20.2188 34.9062
L20.2188 43.0156
L29.1094 43.0156
Q36.375 43.0156 40.2344 45.9219
Q44.0938 48.8281 44.0938 54.2969
Q44.0938 59.9062 40.1094 62.9062
Q36.1406 65.9219 28.7188 65.9219
Q24.6562 65.9219 20.0156 65.0312
Q15.375 64.1562 9.8125 62.3125
L9.8125 71.0938
Q15.4375 72.6562 20.3438 73.4375
Q25.25 74.2188 29.5938 74.2188
Q40.8281 74.2188 47.3594 69.1094
Q53.9062 64.0156 53.9062 55.3281
Q53.9062 49.2656 50.4375 45.0938
Q46.9688 40.9219 40.5781 39.3125" id="DejaVuSans-33"/>
      </defs>
      <g transform="translate(325.0321875 410.018125)scale(0.12 -0.12)">
       <use xlink:href="#DejaVuSans-30"/>
       <use x="63.623046875" xlink:href="#DejaVuSans-2e"/>
       <use x="95.41015625" xlink:href="#DejaVuSans-30"/>
       <use x="159.033203125" xlink:href="#DejaVuSans-30"/>
       <use x="222.65625" xlink:href="#DejaVuSans-30"/>
       <use x="286.279296875" xlink:href="#DejaVuSans-33"/>
      </g>
     </g>
    </g>
    <g id="xtick_5">
     <g id="line2d_14">
      <g>
       <use style="stroke:#000000;stroke-width:0.5;" x="435.825" xlink:href="#m93b0483c22" y="396.9"/>
      </g>
     </g>
     <g id="line2d_15">
      <g>
       <use style="stroke:#000000;stroke-width:0.5;" x="435.825" xlink:href="#m741efc42ff" y="44.1"/>
      </g>
     </g>
     <g id="text_5">
      <!-- 0.0004 -->
      <defs>
       <path d="
M37.7969 64.3125
L12.8906 25.3906
L37.7969 25.3906
z

M35.2031 72.9062
L47.6094 72.9062
L47.6094 25.3906
L58.0156 25.3906
L58.0156 17.1875
L47.6094 17.1875
L47.6094 0
L37.7969 0
L37.7969 17.1875
L4.89062 17.1875
L4.89062 26.7031
z
" id="DejaVuSans-34"/>
      </defs>
      <g transform="translate(415.5628125 410.018125)scale(0.12 -0.12)">
       <use xlink:href="#DejaVuSans-30"/>
       <use x="63.623046875" xlink:href="#DejaVuSans-2e"/>
       <use x="95.41015625" xlink:href="#DejaVuSans-30"/>
       <use x="159.033203125" xlink:href="#DejaVuSans-30"/>
       <use x="222.65625" xlink:href="#DejaVuSans-30"/>
       <use x="286.279296875" xlink:href="#DejaVuSans-34"/>
      </g>
     </g>
    </g>
    <g id="xtick_6">
     <g id="line2d_16">
      <g>
       <use style="stroke:#000000;stroke-width:0.5;" x="526.5" xlink:href="#m93b0483c22" y="396.9"/>
      </g>
     </g>
     <g id="line2d_17">
      <g>
       <use style="stroke:#000000;stroke-width:0.5;" x="526.5" xlink:href="#m741efc42ff" y="44.1"/>
      </g>
     </g>
     <g id="text_6">
      <!-- 0.0005 -->
      <defs>
       <path d="
M10.7969 72.9062
L49.5156 72.9062
L49.5156 64.5938
L19.8281 64.5938
L19.8281 46.7344
Q21.9688 47.4688 24.1094 47.8281
Q26.2656 48.1875 28.4219 48.1875
Q40.625 48.1875 47.75 41.5
Q54.8906 34.8125 54.8906 23.3906
Q54.8906 11.625 47.5625 5.09375
Q40.2344 -1.42188 26.9062 -1.42188
Q22.3125 -1.42188 17.5469 -0.640625
Q12.7969 0.140625 7.71875 1.70312
L7.71875 11.625
Q12.1094 9.23438 16.7969 8.0625
Q21.4844 6.89062 26.7031 6.89062
Q35.1562 6.89062 40.0781 11.3281
Q45.0156 15.7656 45.0156 23.3906
Q45.0156 31 40.0781 35.4375
Q35.1562 39.8906 26.7031 39.8906
Q22.75 39.8906 18.8125 39.0156
Q14.8906 38.1406 10.7969 36.2812
z
" id="DejaVuSans-35"/>
      </defs>
      <g transform="translate(506.4253125 410.018125)scale(0.12 -0.12)">
       <use xlink:href="#DejaVuSans-30"/>
       <use x="63.623046875" xlink:href="#DejaVuSans-2e"/>
       <use x="95.41015625" xlink:href="#DejaVuSans-30"/>
       <use x="159.033203125" xlink:href="#DejaVuSans-30"/>
       <use x="222.65625" xlink:href="#DejaVuSans-30"/>
       <use x="286.279296875" xlink:href="#DejaVuSans-35"/>
      </g>
     </g>
    </g>
   </g>
   <g id="matplotlib.axis_2">
    <g id="ytick_1">
     <g id="line2d_18">
      <defs>
       <path d="
M0 0
L4 0" id="m728421d6d4" style="stroke:#000000;stroke-width:0.5;"/>
      </defs>
      <g>
       <use style="stroke:#000000;stroke-width:0.5;" x="73.125" xlink:href="#m728421d6d4" y="396.9"/>
      </g>
     </g>
     <g id="line2d_19">
      <defs>
       <path d="
M0 0
L-4 0" id="mcb0005524f" style="stroke:#000000;stroke-width:0.5;"/>
      </defs>
      <g>
       <use style="stroke:#000000;stroke-width:0.5;" x="526.5" xlink:href="#mcb0005524f" y="396.9"/>
      </g>
     </g>
     <g id="text_7">
      <!-- −10 -->
      <defs>
       <path d="
M10.5938 35.5
L73.1875 35.5
L73.1875 27.2031
L10.5938 27.2031
z
" id="DejaVuSans-2212"/>
      </defs>
      <g transform="translate(45.8675 400.21125)scale(0.12 -0.12)">
       <use xlink:href="#DejaVuSans-2212"/>
       <use x="83.7890625" xlink:href="#DejaVuSans-31"/>
       <use x="147.412109375" xlink:href="#DejaVuSans-30"/>
      </g>
     </g>
    </g>
    <g id="ytick_2">
     <g id="line2d_20">
      <g>
       <use style="stroke:#000000;stroke-width:0.5;" x="73.125" xlink:href="#m728421d6d4" y="338.1"/>
      </g>
     </g>
     <g id="line2d_21">
      <g>
       <use style="stroke:#000000;stroke-width:0.5;" x="526.5" xlink:href="#mcb0005524f" y="338.1"/>
      </g>
     </g>
     <g id="text_8">
      <!-- −8 -->
      <defs>
       <path d="
M31.7812 34.625
Q24.75 34.625 20.7188 30.8594
Q16.7031 27.0938 16.7031 20.5156
Q16.7031 13.9219 20.7188 10.1562
Q24.75 6.39062 31.7812 6.39062
Q38.8125 6.39062 42.8594 10.1719
Q46.9219 13.9688 46.9219 20.5156
Q46.9219 27.0938 42.8906 30.8594
Q38.875 34.625 31.7812 34.625
M21.9219 38.8125
Q15.5781 40.375 12.0312 44.7188
Q8.5 49.0781 8.5 55.3281
Q8.5 64.0625 14.7188 69.1406
Q20.9531 74.2188 31.7812 74.2188
Q42.6719 74.2188 48.875 69.1406
Q55.0781 64.0625 55.0781 55.3281
Q55.0781 49.0781 51.5312 44.7188
Q48 40.375 41.7031 38.8125
Q48.8281 37.1562 52.7969 32.3125
Q56.7812 27.4844 56.7812 20.5156
Q56.7812 9.90625 50.3125 4.23438
Q43.8438 -1.42188 31.7812 -1.42188
Q19.7344 -1.42188 13.25 4.23438
Q6.78125 9.90625 6.78125 20.5156
Q6.78125 27.4844 10.7812 32.3125
Q14.7969 37.1562 21.9219 38.8125
M18.3125 54.3906
Q18.3125 48.7344 21.8438 45.5625
Q25.3906 42.3906 31.7812 42.3906
Q38.1406 42.3906 41.7188 45.5625
Q45.3125 48.7344 45.3125 54.3906
Q45.3125 60.0625 41.7188 63.2344
Q38.1406 66.4062 31.7812 66.4062
Q25.3906 66.4062 21.8438 63.2344
Q18.3125 60.0625 18.3125 54.3906" id="DejaVuSans-38"/>
      </defs>
      <g transform="translate(53.526875 341.41125)scale(0.12 -0.12)">
       <use xlink:href="#DejaVuSans-2212"/>
       <use x="83.7890625" xlink:href="#DejaVuSans-38"/>
      </g>
     </g>
    </g>
    <g id="ytick_3">
     <g id="line2d_22">
      <g>
       <use style="stroke:#000000;stroke-width:0.5;" x="73.125" xlink:href="#m728421d6d4" y="279.3"/>
      </g>
     </g>
     <g id="line2d_23">
      <g>
       <use style="stroke:#000000;stroke-width:0.5;" x="526.5" xlink:href="#mcb0005524f" y="279.3"/>
      </g>
     </g>
     <g id="text_9">
      <!-- −6 -->
      <defs>
       <path d="
M33.0156 40.375
Q26.375 40.375 22.4844 35.8281
Q18.6094 31.2969 18.6094 23.3906
Q18.6094 15.5312 22.4844 10.9531
Q26.375 6.39062 33.0156 6.39062
Q39.6562 6.39062 43.5312 10.9531
Q47.4062 15.5312 47.4062 23.3906
Q47.4062 31.2969 43.5312 35.8281
Q39.6562 40.375 33.0156 40.375
M52.5938 71.2969
L52.5938 62.3125
Q48.875 64.0625 45.0938 64.9844
Q41.3125 65.9219 37.5938 65.9219
Q27.8281 65.9219 22.6719 59.3281
Q17.5312 52.7344 16.7969 39.4062
Q19.6719 43.6562 24.0156 45.9219
Q28.375 48.1875 33.5938 48.1875
Q44.5781 48.1875 50.9531 41.5156
Q57.3281 34.8594 57.3281 23.3906
Q57.3281 12.1562 50.6875 5.35938
Q44.0469 -1.42188 33.0156 -1.42188
Q20.3594 -1.42188 13.6719 8.26562
Q6.98438 17.9688 6.98438 36.375
Q6.98438 53.6562 15.1875 63.9375
Q23.3906 74.2188 37.2031 74.2188
Q40.9219 74.2188 44.7031 73.4844
Q48.4844 72.75 52.5938 71.2969" id="DejaVuSans-36"/>
      </defs>
      <g transform="translate(53.46125 282.61125)scale(0.12 -0.12)">
       <use xlink:href="#DejaVuSans-2212"/>
       <use x="83.7890625" xlink:href="#DejaVuSans-36"/>
      </g>
     </g>
    </g>
    <g id="ytick_4">
     <g id="line2d_24">
      <g>
       <use style="stroke:#000000;stroke-width:0.5;" x="73.125" xlink:href="#m728421d6d4" y="220.5"/>
      </g>
     </g>
     <g id="line2d_25">
      <g>
       <use style="stroke:#000000;stroke-width:0.5;" x="526.5" xlink:href="#mcb0005524f" y="220.5"/>
      </g>
     </g>
     <g id="text_10">
      <!-- −4 -->
      <g transform="translate(53.37875 223.81125)scale(0.12 -0.12)">
       <use xlink:href="#DejaVuSans-2212"/>
       <use x="83.7890625" xlink:href="#DejaVuSans-34"/>
      </g>
     </g>
    </g>
    <g id="ytick_5">
     <g id="line2d_26">
      <g>
       <use style="stroke:#000000;stroke-width:0.5;" x="73.125" xlink:href="#m728421d6d4" y="161.7"/>
      </g>
     </g>
     <g id="line2d_27">
      <g>
       <use style="stroke:#000000;stroke-width:0.5;" x="526.5" xlink:href="#mcb0005524f" y="161.7"/>
      </g>
     </g>
     <g id="text_11">
      <!-- −2 -->
      <g transform="translate(53.9075 165.01125)scale(0.12 -0.12)">
       <use xlink:href="#DejaVuSans-2212"/>
       <use x="83.7890625" xlink:href="#DejaVuSans-32"/>
      </g>
     </g>
    </g>
    <g id="ytick_6">
     <g id="line2d_28">
      <g>
       <use style="stroke:#000000;stroke-width:0.5;" x="73.125" xlink:href="#m728421d6d4" y="102.9"/>
      </g>
     </g>
     <g id="line2d_29">
      <g>
       <use style="stroke:#000000;stroke-width:0.5;" x="526.5" xlink:href="#mcb0005524f" y="102.9"/>
      </g>
     </g>
     <g id="text_12">
      <!-- 0 -->
      <g transform="translate(63.078125 106.21125)scale(0.12 -0.12)">
       <use xlink:href="#DejaVuSans-30"/>
      </g>
     </g>
    </g>
    <g id="ytick_7">
     <g id="line2d_30">
      <g>
       <use style="stroke:#000000;stroke-width:0.5;" x="73.125" xlink:href="#m728421d6d4" y="44.1"/>
      </g>
     </g>
     <g id="line2d_31">
      <g>
       <use style="stroke:#000000;stroke-width:0.5;" x="526.5" xlink:href="#mcb0005524f" y="44.1"/>
      </g>
     </g>
     <g id="text_13">
      <!-- 2 -->
      <g transform="translate(63.57125 47.41125)scale(0.12 -0.12)">
       <use xlink:href="#DejaVuSans-32"/>
      </g>
     </g>
    </g>
   </g>
  </g>
 </g>
 <defs>
  <clipPath id="p5873ec822d">
   <rect height="352.8" width="453.375" x="73.125" y="44.1"/>
  </clipPath>
 </defs>
</svg>
