<?xml version="1.0" encoding="UTF-8" standalone="no"?>
<!-- Created with Inkscape (http://www.inkscape.org/) -->

<svg
   xmlns:dc="http://purl.org/dc/elements/1.1/"
   xmlns:cc="http://creativecommons.org/ns#"
   xmlns:rdf="http://www.w3.org/1999/02/22-rdf-syntax-ns#"
   xmlns:svg="http://www.w3.org/2000/svg"
   xmlns="http://www.w3.org/2000/svg"
   xmlns:sodipodi="http://sodipodi.sourceforge.net/DTD/sodipodi-0.dtd"
   xmlns:inkscape="http://www.inkscape.org/namespaces/inkscape"
   id="svg2"
   version="1.1"
   inkscape:version="0.48.5 r10040"
   width="824.17206"
   height="735.72839"
   sodipodi:docname="igsv.svg">
  <metadata
     id="metadata8">
    <rdf:RDF>
      <cc:Work
         rdf:about="">
        <dc:format>image/svg+xml</dc:format>
        <dc:type
           rdf:resource="http://purl.org/dc/dcmitype/StillImage" />
        <dc:title></dc:title>
      </cc:Work>
    </rdf:RDF>
  </metadata>
  <defs
     id="defs6" />
  <sodipodi:namedview
     pagecolor="#ffffff"
     bordercolor="#666666"
     borderopacity="1"
     objecttolerance="10"
     gridtolerance="10"
     guidetolerance="10"
     inkscape:pageopacity="0"
     inkscape:pageshadow="2"
     inkscape:window-width="1364"
     inkscape:window-height="716"
     id="namedview4"
     showgrid="false"
     inkscape:zoom="0.17642314"
     inkscape:cx="19.647972"
     inkscape:cy="-65.159985"
     inkscape:window-x="0"
     inkscape:window-y="25"
     inkscape:window-maximized="1"
     inkscape:current-layer="layer1"
     fit-margin-top="0"
     fit-margin-left="0"
     fit-margin-right="0"
     fit-margin-bottom="0" />
  <flowRoot
     transform="matrix(0.96093065,0,0,1.0601463,2.045905,637.01789)"
     style="font-size:40px;font-style:normal;font-variant:normal;font-weight:normal;font-stretch:normal;line-height:125%;letter-spacing:0px;word-spacing:0px;fill:#000000;fill-opacity:1;stroke:none;font-family:Serif;-inkscape-font-specification:Serif"
     id="flowRoot3946"
     xml:space="preserve"><flowRegion
       id="flowRegion3948"><rect
         style="font-style:normal;font-variant:normal;font-weight:normal;font-stretch:normal;font-family:Serif;-inkscape-font-specification:Serif"
         y="100.97796"
         x="-13.527054"
         height="54.108227"
         width="138.77756"
         id="rect3950" /></flowRegion><flowPara
       style="font-size:43px;font-style:normal;font-variant:normal;font-weight:bold;font-stretch:normal;font-family:Linux Biolinum O;-inkscape-font-specification:Linux Biolinum O Bold"
       id="flowPara3952">IA.G.S.V.</flowPara></flowRoot>  <flowRoot
     xml:space="preserve"
     id="flowRoot3954"
     style="font-size:40px;font-style:normal;font-variant:normal;font-weight:normal;font-stretch:normal;line-height:125%;letter-spacing:0px;word-spacing:0px;fill:#000000;fill-opacity:1;stroke:none;font-family:Serif;-inkscape-font-specification:Serif"
     transform="matrix(0.96093065,0,0,1.0601463,4.801416,627.74936)"><flowRegion
       id="flowRegion3956"><rect
         id="rect3958"
         width="138.77756"
         height="54.108227"
         x="-13.527054"
         y="100.97796"
         style="font-style:normal;font-variant:normal;font-weight:normal;font-stretch:normal;font-family:Serif;-inkscape-font-specification:Serif" /></flowRegion><flowPara
       id="flowPara3960"
       style="font-size:43px;font-style:normal;font-variant:normal;font-weight:bold;font-stretch:normal;font-family:Linux Biolinum O;-inkscape-font-specification:Linux Biolinum O Bold">I.G.S.V.AIVV</flowPara></flowRoot>  <g
     inkscape:groupmode="layer"
     id="layer1"
     inkscape:label="vector"
     style="display:inline"
     transform="translate(-63.944282,625.63769)">
    <g
       id="g4195">
      <g
         id="g4187">
        <g
           id="g4179">
          <path
             sodipodi:nodetypes="cccscscscsccsccc"
             inkscape:connector-curvature="0"
             id="path2987"
             d="m 63.944282,-483.53881 0,79.28795 27.349575,0 c 0,0 11.891113,-0.80656 39.240693,20.59746 27.34957,21.40401 224.74216,178.36679 224.74216,178.36679 0,0 32.10605,26.16047 76.10316,26.16047 43.99717,0 391.21787,0 391.21787,0 0,0 -26.16046,-79.07595 -93.93988,-79.07595 -67.77935,0 -165.28654,0 -165.28654,0 0,0 -26.16046,-27.94413 -59.45561,-27.94413 -33.29516,0 -53.51002,27.34958 -53.51002,27.34958 l -32.10605,0 c -12.19926,0 -8.32381,7.13466 -66.59025,-39.2407 -58.2665,-46.37537 -202.14905,-160.53012 -202.14905,-160.53012 0,0 -29.11614,-24.50692 -55.590979,-25.56591 -7.431953,-0.29726 -20.512181,0.59459 -30.025079,0.59459 z"
             style="fill:#978c78;fill-opacity:1;stroke:none" />
          <path
             inkscape:connector-curvature="0"
             id="path2989"
             d="m 64.538835,-359.27661 0,180.15047 263.982835,0 -203.33812,-165.88113 c 0,0 -14.26935,-14.26934 -33.29514,-14.26934 -19.02579,0 -27.349575,0 -27.349575,0 z"
             style="fill:#978c78;fill-opacity:1;stroke:none" />
        </g>
        <g
           id="g4183">
          <path
             sodipodi:nodetypes="czscsccscccscsczzcc"
             inkscape:connector-curvature="0"
             id="path3764"
             d="m 265.49876,-408.0302 c 0,0 32.70194,1.18911 51.13178,1.18911 18.42983,0 25.56594,-5.94555 52.9155,-23.78224 27.34956,-17.83667 71.94126,-50.53726 71.94126,-50.53726 0,0 34.48426,-25.5659 64.80662,-25.5659 30.32236,0 59.45561,19.02579 59.45561,19.02579 l 84.42696,50.53726 c 0,0 44.55739,29.19728 80.84247,29.19728 36.28507,0 119.52286,0 119.52286,0 l 0,-69.62709 -68.96846,0 c 0,0 -17.83672,5.94556 -69.56304,-33.29513 -51.7264,-39.2407 -127.82955,-89.1834 -127.82955,-89.1834 0,0 -30.91695,-25.56591 -77.88685,-25.56591 -46.96991,0 -94.5344,31.51147 -94.5344,31.51147 0,0 -108.39821,72.83726 -141.08388,92.58747 -32.68567,19.7502 -44.87375,17.75366 -54.45155,17.75366 -9.57781,0 -47.0434,0.84084 -47.0434,0.84084 z"
             style="fill:#c8a771;fill-opacity:1;stroke:none" />
          <path
             sodipodi:nodetypes="ccczsccscczszzsc"
             inkscape:connector-curvature="0"
             id="path3766"
             d="m 317.42814,-369.39716 88.28704,72.3113 38.25774,0 c 0,0 26.95624,-17.28473 41.2006,-25.64529 14.24436,-8.36056 38.71678,-7.29988 54.23349,3.36332 7.03152,4.8321 36.15565,21.44114 36.15565,21.44114 l 177.83535,0 c 0,0 28.58821,5.46539 56.75598,37.4169 28.16776,31.9515 43.72314,76.51545 43.72314,76.51545 l 0,-186.66407 c 0,0 -176.90196,0 -206.00319,0 -29.10123,0 -49.84328,-14.18317 -73.99294,-29.42902 -18.35819,-11.5897 -44.5075,-23.54321 -65.16423,-23.54321 -20.65672,0 -53.22766,19.97851 -73.57255,31.11068 -20.3449,11.13216 -40.35984,23.1228 -64.32348,23.1228 -23.96363,0 -53.3926,0 -53.3926,0 z"
             style="fill:#c8a771;fill-opacity:1;stroke:none" />
        </g>
      </g>
      <g
         id="g4166">
        <rect
           style="fill:#978c78;fill-opacity:1;fill-rule:nonzero;stroke:none"
           id="rect3768"
           width="48.768089"
           height="203.48065"
           x="65.179382"
           y="-99.070602" />
        <path
           sodipodi:type="arc"
           style="fill:#978c78;fill-opacity:1;fill-rule:nonzero;stroke:none"
           id="path3770"
           sodipodi:cx="78.281563"
           sodipodi:cy="104.73547"
           sodipodi:rx="3.6322646"
           sodipodi:ry="4.2585173"
           d="m 81.913827,104.73547 a 3.6322646,4.2585173 0 1 1 -7.264529,0 3.6322646,4.2585173 0 1 1 7.264529,0 z"
           transform="matrix(6.7131798,0,0,6.7131798,-365.32514,-624.93988)" />
        <path
           transform="matrix(6.7131798,0,0,6.7131798,-98.142584,-624.93988)"
           d="m 81.913827,104.73547 a 3.6322646,4.2585173 0 1 1 -7.264529,0 3.6322646,4.2585173 0 1 1 7.264529,0 z"
           sodipodi:ry="4.2585173"
           sodipodi:rx="3.6322646"
           sodipodi:cy="104.73547"
           sodipodi:cx="78.281563"
           id="path3772"
           style="fill:#978c78;fill-opacity:1;fill-rule:nonzero;stroke:none"
           sodipodi:type="arc" />
        <path
           sodipodi:type="arc"
           style="fill:#978c78;fill-opacity:1;fill-rule:nonzero;stroke:none"
           id="path3774"
           sodipodi:cx="78.281563"
           sodipodi:cy="104.73547"
           sodipodi:rx="3.6322646"
           sodipodi:ry="4.2585173"
           d="m 81.913827,104.73547 a 3.6322646,4.2585173 0 1 1 -7.264529,0 3.6322646,4.2585173 0 1 1 7.264529,0 z"
           transform="matrix(6.7131798,0,0,6.7131798,126.07762,-624.93988)" />
        <path
           transform="matrix(6.7131798,0,0,6.7131798,338.21409,-624.93988)"
           d="m 81.913827,104.73547 a 3.6322646,4.2585173 0 1 1 -7.264529,0 3.6322646,4.2585173 0 1 1 7.264529,0 z"
           sodipodi:ry="4.2585173"
           sodipodi:rx="3.6322646"
           sodipodi:cy="104.73547"
           sodipodi:cx="78.281563"
           id="path3776"
           style="fill:#978c78;fill-opacity:1;fill-rule:nonzero;stroke:none"
           sodipodi:type="arc" />
        <g
           transform="matrix(6.4509002,0,0,7.1169527,770.52206,-914.12703)"
           style="font-size:40px;font-style:normal;font-variant:normal;font-weight:normal;font-stretch:normal;line-height:125%;letter-spacing:0px;word-spacing:0px;fill:#978c78;fill-opacity:1;stroke:none;font-family:Serif;-inkscape-font-specification:Serif"
           id="flowRoot3938">
          <path
             d="m 1.5677518,133.45942 c 0,0 -5.8924346,-17.44444 -6.2794342,-18.86343 l -9.0682926,0 c 2.149998,4.34299 6.6816086,19.40809 10.6376046,28.82508 l 5.7766916,0 c 4.1279959,-9.54599 9.3822398,-19.32209 13.7252358,-28.82508 l -7.0556598,0 -6.9066481,18.86343 z"
             style="font-size:43px;font-weight:bold;fill:#978c78;fill-opacity:1;stroke:none;font-family:Linux Biolinum O;-inkscape-font-specification:Linux Biolinum O Bold"
             id="path4023"
             inkscape:connector-curvature="0"
             sodipodi:nodetypes="ccccccccc" />
        </g>
        <g
           transform="matrix(6.4509002,0,0,7.1169527,560.31474,-913.13051)"
           style="font-size:40px;font-style:normal;font-variant:normal;font-weight:normal;font-stretch:normal;line-height:125%;letter-spacing:0px;word-spacing:0px;fill:#978c78;fill-opacity:1;stroke:none;font-family:Serif;-inkscape-font-specification:Serif"
           id="flowRoot3962">
          <path
             d="m -9.8057068,136.91267 -3.0691152,0 0,6.3912 c 0,0 4.5895772,0 9.835572,0 6.3209937,0 10.7983717,-3.55956 10.7983717,-7.94555 0,-1.54603 0.1006786,-3.88581 -1.2713856,-5.74798 -1.3720642,-1.86217 -4.2168712,-3.24673 -5.9368695,-4.06372 -2.3219977,-1.075 -6.0176022,-1.2606 -6.0176022,-4.44259 0,-2.15 1.5480024,-2.7828 3.913,-2.7828 2.5799974,0 3.6180576,0.0403 5.6810426,1.85195 l 3.212558,-0.0135 -0.019814,-5.10093 c -2.852561,-0.59468 -5.2885502,-0.60308 -8.5321427,-0.64626 -2.4294976,0 -5.8207562,0.12231 -8.0404606,1.48576 -2.2197037,1.36384 -3.5644007,3.92276 -3.5644007,6.20176 0,0.83849 0.211347,2.28333 0.510876,3.11809 0.561055,1.56362 2.210719,3.41915 3.1950108,4.15857 1.50676,1.13191 4.2228194,1.74632 6.7168169,2.99332 2.02099798,1.03199 3.31738553,1.62963 3.7084143,3.56984 0.605279,3.00329 -2.23364583,3.24756 -4.8136433,3.24756 -3.0540698,0.15836 -5.2319639,-0.7201 -6.3062285,-2.27472 z"
             style="font-size:43px;font-weight:bold;fill:#978c78;fill-opacity:1;stroke:none;font-family:Linux Biolinum O;-inkscape-font-specification:Linux Biolinum O Bold"
             id="path4001"
             inkscape:connector-curvature="0"
             sodipodi:nodetypes="cccssscssccccsssscscc" />
        </g>
        <g
           transform="matrix(6.4509002,0,0,7.1169527,281.15951,-912.44537)"
           style="font-size:40px;font-style:normal;font-variant:normal;font-weight:normal;font-stretch:normal;line-height:125%;letter-spacing:0px;word-spacing:0px;fill:#978c78;fill-opacity:1;stroke:none;font-family:Serif;-inkscape-font-specification:Serif"
           id="flowRoot3970">
          <path
             d="m 7.9867555,136.00347 c 0,0 -0.029374,2.29571 -0.691248,2.7122 -0.6618745,0.41648 -2.0894623,0.19721 -3.4825065,0.19768 -5.8201841,0.002 -7.6653179,-4.1783 -7.6653179,-9.85429 0,-6.923 2.3066442,-10.17098 7.5902667,-10.34819 3.3517027,-0.11242 5.4878873,-0.12731 7.6419142,2.15817 l 3.838072,0.25239 0,-4.99928 c -3.923036,-1.27822 -7.8358937,-1.65365 -11.3341864,-1.7096 -4.2999957,0 -7.6815461,0.96771 -10.6485431,3.33271 -3.2249968,2.57999 -4.7384395,7.3148 -4.7384395,12.1738 0,4.42899 1.433445,9.04637 5.1744413,11.54037 2.5369975,1.76299 6.25956065,2.19369 9.8282271,2.1497 4.7924807,-0.0591 8.8042596,0.76667 12.8361716,-2.09783 l 0.04281,-12.00994 c -0.197752,-0.0453 -8.4069112,0 -8.4069112,0 0,0 0.061334,0.93796 0.061334,4.16296 z"
             style="font-size:43px;font-weight:bold;fill:#978c78;fill-opacity:1;stroke:none;font-family:Linux Biolinum O;-inkscape-font-specification:Linux Biolinum O Bold"
             id="path3998"
             inkscape:connector-curvature="0"
             sodipodi:nodetypes="czssscccccscsccccc" />
        </g>
      </g>
    </g>
  </g>
</svg>
