<?xml version="1.0" encoding="utf-8" standalone="no"?>
<!DOCTYPE svg PUBLIC "-//W3C//DTD SVG 1.1//EN"
  "http://www.w3.org/Graphics/SVG/1.1/DTD/svg11.dtd">
<!-- Created with matplotlib (http://matplotlib.org/) -->
<svg height="235pt" version="1.1" viewBox="0 0 703 235" width="703pt" xmlns="http://www.w3.org/2000/svg" xmlns:xlink="http://www.w3.org/1999/xlink">
 <defs>
  <style type="text/css">
*{stroke-linecap:butt;stroke-linejoin:round;}
  </style>
 </defs>
 <g id="figure_1">
  <g id="patch_1">
   <path d="
M0 235.755
L703.28 235.755
L703.28 0
L0 0
z
" style="fill:#ffffff;"/>
  </g>
  <g id="axes_1">
   <g id="patch_2">
    <path d="
M26.48 195.942
L330.844 195.942
L330.844 23.1417
L26.48 23.1417
z
" style="fill:#ffffff;"/>
   </g>
   <g id="line2d_1">
    <path clip-path="url(#pe92f4f9965)" d="
M26.48 195.942
L27.0893 195.838
L27.6987 195.536
L28.6127 194.743
L29.5267 193.586
L30.7454 191.548
L31.964 189.028
L33.4874 185.326
L35.3154 180.255
L37.7527 172.761
L41.7134 159.694
L47.5021 140.671
L50.8535 130.46
L53.5955 122.761
L56.3375 115.726
L58.7748 110.062
L61.2122 104.96
L63.6495 100.416
L65.7822 96.888
L67.9149 93.7647
L70.0476 91.0302
L72.1802 88.6668
L74.3129 86.6553
L76.4456 84.9759
L78.5783 83.6081
L80.711 82.5316
L82.8436 81.7261
L84.9763 81.1719
L87.109 80.85
L89.2417 80.7417
L91.679 80.8572
L94.1164 81.2038
L96.8584 81.8409
L99.6004 82.7098
L102.647 83.9122
L105.998 85.4817
L109.654 87.4401
L113.92 89.986
L118.794 93.1576
L124.888 97.393
L134.028 104.047
L152.003 117.172
L160.839 123.315
L168.76 128.555
L176.377 133.326
L183.689 137.648
L191.001 141.716
L198.313 145.532
L205.625 149.104
L213.242 152.574
L220.858 155.801
L228.78 158.913
L237.006 161.898
L245.232 164.649
L253.763 167.271
L262.598 169.759
L272.043 172.183
L281.792 174.452
L291.846 176.566
L302.509 178.583
L313.782 180.488
L325.664 182.271
L330.844 182.982
L330.844 182.982" style="fill:none;stroke:#000000;stroke-linecap:square;stroke-width:2;"/>
   </g>
   <g id="line2d_2">
    <path clip-path="url(#pe92f4f9965)" d="
M26.48 195.942
L27.0893 195.838
L27.6987 195.536
L28.6127 194.744
L29.5267 193.588
L30.7454 191.554
L31.964 189.045
L33.4874 185.367
L35.3154 180.352
L37.7527 172.994
L48.1114 140.848
L50.8535 133.482
L53.2908 127.601
L55.4235 123.009
L57.5562 118.952
L59.3842 115.902
L61.2122 113.245
L63.0402 110.972
L64.8682 109.073
L66.6962 107.533
L68.2196 106.514
L69.7429 105.724
L71.2662 105.152
L72.7896 104.788
L74.3129 104.621
L76.1409 104.663
L77.9689 104.953
L79.797 105.47
L81.9296 106.335
L84.0623 107.455
L86.4997 109.009
L89.2417 111.059
L92.2884 113.649
L95.6397 116.798
L99.9051 121.139
L105.694 127.388
L120.927 143.983
L126.411 149.56
L131.591 154.506
L136.465 158.845
L141.035 162.618
L145.605 166.102
L150.175 169.301
L154.745 172.222
L159.315 174.876
L163.885 177.277
L168.76 179.578
L173.635 181.629
L178.814 183.556
L183.994 185.249
L189.478 186.812
L195.266 188.233
L201.664 189.565
L208.367 190.73
L215.679 191.772
L223.905 192.709
L233.045 193.515
L243.404 194.197
L255.591 194.765
L270.215 195.214
L288.799 195.55
L314.696 195.779
L330.844 195.849
L330.844 195.849" style="fill:none;stroke:#0000ff;stroke-dasharray:6.000000,6.000000;stroke-dashoffset:0.0;stroke-width:2;"/>
   </g>
   <g id="line2d_3">
    <path clip-path="url(#pe92f4f9965)" d="
M67.2384 -1
L71.8756 8.20455
L76.7503 17.417
L81.625 26.1774
L86.4997 34.5079
L91.679 42.9116
L96.8584 50.8778
L102.038 58.4293
L107.217 65.5878
L112.396 72.3736
L117.576 78.8061
L123.06 85.2524
L128.544 91.344
L134.028 97.1003
L139.512 102.54
L144.996 107.68
L150.785 112.799
L156.573 117.622
L162.362 122.164
L168.455 126.661
L174.549 130.885
L180.947 135.042
L187.345 138.934
L194.048 142.745
L200.75 146.301
L207.758 149.764
L215.07 153.121
L222.382 156.234
L229.998 159.236
L237.92 162.118
L246.146 164.871
L254.677 167.49
L263.512 169.97
L272.652 172.308
L282.401 174.571
L292.455 176.677
L303.119 178.685
L314.392 180.581
L326.274 182.354
L330.844 182.98
L330.844 182.98" style="fill:none;stroke:#ff0000;stroke-dasharray:3.000000,5.000000,1.000000,5.000000;stroke-dashoffset:0.0;stroke-width:2;"/>
   </g>
   <g id="patch_3">
    <path d="
M26.48 23.1417
L330.844 23.1417" style="fill:none;stroke:#000000;stroke-linecap:square;stroke-linejoin:miter;"/>
   </g>
   <g id="patch_4">
    <path d="
M330.844 195.942
L330.844 23.1417" style="fill:none;stroke:#000000;stroke-linecap:square;stroke-linejoin:miter;"/>
   </g>
   <g id="patch_5">
    <path d="
M26.48 195.942
L330.844 195.942" style="fill:none;stroke:#000000;stroke-linecap:square;stroke-linejoin:miter;"/>
   </g>
   <g id="patch_6">
    <path d="
M26.48 195.942
L26.48 23.1417" style="fill:none;stroke:#000000;stroke-linecap:square;stroke-linejoin:miter;"/>
   </g>
   <g id="matplotlib.axis_1">
    <g id="xtick_1">
     <g id="line2d_4">
      <defs>
       <path d="
M0 0
L0 -4" id="m93b0483c22" style="stroke:#000000;stroke-width:0.5;"/>
      </defs>
      <g>
       <use style="stroke:#000000;stroke-width:0.5;" x="26.48" xlink:href="#m93b0483c22" y="195.94175"/>
      </g>
     </g>
     <g id="line2d_5">
      <defs>
       <path d="
M0 0
L0 4" id="m741efc42ff" style="stroke:#000000;stroke-width:0.5;"/>
      </defs>
      <g>
       <use style="stroke:#000000;stroke-width:0.5;" x="26.48" xlink:href="#m741efc42ff" y="23.14175"/>
      </g>
     </g>
     <g id="text_1">
      <!-- 0.00 -->
      <defs>
       <path d="
M31.7812 66.4062
Q24.1719 66.4062 20.3281 58.9062
Q16.5 51.4219 16.5 36.375
Q16.5 21.3906 20.3281 13.8906
Q24.1719 6.39062 31.7812 6.39062
Q39.4531 6.39062 43.2812 13.8906
Q47.125 21.3906 47.125 36.375
Q47.125 51.4219 43.2812 58.9062
Q39.4531 66.4062 31.7812 66.4062
M31.7812 74.2188
Q44.0469 74.2188 50.5156 64.5156
Q56.9844 54.8281 56.9844 36.375
Q56.9844 17.9688 50.5156 8.26562
Q44.0469 -1.42188 31.7812 -1.42188
Q19.5312 -1.42188 13.0625 8.26562
Q6.59375 17.9688 6.59375 36.375
Q6.59375 54.8281 13.0625 64.5156
Q19.5312 74.2188 31.7812 74.2188" id="DejaVuSans-30"/>
       <path d="
M10.6875 12.4062
L21 12.4062
L21 0
L10.6875 0
z
" id="DejaVuSans-2e"/>
      </defs>
      <g transform="translate(13.9146875 209.059875)scale(0.12 -0.12)">
       <use xlink:href="#DejaVuSans-30"/>
       <use x="63.623046875" xlink:href="#DejaVuSans-2e"/>
       <use x="95.41015625" xlink:href="#DejaVuSans-30"/>
       <use x="159.033203125" xlink:href="#DejaVuSans-30"/>
      </g>
     </g>
    </g>
    <g id="xtick_2">
     <g id="line2d_6">
      <g>
       <use style="stroke:#000000;stroke-width:0.5;" x="74.9209772247" xlink:href="#m93b0483c22" y="195.94175"/>
      </g>
     </g>
     <g id="line2d_7">
      <g>
       <use style="stroke:#000000;stroke-width:0.5;" x="74.9209772247" xlink:href="#m741efc42ff" y="23.14175"/>
      </g>
     </g>
     <g id="text_2">
      <!-- 0.05 -->
      <defs>
       <path d="
M10.7969 72.9062
L49.5156 72.9062
L49.5156 64.5938
L19.8281 64.5938
L19.8281 46.7344
Q21.9688 47.4688 24.1094 47.8281
Q26.2656 48.1875 28.4219 48.1875
Q40.625 48.1875 47.75 41.5
Q54.8906 34.8125 54.8906 23.3906
Q54.8906 11.625 47.5625 5.09375
Q40.2344 -1.42188 26.9062 -1.42188
Q22.3125 -1.42188 17.5469 -0.640625
Q12.7969 0.140625 7.71875 1.70312
L7.71875 11.625
Q12.1094 9.23438 16.7969 8.0625
Q21.4844 6.89062 26.7031 6.89062
Q35.1562 6.89062 40.0781 11.3281
Q45.0156 15.7656 45.0156 23.3906
Q45.0156 31 40.0781 35.4375
Q35.1562 39.8906 26.7031 39.8906
Q22.75 39.8906 18.8125 39.0156
Q14.8906 38.1406 10.7969 36.2812
z
" id="DejaVuSans-35"/>
      </defs>
      <g transform="translate(62.4812897247 209.059875)scale(0.12 -0.12)">
       <use xlink:href="#DejaVuSans-30"/>
       <use x="63.623046875" xlink:href="#DejaVuSans-2e"/>
       <use x="95.41015625" xlink:href="#DejaVuSans-30"/>
       <use x="159.033203125" xlink:href="#DejaVuSans-35"/>
      </g>
     </g>
    </g>
    <g id="xtick_3">
     <g id="line2d_8">
      <g>
       <use style="stroke:#000000;stroke-width:0.5;" x="123.361954449" xlink:href="#m93b0483c22" y="195.94175"/>
      </g>
     </g>
     <g id="line2d_9">
      <g>
       <use style="stroke:#000000;stroke-width:0.5;" x="123.361954449" xlink:href="#m741efc42ff" y="23.14175"/>
      </g>
     </g>
     <g id="text_3">
      <!-- 0.10 -->
      <defs>
       <path d="
M12.4062 8.29688
L28.5156 8.29688
L28.5156 63.9219
L10.9844 60.4062
L10.9844 69.3906
L28.4219 72.9062
L38.2812 72.9062
L38.2812 8.29688
L54.3906 8.29688
L54.3906 0
L12.4062 0
z
" id="DejaVuSans-31"/>
      </defs>
      <g transform="translate(110.796641949 209.059875)scale(0.12 -0.12)">
       <use xlink:href="#DejaVuSans-30"/>
       <use x="63.623046875" xlink:href="#DejaVuSans-2e"/>
       <use x="95.41015625" xlink:href="#DejaVuSans-31"/>
       <use x="159.033203125" xlink:href="#DejaVuSans-30"/>
      </g>
     </g>
    </g>
    <g id="xtick_4">
     <g id="line2d_10">
      <g>
       <use style="stroke:#000000;stroke-width:0.5;" x="171.802931674" xlink:href="#m93b0483c22" y="195.94175"/>
      </g>
     </g>
     <g id="line2d_11">
      <g>
       <use style="stroke:#000000;stroke-width:0.5;" x="171.802931674" xlink:href="#m741efc42ff" y="23.14175"/>
      </g>
     </g>
     <g id="text_4">
      <!-- 0.15 -->
      <g transform="translate(159.363244174 209.059875)scale(0.12 -0.12)">
       <use xlink:href="#DejaVuSans-30"/>
       <use x="63.623046875" xlink:href="#DejaVuSans-2e"/>
       <use x="95.41015625" xlink:href="#DejaVuSans-31"/>
       <use x="159.033203125" xlink:href="#DejaVuSans-35"/>
      </g>
     </g>
    </g>
    <g id="xtick_5">
     <g id="line2d_12">
      <g>
       <use style="stroke:#000000;stroke-width:0.5;" x="220.243908899" xlink:href="#m93b0483c22" y="195.94175"/>
      </g>
     </g>
     <g id="line2d_13">
      <g>
       <use style="stroke:#000000;stroke-width:0.5;" x="220.243908899" xlink:href="#m741efc42ff" y="23.14175"/>
      </g>
     </g>
     <g id="text_5">
      <!-- 0.20 -->
      <defs>
       <path d="
M19.1875 8.29688
L53.6094 8.29688
L53.6094 0
L7.32812 0
L7.32812 8.29688
Q12.9375 14.1094 22.625 23.8906
Q32.3281 33.6875 34.8125 36.5312
Q39.5469 41.8438 41.4219 45.5312
Q43.3125 49.2188 43.3125 52.7812
Q43.3125 58.5938 39.2344 62.25
Q35.1562 65.9219 28.6094 65.9219
Q23.9688 65.9219 18.8125 64.3125
Q13.6719 62.7031 7.8125 59.4219
L7.8125 69.3906
Q13.7656 71.7812 18.9375 73
Q24.125 74.2188 28.4219 74.2188
Q39.75 74.2188 46.4844 68.5469
Q53.2188 62.8906 53.2188 53.4219
Q53.2188 48.9219 51.5312 44.8906
Q49.8594 40.875 45.4062 35.4062
Q44.1875 33.9844 37.6406 27.2188
Q31.1094 20.4531 19.1875 8.29688" id="DejaVuSans-32"/>
      </defs>
      <g transform="translate(207.678596399 209.059875)scale(0.12 -0.12)">
       <use xlink:href="#DejaVuSans-30"/>
       <use x="63.623046875" xlink:href="#DejaVuSans-2e"/>
       <use x="95.41015625" xlink:href="#DejaVuSans-32"/>
       <use x="159.033203125" xlink:href="#DejaVuSans-30"/>
      </g>
     </g>
    </g>
    <g id="xtick_6">
     <g id="line2d_14">
      <g>
       <use style="stroke:#000000;stroke-width:0.5;" x="268.684886123" xlink:href="#m93b0483c22" y="195.94175"/>
      </g>
     </g>
     <g id="line2d_15">
      <g>
       <use style="stroke:#000000;stroke-width:0.5;" x="268.684886123" xlink:href="#m741efc42ff" y="23.14175"/>
      </g>
     </g>
     <g id="text_6">
      <!-- 0.25 -->
      <g transform="translate(256.245198623 209.059875)scale(0.12 -0.12)">
       <use xlink:href="#DejaVuSans-30"/>
       <use x="63.623046875" xlink:href="#DejaVuSans-2e"/>
       <use x="95.41015625" xlink:href="#DejaVuSans-32"/>
       <use x="159.033203125" xlink:href="#DejaVuSans-35"/>
      </g>
     </g>
    </g>
    <g id="xtick_7">
     <g id="line2d_16">
      <g>
       <use style="stroke:#000000;stroke-width:0.5;" x="317.125863348" xlink:href="#m93b0483c22" y="195.94175"/>
      </g>
     </g>
     <g id="line2d_17">
      <g>
       <use style="stroke:#000000;stroke-width:0.5;" x="317.125863348" xlink:href="#m741efc42ff" y="23.14175"/>
      </g>
     </g>
     <g id="text_7">
      <!-- 0.30 -->
      <defs>
       <path d="
M40.5781 39.3125
Q47.6562 37.7969 51.625 33
Q55.6094 28.2188 55.6094 21.1875
Q55.6094 10.4062 48.1875 4.48438
Q40.7656 -1.42188 27.0938 -1.42188
Q22.5156 -1.42188 17.6562 -0.515625
Q12.7969 0.390625 7.625 2.20312
L7.625 11.7188
Q11.7188 9.32812 16.5938 8.10938
Q21.4844 6.89062 26.8125 6.89062
Q36.0781 6.89062 40.9375 10.5469
Q45.7969 14.2031 45.7969 21.1875
Q45.7969 27.6406 41.2812 31.2656
Q36.7656 34.9062 28.7188 34.9062
L20.2188 34.9062
L20.2188 43.0156
L29.1094 43.0156
Q36.375 43.0156 40.2344 45.9219
Q44.0938 48.8281 44.0938 54.2969
Q44.0938 59.9062 40.1094 62.9062
Q36.1406 65.9219 28.7188 65.9219
Q24.6562 65.9219 20.0156 65.0312
Q15.375 64.1562 9.8125 62.3125
L9.8125 71.0938
Q15.4375 72.6562 20.3438 73.4375
Q25.25 74.2188 29.5938 74.2188
Q40.8281 74.2188 47.3594 69.1094
Q53.9062 64.0156 53.9062 55.3281
Q53.9062 49.2656 50.4375 45.0938
Q46.9688 40.9219 40.5781 39.3125" id="DejaVuSans-33"/>
      </defs>
      <g transform="translate(304.560550848 209.059875)scale(0.12 -0.12)">
       <use xlink:href="#DejaVuSans-30"/>
       <use x="63.623046875" xlink:href="#DejaVuSans-2e"/>
       <use x="95.41015625" xlink:href="#DejaVuSans-33"/>
       <use x="159.033203125" xlink:href="#DejaVuSans-30"/>
      </g>
     </g>
    </g>
    <g id="text_8">
     <!-- $k\,[\rm \,{rad/km}]$ -->
     <defs>
      <path d="
M2.20312 -25
L2.20312 -21
L11.9219 -21
L11.9219 71
L2.20312 71
L2.20312 75
L15.9219 75
L15.9219 -25
z
" id="Cmr10-5d"/>
      <path d="
M5.32812 1.8125
Q5.32812 2.39062 5.42188 2.6875
L19.9219 60.5
Q20.3125 62.2031 20.4062 63.1875
Q20.4062 64.7969 13.9219 64.7969
Q12.8906 64.7969 12.8906 66.1094
Q12.9375 66.3594 13.1094 66.9844
Q13.2812 67.625 13.5469 67.9688
Q13.8125 68.3125 14.3125 68.3125
L27.7812 69.3906
L28.0781 69.3906
Q28.0781 69.2812 28.4219 69.1094
Q28.7656 68.9531 28.8125 68.8906
Q29 68.4062 29 68.1094
L18.5 26.3125
Q22.125 27.8281 27.6094 33.5156
Q33.1094 39.2031 36.2031 41.6875
Q39.3125 44.1875 44 44.1875
Q46.7812 44.1875 48.7344 42.2812
Q50.6875 40.375 50.6875 37.5938
Q50.6875 35.8438 49.9531 34.3438
Q49.2188 32.8594 47.8906 31.9219
Q46.5781 31 44.8281 31
Q43.2188 31 42.1094 32
Q41.0156 33.0156 41.0156 34.625
Q41.0156 37.0156 42.7031 38.6406
Q44.3906 40.2812 46.7812 40.2812
Q45.7969 41.6094 43.7969 41.6094
Q40.8281 41.6094 38.0625 39.8906
Q35.2969 38.1875 32.0938 34.9844
Q28.9062 31.7812 26.2656 29.125
Q23.6406 26.4688 21.3906 25.0938
Q27.2969 24.4219 31.6406 22
Q35.9844 19.5781 35.9844 14.5938
Q35.9844 13.5781 35.5938 12.0156
Q34.7188 8.25 34.7188 6
Q34.7188 1.51562 37.7969 1.51562
Q41.4062 1.51562 43.2812 5.46875
Q45.1719 9.42188 46.3906 14.7031
Q46.5781 15.2812 47.2188 15.2812
L48.3906 15.2812
Q48.7812 15.2812 49.0469 15.0312
Q49.3125 14.7969 49.3125 14.4062
Q49.3125 14.3125 49.2188 14.1094
Q45.4531 -1.125 37.5938 -1.125
Q34.7656 -1.125 32.5938 0.1875
Q30.4219 1.51562 29.25 3.78125
Q28.0781 6.0625 28.0781 8.89062
Q28.0781 10.5 28.5156 12.2031
Q28.8125 13.375 28.8125 14.4062
Q28.8125 18.2656 25.3906 20.2656
Q21.9688 22.2656 17.5781 22.7031
L12.5 2.29688
Q12.1094 0.78125 10.9844 -0.171875
Q9.85938 -1.125 8.40625 -1.125
Q7.125 -1.125 6.21875 -0.265625
Q5.32812 0.59375 5.32812 1.8125" id="Cmmi10-6b"/>
      <path d="
M11.8125 -25
L11.8125 75
L25.4844 75
L25.4844 71
L15.8281 71
L15.8281 -21
L25.4844 -21
L25.4844 -25
z
" id="Cmr10-5b"/>
      <path d="
M2.98438 0
L2.98438 3.51562
Q6.39062 3.51562 8.59375 4.04688
Q10.7969 4.59375 10.7969 6.6875
L10.7969 33.9844
Q10.7969 36.6719 9.98438 37.8594
Q9.1875 39.0625 7.67188 39.3281
Q6.15625 39.5938 2.98438 39.5938
L2.98438 43.1094
L17.4844 44.1875
L17.4844 34.4219
Q19.4844 38.7188 23.4062 41.4531
Q27.3438 44.1875 31.9844 44.1875
Q43.5 44.1875 45.5156 34.8125
Q47.5156 39.0156 51.3594 41.5938
Q55.2188 44.1875 59.8125 44.1875
Q64.3594 44.1875 67.4531 42.7188
Q70.5625 41.2656 72.125 38.25
Q73.6875 35.25 73.6875 30.7188
L73.6875 6.6875
Q73.6875 4.59375 75.9062 4.04688
Q78.125 3.51562 81.5 3.51562
L81.5 0
L58.5938 0
L58.5938 3.51562
Q62.0156 3.51562 64.2031 4.04688
Q66.4062 4.59375 66.4062 6.6875
L66.4062 30.4219
Q66.4062 35.4531 64.9844 38.5312
Q63.5781 41.6094 59.1875 41.6094
Q53.4219 41.6094 49.6562 36.9688
Q45.9062 32.3281 45.9062 26.4219
L45.9062 6.6875
Q45.9062 4.59375 48.0938 4.04688
Q50.2969 3.51562 53.7188 3.51562
L53.7188 0
L30.8125 0
L30.8125 3.51562
Q34.2344 3.51562 36.4219 4.04688
Q38.625 4.59375 38.625 6.6875
L38.625 30.4219
Q38.625 35.2969 37.2031 38.4531
Q35.7969 41.6094 31.3906 41.6094
Q25.5938 41.6094 21.8438 36.9688
Q18.1094 32.3281 18.1094 26.4219
L18.1094 6.6875
Q18.1094 4.59375 20.3125 4.04688
Q22.5156 3.51562 25.875 3.51562
L25.875 0
z
" id="Cmr10-6d"/>
      <path d="
M2.59375 0
L2.59375 3.51562
Q6 3.51562 8.20312 4.04688
Q10.4062 4.59375 10.4062 6.6875
L10.4062 59.1875
Q10.4062 61.8594 9.59375 63.0625
Q8.79688 64.2656 7.28125 64.5312
Q5.76562 64.7969 2.59375 64.7969
L2.59375 68.3125
L17.3906 69.3906
L17.3906 21.9219
L30.8125 33.6875
Q32.8125 35.5938 32.8125 37.2031
Q32.8125 38.375 31.9844 38.9844
Q31.1562 39.5938 29.9844 39.5938
L29.9844 43.1094
L48.7812 43.1094
L48.7812 39.5938
Q42 39.5938 35.2031 33.6875
L28.0781 27.4844
L40.8281 9.42188
Q43.4531 5.67188 45.2344 4.59375
Q47.0156 3.51562 51.125 3.51562
L51.125 0
L31.2031 0
L31.2031 3.51562
Q34.625 3.51562 34.625 5.60938
Q34.625 7.125 32.8125 9.42188
L23.1875 23.0938
L17.0938 17.8281
L17.0938 6.6875
Q17.0938 4.59375 19.3125 4.04688
Q21.5312 3.51562 24.9062 3.51562
L24.9062 0
z
" id="Cmr10-6b"/>
      <path d="
M2.59375 0
L2.59375 3.51562
Q6 3.51562 8.20312 4.04688
Q10.4062 4.59375 10.4062 6.6875
L10.4062 33.9844
Q10.4062 36.6719 9.59375 37.8594
Q8.79688 39.0625 7.28125 39.3281
Q5.76562 39.5938 2.59375 39.5938
L2.59375 43.1094
L16.8906 44.1875
L16.8906 34.4219
Q18.5 38.7656 21.4844 41.4688
Q24.4688 44.1875 28.7188 44.1875
Q31.6875 44.1875 34.0312 42.4219
Q36.375 40.6719 36.375 37.7969
Q36.375 35.9844 35.0781 34.6406
Q33.7969 33.2969 31.8906 33.2969
Q30.0312 33.2969 28.7031 34.6094
Q27.3906 35.9375 27.3906 37.7969
Q27.3906 40.4844 29.2969 41.6094
L28.7188 41.6094
Q24.6562 41.6094 22.0938 38.6719
Q19.5312 35.75 18.4531 31.3906
Q17.3906 27.0469 17.3906 23.0938
L17.3906 6.6875
Q17.3906 3.51562 27.0938 3.51562
L27.0938 0
z
" id="Cmr10-72"/>
      <path d="
M24.4219 -1.125
Q18.5 -1.125 13.6094 2.07812
Q8.73438 5.28125 6.03125 10.5
Q3.32812 15.7188 3.32812 21.5781
Q3.32812 27.6406 6.28125 32.8281
Q9.23438 38.0312 14.3125 41.1094
Q19.3906 44.1875 25.4844 44.1875
Q29.1562 44.1875 32.4219 42.6406
Q35.6875 41.1094 38.0938 38.375
L38.0938 59.1875
Q38.0938 61.8594 37.2812 63.0625
Q36.4688 64.2656 34.9844 64.5312
Q33.5 64.7969 30.3281 64.7969
L30.3281 68.3125
L45.125 69.3906
L45.125 9.07812
Q45.125 6.45312 45.9219 5.25
Q46.7344 4.04688 48.2188 3.78125
Q49.7031 3.51562 52.875 3.51562
L52.875 0
L37.7969 -1.125
L37.7969 5.17188
Q35.2031 2.20312 31.6406 0.53125
Q28.0781 -1.125 24.4219 -1.125
M14.2031 8.6875
Q15.9219 5.42188 18.7656 3.46875
Q21.625 1.51562 25 1.51562
Q29.1562 1.51562 32.6094 3.90625
Q36.0781 6.29688 37.7969 10.1094
L37.7969 34.0781
Q36.625 36.2812 34.8438 38.0156
Q33.0625 39.75 30.8281 40.6719
Q28.6094 41.6094 26.125 41.6094
Q20.9062 41.6094 17.7188 38.6406
Q14.5469 35.6875 13.2812 31.0938
Q12.0156 26.5156 12.0156 21.4844
Q12.0156 17.4844 12.4219 14.5
Q12.8438 11.5312 14.2031 8.6875" id="Cmr10-64"/>
      <path d="
M5.60938 -23
Q5.60938 -22.7031 5.71875 -22.6094
L40.4844 73.7812
Q40.6719 74.3594 41.1562 74.6719
Q41.6562 75 42.2812 75
Q43.1719 75 43.7188 74.4531
Q44.2812 73.9219 44.2812 73
L44.2812 72.6094
L9.51562 -23.7812
Q8.9375 -25 7.625 -25
Q6.78125 -25 6.1875 -24.4062
Q5.60938 -23.8281 5.60938 -23" id="Cmmi10-3d"/>
      <path d="
M4 9.8125
Q4 15.7656 8.6875 19.5
Q13.375 23.25 19.9375 24.7812
Q26.5156 26.3125 32.4219 26.3125
L32.4219 30.4219
Q32.4219 33.2969 31.1562 36
Q29.8906 38.7188 27.4844 40.4531
Q25.0938 42.1875 22.2188 42.1875
Q15.5781 42.1875 12.1094 39.2031
Q14.0156 39.2031 15.25 37.7656
Q16.5 36.3281 16.5 34.4219
Q16.5 32.4219 15.0781 31
Q13.6719 29.5938 11.7188 29.5938
Q9.71875 29.5938 8.29688 31
Q6.89062 32.4219 6.89062 34.4219
Q6.89062 39.7031 11.6719 42.2656
Q16.4531 44.8281 22.2188 44.8281
Q26.2656 44.8281 30.3594 43.0938
Q34.4688 41.3594 37.0781 38.125
Q39.7031 34.9062 39.7031 30.6094
L39.7031 8.10938
Q39.7031 6.15625 40.5312 4.51562
Q41.3594 2.875 43.1094 2.875
Q44.7812 2.875 45.5781 4.53125
Q46.3906 6.20312 46.3906 8.10938
L46.3906 14.5
L49.3125 14.5
L49.3125 8.10938
Q49.3125 5.85938 48.1406 3.82812
Q46.9688 1.8125 44.9844 0.609375
Q43.0156 -0.59375 40.7188 -0.59375
Q37.7969 -0.59375 35.6719 1.67188
Q33.5469 3.95312 33.2969 7.07812
Q31.4531 3.32812 27.8281 1.09375
Q24.2188 -1.125 20.125 -1.125
Q16.3125 -1.125 12.625 0
Q8.9375 1.125 6.46875 3.53125
Q4 5.95312 4 9.8125
M12.1094 9.8125
Q12.1094 6.29688 14.6875 3.90625
Q17.2812 1.51562 20.7969 1.51562
Q24.0312 1.51562 26.6562 3.125
Q29.2969 4.73438 30.8594 7.51562
Q32.4219 10.2969 32.4219 13.375
L32.4219 23.7812
Q27.875 23.7812 23.1094 22.2812
Q18.3594 20.7969 15.2344 17.625
Q12.1094 14.4531 12.1094 9.8125" id="Cmr10-61"/>
     </defs>
     <g transform="translate(148.241818182 225.5555)scale(0.12 -0.12)">
      <use xlink:href="#Cmmi10-6b"/>
      <use transform="translate(87.119140625 0.0)" xlink:href="#Cmr10-5b"/>
      <use transform="translate(148.125 0.0)" xlink:href="#Cmr10-72"/>
      <use transform="translate(187.236328125 0.0)" xlink:href="#Cmr10-61"/>
      <use transform="translate(237.236328125 0.0)" xlink:href="#Cmr10-64"/>
      <use transform="translate(292.75390625 0.0)" xlink:href="#Cmmi10-3d"/>
      <use transform="translate(342.75390625 0.0)" xlink:href="#Cmr10-6b"/>
      <use transform="translate(395.439453125 0.0)" xlink:href="#Cmr10-6d"/>
      <use transform="translate(478.740234375 0.0)" xlink:href="#Cmr10-5d"/>
     </g>
    </g>
   </g>
   <g id="matplotlib.axis_2">
    <g id="ytick_1">
     <g id="line2d_18">
      <defs>
       <path d="
M0 0
L4 0" id="m728421d6d4" style="stroke:#000000;stroke-width:0.5;"/>
      </defs>
      <g>
       <use style="stroke:#000000;stroke-width:0.5;" x="26.48" xlink:href="#m728421d6d4" y="195.94175"/>
      </g>
     </g>
     <g id="line2d_19">
      <defs>
       <path d="
M0 0
L-4 0" id="mcb0005524f" style="stroke:#000000;stroke-width:0.5;"/>
      </defs>
      <g>
       <use style="stroke:#000000;stroke-width:0.5;" x="330.843636364" xlink:href="#mcb0005524f" y="195.94175"/>
      </g>
     </g>
    </g>
    <g id="ytick_2">
     <g id="line2d_20">
      <g>
       <use style="stroke:#000000;stroke-width:0.5;" x="26.48" xlink:href="#m728421d6d4" y="165.94695365"/>
      </g>
     </g>
     <g id="line2d_21">
      <g>
       <use style="stroke:#000000;stroke-width:0.5;" x="330.843636364" xlink:href="#mcb0005524f" y="165.94695365"/>
      </g>
     </g>
    </g>
    <g id="ytick_3">
     <g id="line2d_22">
      <g>
       <use style="stroke:#000000;stroke-width:0.5;" x="26.48" xlink:href="#m728421d6d4" y="135.952157301"/>
      </g>
     </g>
     <g id="line2d_23">
      <g>
       <use style="stroke:#000000;stroke-width:0.5;" x="330.843636364" xlink:href="#mcb0005524f" y="135.952157301"/>
      </g>
     </g>
    </g>
    <g id="ytick_4">
     <g id="line2d_24">
      <g>
       <use style="stroke:#000000;stroke-width:0.5;" x="26.48" xlink:href="#m728421d6d4" y="105.957360951"/>
      </g>
     </g>
     <g id="line2d_25">
      <g>
       <use style="stroke:#000000;stroke-width:0.5;" x="330.843636364" xlink:href="#mcb0005524f" y="105.957360951"/>
      </g>
     </g>
    </g>
    <g id="ytick_5">
     <g id="line2d_26">
      <g>
       <use style="stroke:#000000;stroke-width:0.5;" x="26.48" xlink:href="#m728421d6d4" y="75.9625646018"/>
      </g>
     </g>
     <g id="line2d_27">
      <g>
       <use style="stroke:#000000;stroke-width:0.5;" x="330.843636364" xlink:href="#mcb0005524f" y="75.9625646018"/>
      </g>
     </g>
    </g>
    <g id="ytick_6">
     <g id="line2d_28">
      <g>
       <use style="stroke:#000000;stroke-width:0.5;" x="26.48" xlink:href="#m728421d6d4" y="45.9677682522"/>
      </g>
     </g>
     <g id="line2d_29">
      <g>
       <use style="stroke:#000000;stroke-width:0.5;" x="330.843636364" xlink:href="#mcb0005524f" y="45.9677682522"/>
      </g>
     </g>
    </g>
    <g id="text_9">
     <!-- $\overline{\Phi}(k)$ -->
     <defs>
      <path d="
M18.6094 0
L18.6094 3.51562
Q31.3906 3.51562 31.3906 6.6875
L31.3906 13.9219
Q21.7812 14.8438 14.5 19.6719
Q10.6875 22.2656 8.14062 26.0781
Q5.60938 29.8906 5.60938 34.1875
Q5.60938 38.4219 8.14062 42.25
Q10.6875 46.0938 14.5 48.5781
Q18.2656 51.125 22.4375 52.5156
Q26.6094 53.9062 31.3906 54.3906
L31.3906 61.625
Q31.3906 64.7969 18.6094 64.7969
L18.6094 68.3125
L52.875 68.3125
L52.875 64.7969
Q40.0938 64.7969 40.0938 61.625
L40.0938 54.3906
Q44.2344 54.3906 48.875 52.8438
Q53.5156 51.3125 57.4688 48.6719
Q61.4219 46.0469 63.9531 42.2656
Q66.5 38.4844 66.5 34.1875
Q66.5 29.8906 63.9531 26.125
Q61.4219 22.3594 57.3438 19.625
Q53.2656 16.8906 48.625 15.4062
Q44 13.9219 40.0938 13.9219
L40.0938 6.6875
Q40.0938 3.51562 52.875 3.51562
L52.875 0
z

M40.0938 16.5
Q48.1406 17.5312 52.125 21.8906
Q56.1094 26.2656 56.1094 34.1875
Q56.1094 42.1406 52.0781 46.4844
Q48.0469 50.8281 40.0938 51.8125
z

M31.3906 16.6094
L31.3906 51.7031
Q16.0156 49.5625 16.0156 34.1875
Q16.0156 18.75 31.3906 16.6094" id="Cmr10-a9"/>
      <path d="
M31 -24.8125
Q25.4375 -20.4062 21.4062 -14.7188
Q17.3906 -9.03125 14.8125 -2.57812
Q12.25 3.85938 10.9844 10.8906
Q9.71875 17.9219 9.71875 25
Q9.71875 32.1719 10.9844 39.2031
Q12.25 46.2344 14.8594 52.7344
Q17.4844 59.2344 21.5312 64.8906
Q25.5938 70.5625 31 74.8125
Q31 75 31.5 75
L32.4219 75
Q32.7188 75 32.9531 74.7344
Q33.2031 74.4688 33.2031 74.125
Q33.2031 73.6875 33.0156 73.4844
Q28.125 68.7031 24.875 63.2344
Q21.625 57.7656 19.6406 51.5781
Q17.6719 45.4062 16.7969 38.7812
Q15.9219 32.1719 15.9219 25
Q15.9219 -6.78125 32.9062 -23.2969
Q33.2031 -23.5781 33.2031 -24.125
Q33.2031 -24.3594 32.9375 -24.6719
Q32.6719 -25 32.4219 -25
L31.5 -25
Q31 -25 31 -24.8125" id="Cmr10-28"/>
      <path d="
M6.5 -25
Q5.60938 -25 5.60938 -24.125
Q5.60938 -23.6875 5.8125 -23.4844
Q22.9062 -6.78125 22.9062 25
Q22.9062 56.7812 6 73.2969
Q5.60938 73.5312 5.60938 74.125
Q5.60938 74.4688 5.875 74.7344
Q6.15625 75 6.5 75
L7.42188 75
Q7.71875 75 7.90625 74.8125
Q15.0938 69.1406 19.875 61.0312
Q24.6562 52.9375 26.875 43.75
Q29.1094 34.5781 29.1094 25
Q29.1094 17.9219 27.9062 11.0625
Q26.7031 4.20312 24.0938 -2.45312
Q21.4844 -9.125 17.4844 -14.7656
Q13.4844 -20.4062 7.90625 -24.8125
Q7.71875 -25 7.42188 -25
z
" id="Cmr10-29"/>
     </defs>
     <g transform="translate(18.48 121.66175)rotate(-90.0)scale(0.12 -0.12)">
      <use transform="translate(0.0 0.4375)" xlink:href="#Cmr10-a9"/>
      <use transform="translate(72.216796875 0.9375)" xlink:href="#Cmr10-28"/>
      <use transform="translate(111.03515625 0.9375)" xlink:href="#Cmmi10-6b"/>
      <use transform="translate(163.037109375 0.9375)" xlink:href="#Cmr10-29"/>
      <path d="
M0 81.5
L0 87.75
L72.2168 87.75
L72.2168 81.5
L0 81.5
z
"/>
     </g>
    </g>
   </g>
   <g id="text_10">
    <!-- (a) -->
    <defs>
     <path d="
M31 75.875
Q24.4688 64.6562 21.2812 53.6562
Q18.1094 42.6719 18.1094 31.3906
Q18.1094 20.125 21.3125 9.0625
Q24.5156 -2 31 -13.1875
L23.1875 -13.1875
Q15.875 -1.70312 12.2344 9.375
Q8.59375 20.4531 8.59375 31.3906
Q8.59375 42.2812 12.2031 53.3125
Q15.8281 64.3594 23.1875 75.875
z
" id="DejaVuSans-28"/>
     <path d="
M8.01562 75.875
L15.8281 75.875
Q23.1406 64.3594 26.7812 53.3125
Q30.4219 42.2812 30.4219 31.3906
Q30.4219 20.4531 26.7812 9.375
Q23.1406 -1.70312 15.8281 -13.1875
L8.01562 -13.1875
Q14.5 -2 17.7031 9.0625
Q20.9062 20.125 20.9062 31.3906
Q20.9062 42.6719 17.7031 53.6562
Q14.5 64.6562 8.01562 75.875" id="DejaVuSans-29"/>
     <path d="
M34.2812 27.4844
Q23.3906 27.4844 19.1875 25
Q14.9844 22.5156 14.9844 16.5
Q14.9844 11.7188 18.1406 8.90625
Q21.2969 6.10938 26.7031 6.10938
Q34.1875 6.10938 38.7031 11.4062
Q43.2188 16.7031 43.2188 25.4844
L43.2188 27.4844
z

M52.2031 31.2031
L52.2031 0
L43.2188 0
L43.2188 8.29688
Q40.1406 3.32812 35.5469 0.953125
Q30.9531 -1.42188 24.3125 -1.42188
Q15.9219 -1.42188 10.9531 3.29688
Q6 8.01562 6 15.9219
Q6 25.1406 12.1719 29.8281
Q18.3594 34.5156 30.6094 34.5156
L43.2188 34.5156
L43.2188 35.4062
Q43.2188 41.6094 39.1406 45
Q35.0625 48.3906 27.6875 48.3906
Q23 48.3906 18.5469 47.2656
Q14.1094 46.1406 10.0156 43.8906
L10.0156 52.2031
Q14.9375 54.1094 19.5781 55.0469
Q24.2188 56 28.6094 56
Q40.4844 56 46.3438 49.8438
Q52.2031 43.7031 52.2031 31.2031" id="DejaVuSans-61"/>
    </defs>
    <g transform="translate(169.868818182 18.14175)scale(0.144 -0.144)">
     <use xlink:href="#DejaVuSans-28"/>
     <use x="39.013671875" xlink:href="#DejaVuSans-61"/>
     <use x="100.29296875" xlink:href="#DejaVuSans-29"/>
    </g>
   </g>
   <g id="legend_1">
    <g id="line2d_30">
     <path d="
M227.884 44.5977
L248.044 44.5977" style="fill:none;stroke:#000000;stroke-linecap:square;stroke-width:2;"/>
    </g>
    <g id="line2d_31"/>
    <g id="text_11">
     <!-- $\overline{\Phi}_{\Delta T}\,(k)$ -->
     <defs>
      <path d="
M5.42188 0
Q4.59375 0 4.59375 0.78125
Q4.64062 0.875 4.65625 0.921875
Q4.6875 0.984375 4.6875 1.125
L39.1094 70.5156
Q39.5469 71.5781 40.9219 71.5781
L42.2812 71.5781
Q43.6562 71.5781 44.0938 70.5156
L78.5156 1.125
Q78.5625 1.03125 78.5781 0.953125
Q78.6094 0.875 78.6094 0.78125
Q78.6094 0 77.7812 0
z

M12.0156 8.01562
L64.7031 8.01562
L38.375 61.0781
z
" id="Cmr10-a2"/>
      <path d="
M4.59375 1.3125
Q4.64062 1.5625 4.8125 2.1875
Q4.98438 2.82812 5.25 3.17188
Q5.51562 3.51562 6 3.51562
Q14.5938 3.51562 17.3906 4
Q20.0625 4.6875 20.6094 6.89062
L34.2812 61.8125
Q34.7188 63.0312 34.7188 64.0156
Q34.7188 64.7969 31.2031 64.7969
L25.3906 64.7969
Q18.7031 64.7969 15.0625 62.7344
Q11.4219 60.6875 9.71875 57.3125
Q8.01562 53.9531 5.32812 46.2969
Q4.98438 45.4062 4.29688 45.4062
L3.42188 45.4062
Q2.39062 45.4062 2.39062 46.6875
L9.51562 67.3906
Q9.71875 68.3125 10.5 68.3125
L69.5781 68.3125
Q70.6094 68.3125 70.6094 67
L67.2812 46.2969
Q67.2812 46 66.9375 45.7031
Q66.6094 45.4062 66.3125 45.4062
L65.375 45.4062
Q64.4062 45.4062 64.4062 46.6875
Q65.4844 53.7656 65.4844 56.6875
Q65.4844 60.2031 64.0156 62
Q62.5469 63.8125 60.2031 64.2969
Q57.8594 64.7969 54.1094 64.7969
L48.1875 64.7969
Q45.5156 64.7969 44.5781 64.2969
Q43.6562 63.8125 43.0156 61.375
L29.2969 6.5
Q29.25 6.29688 29.2188 6.09375
Q29.2031 5.90625 29.1094 5.60938
Q29.1094 4.34375 30.6094 4
Q33.2031 3.51562 41.7031 3.51562
Q42.6719 3.51562 42.6719 2.20312
Q42.3281 0.78125 42.125 0.390625
Q41.9375 0 41.0156 0
L5.60938 0
Q4.59375 0 4.59375 1.3125" id="Cmmi10-54"/>
     </defs>
     <g transform="translate(263.883636364 49.63775)scale(0.144 -0.144)">
      <use transform="translate(0.0 0.4375)" xlink:href="#Cmr10-a9"/>
      <use transform="translate(72.216796875 -24.571875)scale(0.7)" xlink:href="#Cmr10-a2"/>
      <use transform="translate(130.52734375 -24.571875)scale(0.7)" xlink:href="#Cmmi10-54"/>
      <use transform="translate(206.5234375 0.9375)" xlink:href="#Cmr10-28"/>
      <use transform="translate(245.341796875 0.9375)" xlink:href="#Cmmi10-6b"/>
      <use transform="translate(297.34375 0.9375)" xlink:href="#Cmr10-29"/>
      <path d="
M0 81.5
L0 87.75
L72.2168 87.75
L72.2168 81.5
L0 81.5
z
"/>
     </g>
    </g>
    <g id="line2d_32">
     <path d="
M227.884 72.3897
L248.044 72.3897" style="fill:none;stroke:#0000ff;stroke-dasharray:6.000000,6.000000;stroke-dashoffset:0.0;stroke-width:2;"/>
    </g>
    <g id="line2d_33"/>
    <g id="text_12">
     <!-- $\overline{\Phi}_{\Delta T}^{\rm \, low}(k)$ -->
     <defs>
      <path d="
M22.125 0
L9.1875 36.375
Q8.29688 38.5781 6.64062 39.0781
Q4.98438 39.5938 1.8125 39.5938
L1.8125 43.1094
L22.4062 43.1094
L22.4062 39.5938
Q16.5 39.5938 16.5 37.1094
Q16.5469 36.9688 16.5781 36.8125
Q16.6094 36.6719 16.6094 36.375
L26.2188 9.42188
L34.5156 32.9062
L33.2031 36.375
Q32.4219 38.5781 30.7031 39.0781
Q29 39.5938 25.875 39.5938
L25.875 43.1094
L45.6094 43.1094
L45.6094 39.5938
Q39.7031 39.5938 39.7031 37.1094
Q39.7031 36.7188 39.7969 36.375
L49.8125 8.20312
L58.8906 33.6875
Q59.0781 34.4688 59.0781 35.1094
Q59.0781 37.2031 57.2969 38.3906
Q55.5156 39.5938 53.3281 39.5938
L53.3281 43.1094
L70.3125 43.1094
L70.3125 39.5938
Q67.2812 39.5938 65.1094 38
Q62.9375 36.4219 61.9219 33.6875
L50 0
Q49.6562 -1.125 48.4844 -1.125
L47.7031 -1.125
Q46.5312 -1.125 46.1875 0
L36.0781 28.5156
L25.9844 0
Q25.4844 -1.125 24.4219 -1.125
L23.6875 -1.125
Q22.4688 -1.125 22.125 0" id="Cmr10-77"/>
      <path d="
M25 -1.125
Q19 -1.125 13.8594 1.92188
Q8.73438 4.98438 5.75 10.1094
Q2.78125 15.2344 2.78125 21.2969
Q2.78125 25.875 4.42188 30.125
Q6.0625 34.375 9.10938 37.7188
Q12.1562 41.0625 16.2031 42.9375
Q20.2656 44.8281 25 44.8281
Q31.1562 44.8281 36.2031 41.5781
Q41.2656 38.3281 44.1875 32.875
Q47.125 27.4375 47.125 21.2969
Q47.125 15.2812 44.1406 10.125
Q41.1562 4.98438 36.0469 1.92188
Q30.9531 -1.125 25 -1.125
M25 1.8125
Q33.0156 1.8125 35.6875 7.60938
Q38.375 13.4219 38.375 22.4062
Q38.375 27.4375 37.8438 30.7344
Q37.3125 34.0312 35.5 36.7188
Q34.375 38.375 32.6406 39.625
Q30.9062 40.875 28.9688 41.5312
Q27.0469 42.1875 25 42.1875
Q21.875 42.1875 19.0625 40.7656
Q16.2656 39.3594 14.4062 36.7188
Q12.5469 33.8906 12.0312 30.4844
Q11.5312 27.0938 11.5312 22.4062
Q11.5312 16.7969 12.5 12.3281
Q13.4844 7.85938 16.4375 4.82812
Q19.3906 1.8125 25 1.8125" id="Cmr10-6f"/>
      <path d="
M3.07812 0
L3.07812 3.51562
Q6.5 3.51562 8.6875 4.04688
Q10.8906 4.59375 10.8906 6.6875
L10.8906 59.1875
Q10.8906 61.8594 10.0781 63.0625
Q9.28125 64.2656 7.76562 64.5312
Q6.25 64.7969 3.07812 64.7969
L3.07812 68.3125
L17.9219 69.3906
L17.9219 6.6875
Q17.9219 4.59375 20.1094 4.04688
Q22.3125 3.51562 25.6875 3.51562
L25.6875 0
z
" id="Cmr10-6c"/>
     </defs>
     <g transform="translate(263.883636364 77.42975)scale(0.144 -0.144)">
      <use transform="translate(0.0 0.3734375)" xlink:href="#Cmr10-a9"/>
      <use transform="translate(95.541015625 68.4265625)scale(0.7)" xlink:href="#Cmr10-6c"/>
      <use transform="translate(114.920898438 68.4265625)scale(0.7)" xlink:href="#Cmr10-6f"/>
      <use transform="translate(149.920898438 68.4265625)scale(0.7)" xlink:href="#Cmr10-77"/>
      <use transform="translate(72.216796875 -24.6359375)scale(0.7)" xlink:href="#Cmr10-a2"/>
      <use transform="translate(130.52734375 -24.6359375)scale(0.7)" xlink:href="#Cmmi10-54"/>
      <use transform="translate(217.47890625 0.8734375)" xlink:href="#Cmr10-28"/>
      <use transform="translate(256.297265625 0.8734375)" xlink:href="#Cmmi10-6b"/>
      <use transform="translate(308.29921875 0.8734375)" xlink:href="#Cmr10-29"/>
      <path d="
M0 81.4359
L0 87.6859
L72.2168 87.6859
L72.2168 81.4359
L0 81.4359
z
"/>
     </g>
    </g>
    <g id="line2d_34">
     <path d="
M227.884 100.182
L248.044 100.182" style="fill:none;stroke:#ff0000;stroke-dasharray:3.000000,5.000000,1.000000,5.000000;stroke-dashoffset:0.0;stroke-width:2;"/>
    </g>
    <g id="line2d_35"/>
    <g id="text_13">
     <!-- $\overline{\Phi}_{\Delta T}^{\rm \, high}(k)$ -->
     <defs>
      <path d="
M2.78125 -7.8125
Q2.78125 -4.25 5.35938 -1.57812
Q7.95312 1.07812 11.5312 2.20312
Q9.51562 3.71875 8.46875 6
Q7.42188 8.29688 7.42188 10.8906
Q7.42188 15.5781 10.4062 19.1875
Q5.8125 23.6875 5.8125 29.5
Q5.8125 32.625 7.15625 35.3594
Q8.5 38.0938 10.8906 40.0938
Q13.2812 42.0938 16.2031 43.1406
Q19.1406 44.1875 22.2188 44.1875
Q28.1719 44.1875 32.9062 40.7188
Q34.9688 42.9219 37.7656 44.1094
Q40.5781 45.3125 43.6094 45.3125
Q45.75 45.3125 47.1094 43.7656
Q48.4844 42.2344 48.4844 40.0938
Q48.4844 38.875 47.5469 37.9375
Q46.625 37.0156 45.4062 37.0156
Q44.1406 37.0156 43.2031 37.9375
Q42.2812 38.875 42.2812 40.0938
Q42.2812 41.9375 43.5 42.6719
Q38.3281 42.6719 34.625 39.1094
Q36.4219 37.3125 37.5156 34.6875
Q38.625 32.0781 38.625 29.5
Q38.625 25.25 36.2812 21.8438
Q33.9375 18.4531 30.0938 16.5781
Q26.2656 14.7031 22.2188 14.7031
Q16.75 14.7031 12.2031 17.6719
Q10.7969 15.7188 10.7969 13.2812
Q10.7969 10.6406 12.5312 8.65625
Q14.2656 6.6875 16.8906 6.6875
L25.0938 6.6875
Q31.0625 6.6875 35.8438 5.60938
Q40.625 4.54688 43.875 1.3125
Q47.125 -1.90625 47.125 -7.8125
Q47.125 -12.2031 43.4062 -15.1094
Q39.7031 -18.0156 34.5469 -19.3125
Q29.3906 -20.6094 25 -20.6094
Q20.5625 -20.6094 15.375 -19.3125
Q10.2031 -18.0156 6.48438 -15.1094
Q2.78125 -12.2031 2.78125 -7.8125
M8.40625 -7.8125
Q8.40625 -11.1875 11.1406 -13.4531
Q13.875 -15.7188 17.7188 -16.8125
Q21.5781 -17.9219 25 -17.9219
Q28.375 -17.9219 32.2188 -16.8125
Q36.0781 -15.7188 38.7812 -13.4531
Q41.5 -11.1875 41.5 -7.8125
Q41.5 -2.59375 36.7188 -1.04688
Q31.9375 0.484375 25.0938 0.484375
L16.8906 0.484375
Q14.5938 0.484375 12.6719 -0.609375
Q10.75 -1.70312 9.57812 -3.6875
Q8.40625 -5.67188 8.40625 -7.8125
M22.2188 17.3906
Q30.7188 17.3906 30.7188 29.5
Q30.7188 34.7188 28.9062 38.1094
Q27.0938 41.5 22.2188 41.5
Q17.3281 41.5 15.5156 38.1094
Q13.7188 34.7188 13.7188 29.5
Q13.7188 26.1719 14.4062 23.4844
Q15.0938 20.7969 16.9375 19.0938
Q18.7969 17.3906 22.2188 17.3906" id="Cmr10-67"/>
      <path d="
M2.98438 0
L2.98438 3.51562
Q6.39062 3.51562 8.59375 4.04688
Q10.7969 4.59375 10.7969 6.6875
L10.7969 59.1875
Q10.7969 61.8594 9.98438 63.0625
Q9.1875 64.2656 7.67188 64.5312
Q6.15625 64.7969 2.98438 64.7969
L2.98438 68.3125
L17.8281 69.3906
L17.8281 35.0156
Q19.9219 39.1562 23.6719 41.6719
Q27.4375 44.1875 31.9844 44.1875
Q38.9219 44.1875 42.4062 40.8594
Q45.9062 37.5469 45.9062 30.7188
L45.9062 6.6875
Q45.9062 4.59375 48.0938 4.04688
Q50.2969 3.51562 53.7188 3.51562
L53.7188 0
L30.8125 0
L30.8125 3.51562
Q34.2344 3.51562 36.4219 4.04688
Q38.625 4.59375 38.625 6.6875
L38.625 30.4219
Q38.625 35.2969 37.2031 38.4531
Q35.7969 41.6094 31.3906 41.6094
Q25.5938 41.6094 21.8438 36.9688
Q18.1094 32.3281 18.1094 26.4219
L18.1094 6.6875
Q18.1094 4.59375 20.3125 4.04688
Q22.5156 3.51562 25.875 3.51562
L25.875 0
z
" id="Cmr10-68"/>
      <path d="
M3.07812 0
L3.07812 3.51562
Q6.5 3.51562 8.6875 4.04688
Q10.8906 4.59375 10.8906 6.6875
L10.8906 33.9844
Q10.8906 37.8438 9.39062 38.7188
Q7.90625 39.5938 3.51562 39.5938
L3.51562 43.1094
L17.9219 44.1875
L17.9219 6.6875
Q17.9219 4.59375 19.8281 4.04688
Q21.7344 3.51562 24.9062 3.51562
L24.9062 0
z

M7.32812 61.375
Q7.32812 63.5781 8.98438 65.2344
Q10.6406 66.8906 12.7969 66.8906
Q14.2031 66.8906 15.5156 66.1562
Q16.8438 65.4375 17.5781 64.1094
Q18.3125 62.7969 18.3125 61.375
Q18.3125 59.2344 16.6406 57.5625
Q14.9844 55.9062 12.7969 55.9062
Q10.6406 55.9062 8.98438 57.5625
Q7.32812 59.2344 7.32812 61.375" id="Cmr10-69"/>
     </defs>
     <g transform="translate(263.883636364 105.22175)scale(0.144 -0.144)">
      <use transform="translate(0.0 0.3734375)" xlink:href="#Cmr10-a9"/>
      <use transform="translate(95.541015625 68.4265625)scale(0.7)" xlink:href="#Cmr10-68"/>
      <use transform="translate(134.403320312 68.4265625)scale(0.7)" xlink:href="#Cmr10-69"/>
      <use transform="translate(153.783203125 68.4265625)scale(0.7)" xlink:href="#Cmr10-67"/>
      <use transform="translate(188.783203125 68.4265625)scale(0.7)" xlink:href="#Cmr10-68"/>
      <use transform="translate(72.216796875 -24.6359375)scale(0.7)" xlink:href="#Cmr10-a2"/>
      <use transform="translate(130.52734375 -24.6359375)scale(0.7)" xlink:href="#Cmmi10-54"/>
      <use transform="translate(244.651757812 0.8734375)" xlink:href="#Cmr10-28"/>
      <use transform="translate(283.470117188 0.8734375)" xlink:href="#Cmmi10-6b"/>
      <use transform="translate(335.472070313 0.8734375)" xlink:href="#Cmr10-29"/>
      <path d="
M0 81.4359
L0 87.6859
L72.2168 87.6859
L72.2168 81.4359
L0 81.4359
z
"/>
     </g>
    </g>
   </g>
  </g>
  <g id="axes_2">
   <g id="patch_7">
    <path d="
M391.716 195.942
L696.08 195.942
L696.08 23.1417
L391.716 23.1417
z
" style="fill:#ffffff;"/>
   </g>
   <g id="line2d_36">
    <path clip-path="url(#p197d8816c8)" d="
M392.021 184.527
L392.326 160.788
L392.935 137.266
L393.544 123.686
L394.154 114.175
L395.068 103.814
L395.982 96.1215
L396.896 90.0516
L398.114 83.5987
L399.333 78.419
L400.552 74.1314
L402.075 69.6806
L403.598 65.9791
L405.122 62.8439
L406.645 60.1516
L408.473 57.3841
L410.301 55.0211
L412.129 52.9851
L414.262 50.9467
L416.394 49.2068
L418.832 47.5181
L421.269 46.094
L424.011 44.7532
L427.058 43.5318
L430.105 42.544
L433.456 41.6807
L437.112 40.9602
L441.377 40.3591
L445.947 39.9482
L451.127 39.7174
L456.915 39.695
L463.313 39.8978
L470.625 40.3564
L479.156 41.1231
L489.21 42.2619
L501.092 43.839
L516.021 46.0569
L535.215 49.145
L562.331 53.7486
L607.422 61.6587
L696.08 77.4313
L696.08 77.4313" style="fill:none;stroke:#000000;stroke-linecap:square;stroke-width:2;"/>
   </g>
   <g id="line2d_37">
    <path clip-path="url(#p197d8816c8)" d="
M392.021 184.527
L392.326 160.789
L392.935 137.268
L393.544 123.69
L394.154 114.183
L395.068 103.829
L395.982 96.1466
L396.896 90.0886
L398.114 83.6552
L399.333 78.499
L400.552 74.2391
L402.075 69.8287
L403.598 66.1738
L405.122 63.0917
L406.645 60.4588
L408.473 57.7709
L410.301 55.4967
L412.129 53.5585
L414.262 51.6458
L416.394 50.0436
L418.527 48.7006
L420.965 47.4324
L423.402 46.405
L426.144 45.4929
L429.191 44.736
L432.237 44.2083
L435.589 43.853
L439.245 43.6951
L443.205 43.7545
L447.471 44.0471
L452.041 44.5849
L456.915 45.3771
L462.399 46.4986
L468.188 47.9081
L474.586 49.6958
L481.594 51.8899
L489.21 54.5127
L497.436 57.582
L506.576 61.2372
L516.326 65.3773
L526.989 70.1473
L538.566 75.5691
L551.363 81.811
L565.377 88.9017
L580.611 96.864
L597.063 105.716
L615.038 115.64
L634.842 126.832
L656.473 139.319
L679.933 153.122
L696.08 162.759
L696.08 162.759" style="fill:none;stroke:#0000ff;stroke-dasharray:6.000000,6.000000;stroke-dashoffset:0.0;stroke-width:2;"/>
   </g>
   <g id="line2d_38">
    <path clip-path="url(#p197d8816c8)" d="
M391.716 23.1417
L696.08 77.4285
L696.08 77.4285" style="fill:none;stroke:#ff0000;stroke-dasharray:3.000000,5.000000,1.000000,5.000000;stroke-dashoffset:0.0;stroke-width:2;"/>
   </g>
   <g id="patch_8">
    <path d="
M391.716 23.1417
L696.08 23.1417" style="fill:none;stroke:#000000;stroke-linecap:square;stroke-linejoin:miter;"/>
   </g>
   <g id="patch_9">
    <path d="
M696.08 195.942
L696.08 23.1417" style="fill:none;stroke:#000000;stroke-linecap:square;stroke-linejoin:miter;"/>
   </g>
   <g id="patch_10">
    <path d="
M391.716 195.942
L696.08 195.942" style="fill:none;stroke:#000000;stroke-linecap:square;stroke-linejoin:miter;"/>
   </g>
   <g id="patch_11">
    <path d="
M391.716 195.942
L391.716 23.1417" style="fill:none;stroke:#000000;stroke-linecap:square;stroke-linejoin:miter;"/>
   </g>
   <g id="matplotlib.axis_3">
    <g id="xtick_8">
     <g id="line2d_39">
      <g>
       <use style="stroke:#000000;stroke-width:0.5;" x="391.716363636" xlink:href="#m93b0483c22" y="195.94175"/>
      </g>
     </g>
     <g id="line2d_40">
      <g>
       <use style="stroke:#000000;stroke-width:0.5;" x="391.716363636" xlink:href="#m741efc42ff" y="23.14175"/>
      </g>
     </g>
     <g id="text_14">
      <!-- 0.00 -->
      <g transform="translate(379.151051136 209.059875)scale(0.12 -0.12)">
       <use xlink:href="#DejaVuSans-30"/>
       <use x="63.623046875" xlink:href="#DejaVuSans-2e"/>
       <use x="95.41015625" xlink:href="#DejaVuSans-30"/>
       <use x="159.033203125" xlink:href="#DejaVuSans-30"/>
      </g>
     </g>
    </g>
    <g id="xtick_9">
     <g id="line2d_41">
      <g>
       <use style="stroke:#000000;stroke-width:0.5;" x="440.157340861" xlink:href="#m93b0483c22" y="195.94175"/>
      </g>
     </g>
     <g id="line2d_42">
      <g>
       <use style="stroke:#000000;stroke-width:0.5;" x="440.157340861" xlink:href="#m741efc42ff" y="23.14175"/>
      </g>
     </g>
     <g id="text_15">
      <!-- 0.05 -->
      <g transform="translate(427.717653361 209.059875)scale(0.12 -0.12)">
       <use xlink:href="#DejaVuSans-30"/>
       <use x="63.623046875" xlink:href="#DejaVuSans-2e"/>
       <use x="95.41015625" xlink:href="#DejaVuSans-30"/>
       <use x="159.033203125" xlink:href="#DejaVuSans-35"/>
      </g>
     </g>
    </g>
    <g id="xtick_10">
     <g id="line2d_43">
      <g>
       <use style="stroke:#000000;stroke-width:0.5;" x="488.598318086" xlink:href="#m93b0483c22" y="195.94175"/>
      </g>
     </g>
     <g id="line2d_44">
      <g>
       <use style="stroke:#000000;stroke-width:0.5;" x="488.598318086" xlink:href="#m741efc42ff" y="23.14175"/>
      </g>
     </g>
     <g id="text_16">
      <!-- 0.10 -->
      <g transform="translate(476.033005586 209.059875)scale(0.12 -0.12)">
       <use xlink:href="#DejaVuSans-30"/>
       <use x="63.623046875" xlink:href="#DejaVuSans-2e"/>
       <use x="95.41015625" xlink:href="#DejaVuSans-31"/>
       <use x="159.033203125" xlink:href="#DejaVuSans-30"/>
      </g>
     </g>
    </g>
    <g id="xtick_11">
     <g id="line2d_45">
      <g>
       <use style="stroke:#000000;stroke-width:0.5;" x="537.03929531" xlink:href="#m93b0483c22" y="195.94175"/>
      </g>
     </g>
     <g id="line2d_46">
      <g>
       <use style="stroke:#000000;stroke-width:0.5;" x="537.03929531" xlink:href="#m741efc42ff" y="23.14175"/>
      </g>
     </g>
     <g id="text_17">
      <!-- 0.15 -->
      <g transform="translate(524.59960781 209.059875)scale(0.12 -0.12)">
       <use xlink:href="#DejaVuSans-30"/>
       <use x="63.623046875" xlink:href="#DejaVuSans-2e"/>
       <use x="95.41015625" xlink:href="#DejaVuSans-31"/>
       <use x="159.033203125" xlink:href="#DejaVuSans-35"/>
      </g>
     </g>
    </g>
    <g id="xtick_12">
     <g id="line2d_47">
      <g>
       <use style="stroke:#000000;stroke-width:0.5;" x="585.480272535" xlink:href="#m93b0483c22" y="195.94175"/>
      </g>
     </g>
     <g id="line2d_48">
      <g>
       <use style="stroke:#000000;stroke-width:0.5;" x="585.480272535" xlink:href="#m741efc42ff" y="23.14175"/>
      </g>
     </g>
     <g id="text_18">
      <!-- 0.20 -->
      <g transform="translate(572.914960035 209.059875)scale(0.12 -0.12)">
       <use xlink:href="#DejaVuSans-30"/>
       <use x="63.623046875" xlink:href="#DejaVuSans-2e"/>
       <use x="95.41015625" xlink:href="#DejaVuSans-32"/>
       <use x="159.033203125" xlink:href="#DejaVuSans-30"/>
      </g>
     </g>
    </g>
    <g id="xtick_13">
     <g id="line2d_49">
      <g>
       <use style="stroke:#000000;stroke-width:0.5;" x="633.92124976" xlink:href="#m93b0483c22" y="195.94175"/>
      </g>
     </g>
     <g id="line2d_50">
      <g>
       <use style="stroke:#000000;stroke-width:0.5;" x="633.92124976" xlink:href="#m741efc42ff" y="23.14175"/>
      </g>
     </g>
     <g id="text_19">
      <!-- 0.25 -->
      <g transform="translate(621.48156226 209.059875)scale(0.12 -0.12)">
       <use xlink:href="#DejaVuSans-30"/>
       <use x="63.623046875" xlink:href="#DejaVuSans-2e"/>
       <use x="95.41015625" xlink:href="#DejaVuSans-32"/>
       <use x="159.033203125" xlink:href="#DejaVuSans-35"/>
      </g>
     </g>
    </g>
    <g id="xtick_14">
     <g id="line2d_51">
      <g>
       <use style="stroke:#000000;stroke-width:0.5;" x="682.362226985" xlink:href="#m93b0483c22" y="195.94175"/>
      </g>
     </g>
     <g id="line2d_52">
      <g>
       <use style="stroke:#000000;stroke-width:0.5;" x="682.362226985" xlink:href="#m741efc42ff" y="23.14175"/>
      </g>
     </g>
     <g id="text_20">
      <!-- 0.30 -->
      <g transform="translate(669.796914485 209.059875)scale(0.12 -0.12)">
       <use xlink:href="#DejaVuSans-30"/>
       <use x="63.623046875" xlink:href="#DejaVuSans-2e"/>
       <use x="95.41015625" xlink:href="#DejaVuSans-33"/>
       <use x="159.033203125" xlink:href="#DejaVuSans-30"/>
      </g>
     </g>
    </g>
    <g id="text_21">
     <!-- $k\,[\rm \,{rad/km}]$ -->
     <g transform="translate(513.478181818 225.5555)scale(0.12 -0.12)">
      <use xlink:href="#Cmmi10-6b"/>
      <use transform="translate(87.119140625 0.0)" xlink:href="#Cmr10-5b"/>
      <use transform="translate(148.125 0.0)" xlink:href="#Cmr10-72"/>
      <use transform="translate(187.236328125 0.0)" xlink:href="#Cmr10-61"/>
      <use transform="translate(237.236328125 0.0)" xlink:href="#Cmr10-64"/>
      <use transform="translate(292.75390625 0.0)" xlink:href="#Cmmi10-3d"/>
      <use transform="translate(342.75390625 0.0)" xlink:href="#Cmr10-6b"/>
      <use transform="translate(395.439453125 0.0)" xlink:href="#Cmr10-6d"/>
      <use transform="translate(478.740234375 0.0)" xlink:href="#Cmr10-5d"/>
     </g>
    </g>
   </g>
   <g id="matplotlib.axis_4">
    <g id="ytick_7">
     <g id="line2d_53">
      <g>
       <use style="stroke:#000000;stroke-width:0.5;" x="391.716363636" xlink:href="#m728421d6d4" y="195.94175"/>
      </g>
     </g>
     <g id="line2d_54">
      <g>
       <use style="stroke:#000000;stroke-width:0.5;" x="696.08" xlink:href="#mcb0005524f" y="195.94175"/>
      </g>
     </g>
    </g>
    <g id="ytick_8">
     <g id="line2d_55">
      <g>
       <use style="stroke:#000000;stroke-width:0.5;" x="391.716363636" xlink:href="#m728421d6d4" y="161.38175"/>
      </g>
     </g>
     <g id="line2d_56">
      <g>
       <use style="stroke:#000000;stroke-width:0.5;" x="696.08" xlink:href="#mcb0005524f" y="161.38175"/>
      </g>
     </g>
    </g>
    <g id="ytick_9">
     <g id="line2d_57">
      <g>
       <use style="stroke:#000000;stroke-width:0.5;" x="391.716363636" xlink:href="#m728421d6d4" y="126.82175"/>
      </g>
     </g>
     <g id="line2d_58">
      <g>
       <use style="stroke:#000000;stroke-width:0.5;" x="696.08" xlink:href="#mcb0005524f" y="126.82175"/>
      </g>
     </g>
    </g>
    <g id="ytick_10">
     <g id="line2d_59">
      <g>
       <use style="stroke:#000000;stroke-width:0.5;" x="391.716363636" xlink:href="#m728421d6d4" y="92.26175"/>
      </g>
     </g>
     <g id="line2d_60">
      <g>
       <use style="stroke:#000000;stroke-width:0.5;" x="696.08" xlink:href="#mcb0005524f" y="92.26175"/>
      </g>
     </g>
    </g>
    <g id="ytick_11">
     <g id="line2d_61">
      <g>
       <use style="stroke:#000000;stroke-width:0.5;" x="391.716363636" xlink:href="#m728421d6d4" y="57.70175"/>
      </g>
     </g>
     <g id="line2d_62">
      <g>
       <use style="stroke:#000000;stroke-width:0.5;" x="696.08" xlink:href="#mcb0005524f" y="57.70175"/>
      </g>
     </g>
    </g>
    <g id="ytick_12">
     <g id="line2d_63">
      <g>
       <use style="stroke:#000000;stroke-width:0.5;" x="391.716363636" xlink:href="#m728421d6d4" y="23.14175"/>
      </g>
     </g>
     <g id="line2d_64">
      <g>
       <use style="stroke:#000000;stroke-width:0.5;" x="696.08" xlink:href="#mcb0005524f" y="23.14175"/>
      </g>
     </g>
    </g>
    <g id="text_22">
     <!-- $\ln \left[ \overline{\Phi}(k) \right]$ -->
     <defs>
      <path d="
M20.2188 -115.922
L20.2188 4
L39.4062 4
L39.4062 0
L24.2188 0
L24.2188 -111.922
L39.4062 -111.922
L39.4062 -115.922
z
" id="Cmex10-a3"/>
      <path d="
M2.98438 0
L2.98438 3.51562
Q6.39062 3.51562 8.59375 4.04688
Q10.7969 4.59375 10.7969 6.6875
L10.7969 33.9844
Q10.7969 36.6719 9.98438 37.8594
Q9.1875 39.0625 7.67188 39.3281
Q6.15625 39.5938 2.98438 39.5938
L2.98438 43.1094
L17.4844 44.1875
L17.4844 34.4219
Q19.4844 38.7188 23.4062 41.4531
Q27.3438 44.1875 31.9844 44.1875
Q38.9219 44.1875 42.4062 40.8594
Q45.9062 37.5469 45.9062 30.7188
L45.9062 6.6875
Q45.9062 4.59375 48.0938 4.04688
Q50.2969 3.51562 53.7188 3.51562
L53.7188 0
L30.8125 0
L30.8125 3.51562
Q34.2344 3.51562 36.4219 4.04688
Q38.625 4.59375 38.625 6.6875
L38.625 30.4219
Q38.625 35.2969 37.2031 38.4531
Q35.7969 41.6094 31.3906 41.6094
Q25.5938 41.6094 21.8438 36.9688
Q18.1094 32.3281 18.1094 26.4219
L18.1094 6.6875
Q18.1094 4.59375 20.3125 4.04688
Q22.5156 3.51562 25.875 3.51562
L25.875 0
z
" id="Cmr10-6e"/>
      <path d="
M2.20312 -115.922
L2.20312 -111.922
L17.3906 -111.922
L17.3906 0
L2.20312 0
L2.20312 4
L21.3906 4
L21.3906 -115.922
z
" id="Cmex10-a4"/>
     </defs>
     <g transform="translate(383.716363636 131.56175)rotate(-90.0)scale(0.12 -0.12)">
      <use transform="translate(0.0 0.9375)" xlink:href="#Cmr10-6c"/>
      <use transform="translate(27.685546875 0.9375)" xlink:href="#Cmr10-6e"/>
      <use transform="translate(83.203125 90.046875)scale(0.984495114007)" xlink:href="#Cmex10-a3"/>
      <use transform="translate(124.154663086 0.4375)" xlink:href="#Cmr10-a9"/>
      <use transform="translate(196.371459961 0.9375)" xlink:href="#Cmr10-28"/>
      <use transform="translate(235.189819336 0.9375)" xlink:href="#Cmmi10-6b"/>
      <use transform="translate(287.191772461 0.9375)" xlink:href="#Cmr10-29"/>
      <use transform="translate(326.010131836 90.046875)scale(0.984495114007)" xlink:href="#Cmex10-a4"/>
      <path d="
M124.155 81.5
L124.155 87.75
L196.371 87.75
L196.371 81.5
L124.155 81.5
z
"/>
     </g>
    </g>
   </g>
   <g id="text_23">
    <!-- (b) -->
    <defs>
     <path d="
M48.6875 27.2969
Q48.6875 37.2031 44.6094 42.8438
Q40.5312 48.4844 33.4062 48.4844
Q26.2656 48.4844 22.1875 42.8438
Q18.1094 37.2031 18.1094 27.2969
Q18.1094 17.3906 22.1875 11.75
Q26.2656 6.10938 33.4062 6.10938
Q40.5312 6.10938 44.6094 11.75
Q48.6875 17.3906 48.6875 27.2969
M18.1094 46.3906
Q20.9531 51.2656 25.2656 53.625
Q29.5938 56 35.5938 56
Q45.5625 56 51.7812 48.0938
Q58.0156 40.1875 58.0156 27.2969
Q58.0156 14.4062 51.7812 6.48438
Q45.5625 -1.42188 35.5938 -1.42188
Q29.5938 -1.42188 25.2656 0.953125
Q20.9531 3.32812 18.1094 8.20312
L18.1094 0
L9.07812 0
L9.07812 75.9844
L18.1094 75.9844
z
" id="DejaVuSans-62"/>
    </defs>
    <g transform="translate(534.946556818 18.14175)scale(0.144 -0.144)">
     <use xlink:href="#DejaVuSans-28"/>
     <use x="39.013671875" xlink:href="#DejaVuSans-62"/>
     <use x="102.490234375" xlink:href="#DejaVuSans-29"/>
    </g>
   </g>
   <g id="legend_2">
    <g id="line2d_65">
     <path d="
M408.996 118.614
L429.156 118.614" style="fill:none;stroke:#000000;stroke-linecap:square;stroke-width:2;"/>
    </g>
    <g id="line2d_66"/>
    <g id="text_24">
     <!-- $\ln \left[ \overline{\Phi}_{\Delta T}\,(k) \right]$ -->
     <g transform="translate(444.996363636 123.65375)scale(0.144 -0.144)">
      <use transform="translate(0.0 0.9375)" xlink:href="#Cmr10-6c"/>
      <use transform="translate(27.685546875 0.9375)" xlink:href="#Cmr10-6e"/>
      <use transform="translate(83.203125 90.021875)scale(0.98874267101)" xlink:href="#Cmex10-a3"/>
      <use transform="translate(124.330169678 0.4375)" xlink:href="#Cmr10-a9"/>
      <use transform="translate(196.546966553 -24.571875)scale(0.7)" xlink:href="#Cmr10-a2"/>
      <use transform="translate(254.857513428 -24.571875)scale(0.7)" xlink:href="#Cmmi10-54"/>
      <use transform="translate(330.853607178 0.9375)" xlink:href="#Cmr10-28"/>
      <use transform="translate(369.671966553 0.9375)" xlink:href="#Cmmi10-6b"/>
      <use transform="translate(421.673919678 0.9375)" xlink:href="#Cmr10-29"/>
      <use transform="translate(460.492279053 90.021875)scale(0.98874267101)" xlink:href="#Cmex10-a4"/>
      <path d="
M124.33 81.5
L124.33 87.75
L196.547 87.75
L196.547 81.5
L124.33 81.5
z
"/>
     </g>
    </g>
    <g id="line2d_67">
     <path d="
M408.996 146.406
L429.156 146.406" style="fill:none;stroke:#0000ff;stroke-dasharray:6.000000,6.000000;stroke-dashoffset:0.0;stroke-width:2;"/>
    </g>
    <g id="line2d_68"/>
    <g id="text_25">
     <!-- $\ln \left[ \overline{\Phi}_{\Delta T}^{\rm \, low}(k) \right]$ -->
     <defs>
      <path d="
M22.6094 -175.875
L22.6094 4
L45.3125 4
L45.3125 -0.78125
L27.3906 -0.78125
L27.3906 -171.094
L45.3125 -171.094
L45.3125 -175.875
z
" id="Cmex10-68"/>
      <path d="
M1.8125 -175.875
L1.8125 -171.094
L19.6719 -171.094
L19.6719 -0.78125
L1.8125 -0.78125
L1.8125 4
L24.5156 4
L24.5156 -175.875
z
" id="Cmex10-69"/>
     </defs>
     <g transform="translate(444.996363636 151.44575)scale(0.144 -0.144)">
      <use transform="translate(0.0 0.86875)" xlink:href="#Cmr10-6c"/>
      <use transform="translate(27.685546875 0.86875)" xlink:href="#Cmr10-6e"/>
      <use transform="translate(83.203125 113.84375)scale(0.787413134121)" xlink:href="#Cmex10-68"/>
      <use transform="translate(120.378967285 0.36875)" xlink:href="#Cmr10-a9"/>
      <use transform="translate(215.91998291 68.421875)scale(0.7)" xlink:href="#Cmr10-6c"/>
      <use transform="translate(235.299865723 68.421875)scale(0.7)" xlink:href="#Cmr10-6f"/>
      <use transform="translate(270.299865723 68.421875)scale(0.7)" xlink:href="#Cmr10-77"/>
      <use transform="translate(192.59576416 -24.640625)scale(0.7)" xlink:href="#Cmr10-a2"/>
      <use transform="translate(250.906311035 -24.640625)scale(0.7)" xlink:href="#Cmmi10-54"/>
      <use transform="translate(337.857873535 0.86875)" xlink:href="#Cmr10-28"/>
      <use transform="translate(376.67623291 0.86875)" xlink:href="#Cmmi10-6b"/>
      <use transform="translate(428.678186035 0.86875)" xlink:href="#Cmr10-29"/>
      <use transform="translate(467.49654541 113.84375)scale(0.787413134121)" xlink:href="#Cmex10-69"/>
      <path d="
M120.379 81.4313
L120.379 87.6813
L192.596 87.6813
L192.596 81.4313
L120.379 81.4313
z
"/>
     </g>
    </g>
    <g id="line2d_69">
     <path d="
M408.996 174.198
L429.156 174.198" style="fill:none;stroke:#ff0000;stroke-dasharray:3.000000,5.000000,1.000000,5.000000;stroke-dashoffset:0.0;stroke-width:2;"/>
    </g>
    <g id="line2d_70"/>
    <g id="text_26">
     <!-- $\ln \left[ \overline{\Phi}_{\Delta T}^{\rm \, high}(k) \right]$ -->
     <g transform="translate(444.996363636 179.23775)scale(0.144 -0.144)">
      <use transform="translate(0.0 0.86875)" xlink:href="#Cmr10-6c"/>
      <use transform="translate(27.685546875 0.86875)" xlink:href="#Cmr10-6e"/>
      <use transform="translate(83.203125 113.84375)scale(0.787413134121)" xlink:href="#Cmex10-68"/>
      <use transform="translate(120.378967285 0.36875)" xlink:href="#Cmr10-a9"/>
      <use transform="translate(215.91998291 68.421875)scale(0.7)" xlink:href="#Cmr10-68"/>
      <use transform="translate(254.782287598 68.421875)scale(0.7)" xlink:href="#Cmr10-69"/>
      <use transform="translate(274.16217041 68.421875)scale(0.7)" xlink:href="#Cmr10-67"/>
      <use transform="translate(309.16217041 68.421875)scale(0.7)" xlink:href="#Cmr10-68"/>
      <use transform="translate(192.59576416 -24.640625)scale(0.7)" xlink:href="#Cmr10-a2"/>
      <use transform="translate(250.906311035 -24.640625)scale(0.7)" xlink:href="#Cmmi10-54"/>
      <use transform="translate(365.030725098 0.86875)" xlink:href="#Cmr10-28"/>
      <use transform="translate(403.849084473 0.86875)" xlink:href="#Cmmi10-6b"/>
      <use transform="translate(455.851037598 0.86875)" xlink:href="#Cmr10-29"/>
      <use transform="translate(494.669396973 113.84375)scale(0.787413134121)" xlink:href="#Cmex10-69"/>
      <path d="
M120.379 81.4313
L120.379 87.6813
L192.596 87.6813
L192.596 81.4313
L120.379 81.4313
z
"/>
     </g>
    </g>
   </g>
  </g>
 </g>
 <defs>
  <clipPath id="p197d8816c8">
   <rect height="172.8" width="304.363636364" x="391.716363636" y="23.14175"/>
  </clipPath>
  <clipPath id="pe92f4f9965">
   <rect height="172.8" width="304.363636364" x="26.48" y="23.14175"/>
  </clipPath>
 </defs>
</svg>
