<?xml version="1.0" encoding="utf-8" standalone="no"?>
<!DOCTYPE svg PUBLIC "-//W3C//DTD SVG 1.1//EN"
  "http://www.w3.org/Graphics/SVG/1.1/DTD/svg11.dtd">
<!-- Created with matplotlib (http://matplotlib.org/) -->
<svg height="329pt" version="1.1" viewBox="0 0 492 329" width="492pt" xmlns="http://www.w3.org/2000/svg" xmlns:xlink="http://www.w3.org/1999/xlink">
 <defs>
  <style type="text/css">
*{stroke-linecap:butt;stroke-linejoin:round;}
  </style>
 </defs>
 <g id="figure_1">
  <g id="patch_1">
   <path d="
M0 329.6
L492.2 329.6
L492.2 0
L0 0
z
" style="fill:#ffffff;"/>
  </g>
  <g id="axes_1">
   <g id="patch_2">
    <path d="
M38.6 295.2
L485 295.2
L485 7.2
L38.6 7.2
z
" style="fill:#ffffff;"/>
   </g>
   <g id="line2d_1">
    <path clip-path="url(#p74930d0f3b)" d="
M38.6 295.2
L39.0468 294.812
L39.4937 293.698
L39.9405 291.932
L40.8342 286.71
L41.7279 279.625
L43.0685 266.392
L44.8559 245.578
L48.8775 194.238
L51.5586 161.43
L53.7928 136.644
L55.5802 118.855
L57.3676 102.989
L59.155 89.0511
L60.9423 76.9874
L62.7297 66.7045
L64.0703 60.0913
L65.4108 54.3599
L66.7514 49.4538
L68.0919 45.3161
L69.4324 41.8903
L70.773 39.1212
L72.1135 36.9557
L73.4541 35.3429
L74.3477 34.551
L75.2414 33.9696
L76.1351 33.5858
L77.0288 33.3871
L77.9225 33.3617
L78.8162 33.4981
L80.1568 33.9827
L81.4973 34.7733
L82.8378 35.8382
L84.1784 37.1484
L85.9658 39.2313
L87.7532 41.6461
L89.9874 45.0546
L92.6685 49.6049
L95.7964 55.3918
L99.818 63.3464
L106.074 76.3209
L118.586 102.366
L124.841 114.803
L130.204 124.997
L135.566 134.719
L140.928 143.955
L145.843 151.995
L150.759 159.634
L155.674 166.885
L160.589 173.76
L165.505 180.275
L170.42 186.447
L175.782 192.808
L181.144 198.799
L186.506 204.442
L191.868 209.756
L197.231 214.76
L202.593 219.472
L208.402 224.266
L214.211 228.756
L220.02 232.963
L225.829 236.903
L232.085 240.868
L238.341 244.564
L244.596 248.008
L251.299 251.439
L258.002 254.62
L265.151 257.759
L272.301 260.655
L279.897 263.487
L287.494 266.087
L295.537 268.608
L304.027 271.032
L312.964 273.346
L322.348 275.537
L332.178 277.598
L342.456 279.521
L353.18 281.305
L364.798 283.009
L377.31 284.611
L390.715 286.094
L405.014 287.448
L420.654 288.7
L437.634 289.831
L456.402 290.854
L477.404 291.769
L485 292.051
L485 292.051" style="fill:none;stroke:#000000;stroke-linecap:square;stroke-width:2;"/>
   </g>
   <g id="line2d_2">
    <path clip-path="url(#p74930d0f3b)" d="
M77.6098 295.2
L77.6098 33.3516" style="fill:none;stroke:#000000;stroke-dasharray:6.000000,6.000000;stroke-dashoffset:0.0;"/>
   </g>
   <g id="line2d_3">
    <path clip-path="url(#p74930d0f3b)" d="
M116.62 295.2
L116.62 98.3522" style="fill:none;stroke:#000000;stroke-dasharray:6.000000,6.000000;stroke-dashoffset:0.0;"/>
   </g>
   <g id="patch_3">
    <path d="
M38.6 7.2
L485 7.2" style="fill:none;stroke:#000000;stroke-linecap:square;stroke-linejoin:miter;"/>
   </g>
   <g id="patch_4">
    <path d="
M485 295.2
L485 7.2" style="fill:none;stroke:#000000;stroke-linecap:square;stroke-linejoin:miter;"/>
   </g>
   <g id="patch_5">
    <path d="
M38.6 295.2
L485 295.2" style="fill:none;stroke:#000000;stroke-linecap:square;stroke-linejoin:miter;"/>
   </g>
   <g id="patch_6">
    <path d="
M38.6 295.2
L38.6 7.2" style="fill:none;stroke:#000000;stroke-linecap:square;stroke-linejoin:miter;"/>
   </g>
   <g id="matplotlib.axis_1">
    <g id="xtick_1">
     <g id="line2d_4">
      <defs>
       <path d="
M0 0
L0 4" id="m741efc42ff" style="stroke:#000000;stroke-width:0.5;"/>
      </defs>
      <g>
       <use style="stroke:#000000;stroke-width:0.5;" x="38.6" xlink:href="#m741efc42ff" y="295.2"/>
      </g>
     </g>
    </g>
    <g id="xtick_2">
     <g id="line2d_5">
      <g>
       <use style="stroke:#000000;stroke-width:0.5;" x="109.646766596" xlink:href="#m741efc42ff" y="295.2"/>
      </g>
     </g>
    </g>
    <g id="xtick_3">
     <g id="line2d_6">
      <g>
       <use style="stroke:#000000;stroke-width:0.5;" x="180.693533192" xlink:href="#m741efc42ff" y="295.2"/>
      </g>
     </g>
    </g>
    <g id="xtick_4">
     <g id="line2d_7">
      <g>
       <use style="stroke:#000000;stroke-width:0.5;" x="251.740299789" xlink:href="#m741efc42ff" y="295.2"/>
      </g>
     </g>
    </g>
    <g id="xtick_5">
     <g id="line2d_8">
      <g>
       <use style="stroke:#000000;stroke-width:0.5;" x="322.787066385" xlink:href="#m741efc42ff" y="295.2"/>
      </g>
     </g>
    </g>
    <g id="xtick_6">
     <g id="line2d_9">
      <g>
       <use style="stroke:#000000;stroke-width:0.5;" x="393.833832981" xlink:href="#m741efc42ff" y="295.2"/>
      </g>
     </g>
    </g>
    <g id="xtick_7">
     <g id="line2d_10">
      <g>
       <use style="stroke:#000000;stroke-width:0.5;" x="464.880599577" xlink:href="#m741efc42ff" y="295.2"/>
      </g>
     </g>
    </g>
    <g id="text_1">
     <!-- $k\,[\rm{rad/km}]$ -->
     <defs>
      <path d="
M2.20312 -25
L2.20312 -21
L11.9219 -21
L11.9219 71
L2.20312 71
L2.20312 75
L15.9219 75
L15.9219 -25
z
" id="Cmr10-5d"/>
      <path d="
M5.32812 1.8125
Q5.32812 2.39062 5.42188 2.6875
L19.9219 60.5
Q20.3125 62.2031 20.4062 63.1875
Q20.4062 64.7969 13.9219 64.7969
Q12.8906 64.7969 12.8906 66.1094
Q12.9375 66.3594 13.1094 66.9844
Q13.2812 67.625 13.5469 67.9688
Q13.8125 68.3125 14.3125 68.3125
L27.7812 69.3906
L28.0781 69.3906
Q28.0781 69.2812 28.4219 69.1094
Q28.7656 68.9531 28.8125 68.8906
Q29 68.4062 29 68.1094
L18.5 26.3125
Q22.125 27.8281 27.6094 33.5156
Q33.1094 39.2031 36.2031 41.6875
Q39.3125 44.1875 44 44.1875
Q46.7812 44.1875 48.7344 42.2812
Q50.6875 40.375 50.6875 37.5938
Q50.6875 35.8438 49.9531 34.3438
Q49.2188 32.8594 47.8906 31.9219
Q46.5781 31 44.8281 31
Q43.2188 31 42.1094 32
Q41.0156 33.0156 41.0156 34.625
Q41.0156 37.0156 42.7031 38.6406
Q44.3906 40.2812 46.7812 40.2812
Q45.7969 41.6094 43.7969 41.6094
Q40.8281 41.6094 38.0625 39.8906
Q35.2969 38.1875 32.0938 34.9844
Q28.9062 31.7812 26.2656 29.125
Q23.6406 26.4688 21.3906 25.0938
Q27.2969 24.4219 31.6406 22
Q35.9844 19.5781 35.9844 14.5938
Q35.9844 13.5781 35.5938 12.0156
Q34.7188 8.25 34.7188 6
Q34.7188 1.51562 37.7969 1.51562
Q41.4062 1.51562 43.2812 5.46875
Q45.1719 9.42188 46.3906 14.7031
Q46.5781 15.2812 47.2188 15.2812
L48.3906 15.2812
Q48.7812 15.2812 49.0469 15.0312
Q49.3125 14.7969 49.3125 14.4062
Q49.3125 14.3125 49.2188 14.1094
Q45.4531 -1.125 37.5938 -1.125
Q34.7656 -1.125 32.5938 0.1875
Q30.4219 1.51562 29.25 3.78125
Q28.0781 6.0625 28.0781 8.89062
Q28.0781 10.5 28.5156 12.2031
Q28.8125 13.375 28.8125 14.4062
Q28.8125 18.2656 25.3906 20.2656
Q21.9688 22.2656 17.5781 22.7031
L12.5 2.29688
Q12.1094 0.78125 10.9844 -0.171875
Q9.85938 -1.125 8.40625 -1.125
Q7.125 -1.125 6.21875 -0.265625
Q5.32812 0.59375 5.32812 1.8125" id="Cmmi10-6b"/>
      <path d="
M11.8125 -25
L11.8125 75
L25.4844 75
L25.4844 71
L15.8281 71
L15.8281 -21
L25.4844 -21
L25.4844 -25
z
" id="Cmr10-5b"/>
      <path d="
M2.98438 0
L2.98438 3.51562
Q6.39062 3.51562 8.59375 4.04688
Q10.7969 4.59375 10.7969 6.6875
L10.7969 33.9844
Q10.7969 36.6719 9.98438 37.8594
Q9.1875 39.0625 7.67188 39.3281
Q6.15625 39.5938 2.98438 39.5938
L2.98438 43.1094
L17.4844 44.1875
L17.4844 34.4219
Q19.4844 38.7188 23.4062 41.4531
Q27.3438 44.1875 31.9844 44.1875
Q43.5 44.1875 45.5156 34.8125
Q47.5156 39.0156 51.3594 41.5938
Q55.2188 44.1875 59.8125 44.1875
Q64.3594 44.1875 67.4531 42.7188
Q70.5625 41.2656 72.125 38.25
Q73.6875 35.25 73.6875 30.7188
L73.6875 6.6875
Q73.6875 4.59375 75.9062 4.04688
Q78.125 3.51562 81.5 3.51562
L81.5 0
L58.5938 0
L58.5938 3.51562
Q62.0156 3.51562 64.2031 4.04688
Q66.4062 4.59375 66.4062 6.6875
L66.4062 30.4219
Q66.4062 35.4531 64.9844 38.5312
Q63.5781 41.6094 59.1875 41.6094
Q53.4219 41.6094 49.6562 36.9688
Q45.9062 32.3281 45.9062 26.4219
L45.9062 6.6875
Q45.9062 4.59375 48.0938 4.04688
Q50.2969 3.51562 53.7188 3.51562
L53.7188 0
L30.8125 0
L30.8125 3.51562
Q34.2344 3.51562 36.4219 4.04688
Q38.625 4.59375 38.625 6.6875
L38.625 30.4219
Q38.625 35.2969 37.2031 38.4531
Q35.7969 41.6094 31.3906 41.6094
Q25.5938 41.6094 21.8438 36.9688
Q18.1094 32.3281 18.1094 26.4219
L18.1094 6.6875
Q18.1094 4.59375 20.3125 4.04688
Q22.5156 3.51562 25.875 3.51562
L25.875 0
z
" id="Cmr10-6d"/>
      <path d="
M2.59375 0
L2.59375 3.51562
Q6 3.51562 8.20312 4.04688
Q10.4062 4.59375 10.4062 6.6875
L10.4062 59.1875
Q10.4062 61.8594 9.59375 63.0625
Q8.79688 64.2656 7.28125 64.5312
Q5.76562 64.7969 2.59375 64.7969
L2.59375 68.3125
L17.3906 69.3906
L17.3906 21.9219
L30.8125 33.6875
Q32.8125 35.5938 32.8125 37.2031
Q32.8125 38.375 31.9844 38.9844
Q31.1562 39.5938 29.9844 39.5938
L29.9844 43.1094
L48.7812 43.1094
L48.7812 39.5938
Q42 39.5938 35.2031 33.6875
L28.0781 27.4844
L40.8281 9.42188
Q43.4531 5.67188 45.2344 4.59375
Q47.0156 3.51562 51.125 3.51562
L51.125 0
L31.2031 0
L31.2031 3.51562
Q34.625 3.51562 34.625 5.60938
Q34.625 7.125 32.8125 9.42188
L23.1875 23.0938
L17.0938 17.8281
L17.0938 6.6875
Q17.0938 4.59375 19.3125 4.04688
Q21.5312 3.51562 24.9062 3.51562
L24.9062 0
z
" id="Cmr10-6b"/>
      <path d="
M2.59375 0
L2.59375 3.51562
Q6 3.51562 8.20312 4.04688
Q10.4062 4.59375 10.4062 6.6875
L10.4062 33.9844
Q10.4062 36.6719 9.59375 37.8594
Q8.79688 39.0625 7.28125 39.3281
Q5.76562 39.5938 2.59375 39.5938
L2.59375 43.1094
L16.8906 44.1875
L16.8906 34.4219
Q18.5 38.7656 21.4844 41.4688
Q24.4688 44.1875 28.7188 44.1875
Q31.6875 44.1875 34.0312 42.4219
Q36.375 40.6719 36.375 37.7969
Q36.375 35.9844 35.0781 34.6406
Q33.7969 33.2969 31.8906 33.2969
Q30.0312 33.2969 28.7031 34.6094
Q27.3906 35.9375 27.3906 37.7969
Q27.3906 40.4844 29.2969 41.6094
L28.7188 41.6094
Q24.6562 41.6094 22.0938 38.6719
Q19.5312 35.75 18.4531 31.3906
Q17.3906 27.0469 17.3906 23.0938
L17.3906 6.6875
Q17.3906 3.51562 27.0938 3.51562
L27.0938 0
z
" id="Cmr10-72"/>
      <path d="
M24.4219 -1.125
Q18.5 -1.125 13.6094 2.07812
Q8.73438 5.28125 6.03125 10.5
Q3.32812 15.7188 3.32812 21.5781
Q3.32812 27.6406 6.28125 32.8281
Q9.23438 38.0312 14.3125 41.1094
Q19.3906 44.1875 25.4844 44.1875
Q29.1562 44.1875 32.4219 42.6406
Q35.6875 41.1094 38.0938 38.375
L38.0938 59.1875
Q38.0938 61.8594 37.2812 63.0625
Q36.4688 64.2656 34.9844 64.5312
Q33.5 64.7969 30.3281 64.7969
L30.3281 68.3125
L45.125 69.3906
L45.125 9.07812
Q45.125 6.45312 45.9219 5.25
Q46.7344 4.04688 48.2188 3.78125
Q49.7031 3.51562 52.875 3.51562
L52.875 0
L37.7969 -1.125
L37.7969 5.17188
Q35.2031 2.20312 31.6406 0.53125
Q28.0781 -1.125 24.4219 -1.125
M14.2031 8.6875
Q15.9219 5.42188 18.7656 3.46875
Q21.625 1.51562 25 1.51562
Q29.1562 1.51562 32.6094 3.90625
Q36.0781 6.29688 37.7969 10.1094
L37.7969 34.0781
Q36.625 36.2812 34.8438 38.0156
Q33.0625 39.75 30.8281 40.6719
Q28.6094 41.6094 26.125 41.6094
Q20.9062 41.6094 17.7188 38.6406
Q14.5469 35.6875 13.2812 31.0938
Q12.0156 26.5156 12.0156 21.4844
Q12.0156 17.4844 12.4219 14.5
Q12.8438 11.5312 14.2031 8.6875" id="Cmr10-64"/>
      <path d="
M5.60938 -23
Q5.60938 -22.7031 5.71875 -22.6094
L40.4844 73.7812
Q40.6719 74.3594 41.1562 74.6719
Q41.6562 75 42.2812 75
Q43.1719 75 43.7188 74.4531
Q44.2812 73.9219 44.2812 73
L44.2812 72.6094
L9.51562 -23.7812
Q8.9375 -25 7.625 -25
Q6.78125 -25 6.1875 -24.4062
Q5.60938 -23.8281 5.60938 -23" id="Cmmi10-3d"/>
      <path d="
M4 9.8125
Q4 15.7656 8.6875 19.5
Q13.375 23.25 19.9375 24.7812
Q26.5156 26.3125 32.4219 26.3125
L32.4219 30.4219
Q32.4219 33.2969 31.1562 36
Q29.8906 38.7188 27.4844 40.4531
Q25.0938 42.1875 22.2188 42.1875
Q15.5781 42.1875 12.1094 39.2031
Q14.0156 39.2031 15.25 37.7656
Q16.5 36.3281 16.5 34.4219
Q16.5 32.4219 15.0781 31
Q13.6719 29.5938 11.7188 29.5938
Q9.71875 29.5938 8.29688 31
Q6.89062 32.4219 6.89062 34.4219
Q6.89062 39.7031 11.6719 42.2656
Q16.4531 44.8281 22.2188 44.8281
Q26.2656 44.8281 30.3594 43.0938
Q34.4688 41.3594 37.0781 38.125
Q39.7031 34.9062 39.7031 30.6094
L39.7031 8.10938
Q39.7031 6.15625 40.5312 4.51562
Q41.3594 2.875 43.1094 2.875
Q44.7812 2.875 45.5781 4.53125
Q46.3906 6.20312 46.3906 8.10938
L46.3906 14.5
L49.3125 14.5
L49.3125 8.10938
Q49.3125 5.85938 48.1406 3.82812
Q46.9688 1.8125 44.9844 0.609375
Q43.0156 -0.59375 40.7188 -0.59375
Q37.7969 -0.59375 35.6719 1.67188
Q33.5469 3.95312 33.2969 7.07812
Q31.4531 3.32812 27.8281 1.09375
Q24.2188 -1.125 20.125 -1.125
Q16.3125 -1.125 12.625 0
Q8.9375 1.125 6.46875 3.53125
Q4 5.95312 4 9.8125
M12.1094 9.8125
Q12.1094 6.29688 14.6875 3.90625
Q17.2812 1.51562 20.7969 1.51562
Q24.0312 1.51562 26.6562 3.125
Q29.2969 4.73438 30.8594 7.51562
Q32.4219 10.2969 32.4219 13.375
L32.4219 23.7812
Q27.875 23.7812 23.1094 22.2812
Q18.3594 20.7969 15.2344 17.625
Q12.1094 14.4531 12.1094 9.8125" id="Cmr10-61"/>
     </defs>
     <g transform="translate(209.66 316.7)scale(0.22 -0.22)">
      <use xlink:href="#Cmmi10-6b"/>
      <use transform="translate(87.119140625 0.0)" xlink:href="#Cmr10-5b"/>
      <use transform="translate(114.8046875 0.0)" xlink:href="#Cmr10-72"/>
      <use transform="translate(153.916015625 0.0)" xlink:href="#Cmr10-61"/>
      <use transform="translate(203.916015625 0.0)" xlink:href="#Cmr10-64"/>
      <use transform="translate(259.43359375 0.0)" xlink:href="#Cmmi10-3d"/>
      <use transform="translate(309.43359375 0.0)" xlink:href="#Cmr10-6b"/>
      <use transform="translate(362.119140625 0.0)" xlink:href="#Cmr10-6d"/>
      <use transform="translate(445.419921875 0.0)" xlink:href="#Cmr10-5d"/>
     </g>
    </g>
   </g>
   <g id="matplotlib.axis_2">
    <g id="ytick_1">
     <g id="line2d_11">
      <defs>
       <path d="
M0 0
L-4 0" id="mcb0005524f" style="stroke:#000000;stroke-width:0.5;"/>
      </defs>
      <g>
       <use style="stroke:#000000;stroke-width:0.5;" x="38.6" xlink:href="#mcb0005524f" y="295.2"/>
      </g>
     </g>
    </g>
    <g id="ytick_2">
     <g id="line2d_12">
      <g>
       <use style="stroke:#000000;stroke-width:0.5;" x="38.6" xlink:href="#mcb0005524f" y="247.2"/>
      </g>
     </g>
    </g>
    <g id="ytick_3">
     <g id="line2d_13">
      <g>
       <use style="stroke:#000000;stroke-width:0.5;" x="38.6" xlink:href="#mcb0005524f" y="199.2"/>
      </g>
     </g>
    </g>
    <g id="ytick_4">
     <g id="line2d_14">
      <g>
       <use style="stroke:#000000;stroke-width:0.5;" x="38.6" xlink:href="#mcb0005524f" y="151.2"/>
      </g>
     </g>
    </g>
    <g id="ytick_5">
     <g id="line2d_15">
      <g>
       <use style="stroke:#000000;stroke-width:0.5;" x="38.6" xlink:href="#mcb0005524f" y="103.2"/>
      </g>
     </g>
    </g>
    <g id="ytick_6">
     <g id="line2d_16">
      <g>
       <use style="stroke:#000000;stroke-width:0.5;" x="38.6" xlink:href="#mcb0005524f" y="55.2"/>
      </g>
     </g>
    </g>
    <g id="ytick_7">
     <g id="line2d_17">
      <g>
       <use style="stroke:#000000;stroke-width:0.5;" x="38.6" xlink:href="#mcb0005524f" y="7.2"/>
      </g>
     </g>
    </g>
    <g id="text_2">
     <!-- $\overline{\Phi}_{\Delta T}\,(k)$ -->
     <defs>
      <path d="
M18.6094 0
L18.6094 3.51562
Q31.3906 3.51562 31.3906 6.6875
L31.3906 13.9219
Q21.7812 14.8438 14.5 19.6719
Q10.6875 22.2656 8.14062 26.0781
Q5.60938 29.8906 5.60938 34.1875
Q5.60938 38.4219 8.14062 42.25
Q10.6875 46.0938 14.5 48.5781
Q18.2656 51.125 22.4375 52.5156
Q26.6094 53.9062 31.3906 54.3906
L31.3906 61.625
Q31.3906 64.7969 18.6094 64.7969
L18.6094 68.3125
L52.875 68.3125
L52.875 64.7969
Q40.0938 64.7969 40.0938 61.625
L40.0938 54.3906
Q44.2344 54.3906 48.875 52.8438
Q53.5156 51.3125 57.4688 48.6719
Q61.4219 46.0469 63.9531 42.2656
Q66.5 38.4844 66.5 34.1875
Q66.5 29.8906 63.9531 26.125
Q61.4219 22.3594 57.3438 19.625
Q53.2656 16.8906 48.625 15.4062
Q44 13.9219 40.0938 13.9219
L40.0938 6.6875
Q40.0938 3.51562 52.875 3.51562
L52.875 0
z

M40.0938 16.5
Q48.1406 17.5312 52.125 21.8906
Q56.1094 26.2656 56.1094 34.1875
Q56.1094 42.1406 52.0781 46.4844
Q48.0469 50.8281 40.0938 51.8125
z

M31.3906 16.6094
L31.3906 51.7031
Q16.0156 49.5625 16.0156 34.1875
Q16.0156 18.75 31.3906 16.6094" id="Cmr10-a9"/>
      <path d="
M31 -24.8125
Q25.4375 -20.4062 21.4062 -14.7188
Q17.3906 -9.03125 14.8125 -2.57812
Q12.25 3.85938 10.9844 10.8906
Q9.71875 17.9219 9.71875 25
Q9.71875 32.1719 10.9844 39.2031
Q12.25 46.2344 14.8594 52.7344
Q17.4844 59.2344 21.5312 64.8906
Q25.5938 70.5625 31 74.8125
Q31 75 31.5 75
L32.4219 75
Q32.7188 75 32.9531 74.7344
Q33.2031 74.4688 33.2031 74.125
Q33.2031 73.6875 33.0156 73.4844
Q28.125 68.7031 24.875 63.2344
Q21.625 57.7656 19.6406 51.5781
Q17.6719 45.4062 16.7969 38.7812
Q15.9219 32.1719 15.9219 25
Q15.9219 -6.78125 32.9062 -23.2969
Q33.2031 -23.5781 33.2031 -24.125
Q33.2031 -24.3594 32.9375 -24.6719
Q32.6719 -25 32.4219 -25
L31.5 -25
Q31 -25 31 -24.8125" id="Cmr10-28"/>
      <path d="
M5.42188 0
Q4.59375 0 4.59375 0.78125
Q4.64062 0.875 4.65625 0.921875
Q4.6875 0.984375 4.6875 1.125
L39.1094 70.5156
Q39.5469 71.5781 40.9219 71.5781
L42.2812 71.5781
Q43.6562 71.5781 44.0938 70.5156
L78.5156 1.125
Q78.5625 1.03125 78.5781 0.953125
Q78.6094 0.875 78.6094 0.78125
Q78.6094 0 77.7812 0
z

M12.0156 8.01562
L64.7031 8.01562
L38.375 61.0781
z
" id="Cmr10-a2"/>
      <path d="
M4.59375 1.3125
Q4.64062 1.5625 4.8125 2.1875
Q4.98438 2.82812 5.25 3.17188
Q5.51562 3.51562 6 3.51562
Q14.5938 3.51562 17.3906 4
Q20.0625 4.6875 20.6094 6.89062
L34.2812 61.8125
Q34.7188 63.0312 34.7188 64.0156
Q34.7188 64.7969 31.2031 64.7969
L25.3906 64.7969
Q18.7031 64.7969 15.0625 62.7344
Q11.4219 60.6875 9.71875 57.3125
Q8.01562 53.9531 5.32812 46.2969
Q4.98438 45.4062 4.29688 45.4062
L3.42188 45.4062
Q2.39062 45.4062 2.39062 46.6875
L9.51562 67.3906
Q9.71875 68.3125 10.5 68.3125
L69.5781 68.3125
Q70.6094 68.3125 70.6094 67
L67.2812 46.2969
Q67.2812 46 66.9375 45.7031
Q66.6094 45.4062 66.3125 45.4062
L65.375 45.4062
Q64.4062 45.4062 64.4062 46.6875
Q65.4844 53.7656 65.4844 56.6875
Q65.4844 60.2031 64.0156 62
Q62.5469 63.8125 60.2031 64.2969
Q57.8594 64.7969 54.1094 64.7969
L48.1875 64.7969
Q45.5156 64.7969 44.5781 64.2969
Q43.6562 63.8125 43.0156 61.375
L29.2969 6.5
Q29.25 6.29688 29.2188 6.09375
Q29.2031 5.90625 29.1094 5.60938
Q29.1094 4.34375 30.6094 4
Q33.2031 3.51562 41.7031 3.51562
Q42.6719 3.51562 42.6719 2.20312
Q42.3281 0.78125 42.125 0.390625
Q41.9375 0 41.0156 0
L5.60938 0
Q4.59375 0 4.59375 1.3125" id="Cmmi10-54"/>
      <path d="
M6.5 -25
Q5.60938 -25 5.60938 -24.125
Q5.60938 -23.6875 5.8125 -23.4844
Q22.9062 -6.78125 22.9062 25
Q22.9062 56.7812 6 73.2969
Q5.60938 73.5312 5.60938 74.125
Q5.60938 74.4688 5.875 74.7344
Q6.15625 75 6.5 75
L7.42188 75
Q7.71875 75 7.90625 74.8125
Q15.0938 69.1406 19.875 61.0312
Q24.6562 52.9375 26.875 43.75
Q29.1094 34.5781 29.1094 25
Q29.1094 17.9219 27.9062 11.0625
Q26.7031 4.20312 24.0938 -2.45312
Q21.4844 -9.125 17.4844 -14.7656
Q13.4844 -20.4062 7.90625 -24.8125
Q7.71875 -25 7.42188 -25
z
" id="Cmr10-29"/>
     </defs>
     <g transform="translate(27.88 188.27)rotate(-90.0)scale(0.22 -0.22)">
      <use transform="translate(0.0 0.4375)" xlink:href="#Cmr10-a9"/>
      <use transform="translate(72.216796875 -24.571875)scale(0.7)" xlink:href="#Cmr10-a2"/>
      <use transform="translate(130.52734375 -24.571875)scale(0.7)" xlink:href="#Cmmi10-54"/>
      <use transform="translate(206.5234375 0.9375)" xlink:href="#Cmr10-28"/>
      <use transform="translate(245.341796875 0.9375)" xlink:href="#Cmmi10-6b"/>
      <use transform="translate(297.34375 0.9375)" xlink:href="#Cmr10-29"/>
      <path d="
M0 81.5
L0 87.75
L72.2168 87.75
L72.2168 81.5
L0 81.5
z
"/>
     </g>
    </g>
   </g>
   <g id="text_3">
    <!-- $k_p$ -->
    <defs>
     <path d="
M-2.48438 -19.3906
Q-3.42188 -19.3906 -3.42188 -18.1094
Q-3.07812 -15.9219 -2.09375 -15.9219
Q1.03125 -15.9219 2.26562 -15.3594
Q3.51562 -14.7969 4.20312 -12.5
L15.4844 32.5156
Q16.2188 34.375 16.2188 37.3125
Q16.2188 41.6094 13.2812 41.6094
Q10.1562 41.6094 8.64062 37.8594
Q7.125 34.125 5.71875 28.4219
Q5.71875 27.7812 4.89062 27.7812
L3.71875 27.7812
Q3.46875 27.7812 3.17188 28.1406
Q2.875 28.5156 2.875 28.8125
Q3.95312 33.1562 4.95312 36.1719
Q5.95312 39.2031 8.07812 41.6875
Q10.2031 44.1875 13.375 44.1875
Q16.7969 44.1875 19.375 42.25
Q21.9688 40.3281 22.7031 37.0156
Q25.4375 40.1875 28.75 42.1875
Q32.0781 44.1875 35.5938 44.1875
Q39.7969 44.1875 42.8906 41.9375
Q46 39.7031 47.5625 36.0625
Q49.125 32.4219 49.125 28.2188
Q49.125 21.7812 45.8281 14.8906
Q42.5312 8.01562 36.8906 3.4375
Q31.25 -1.125 24.8125 -1.125
Q21.875 -1.125 19.5 0.53125
Q17.1406 2.20312 15.8281 4.89062
L11.2812 -12.8906
Q11.0312 -14.3594 10.9844 -14.5938
Q10.9844 -15.9219 17.5781 -15.9219
Q18.6094 -15.9219 18.6094 -17.1875
Q18.2656 -18.5 18.0469 -18.9375
Q17.8281 -19.3906 16.8906 -19.3906
z

M24.9062 1.51562
Q28.375 1.51562 31.3438 4.375
Q34.3281 7.23438 36.1875 10.7969
Q37.5469 13.4844 38.7344 17.3594
Q39.9375 21.2344 40.8125 25.625
Q41.7031 30.0312 41.7031 32.625
Q41.7031 34.9062 41.0938 36.9062
Q40.4844 38.9219 39.0938 40.2656
Q37.7031 41.6094 35.4062 41.6094
Q31.7344 41.6094 28.4844 38.9844
Q25.25 36.375 22.6094 32.5156
L22.6094 32.1719
L17.0938 10.1094
Q17.7812 6.54688 19.7344 4.03125
Q21.6875 1.51562 24.9062 1.51562" id="Cmmi10-70"/>
    </defs>
    <g transform="translate(77.609750756 314.4)scale(0.2 -0.2)">
     <use transform="translate(0.0 0.609375)" xlink:href="#Cmmi10-6b"/>
     <use transform="translate(52.001953125 -24.9)scale(0.7)" xlink:href="#Cmmi10-70"/>
    </g>
   </g>
   <g id="text_4">
    <!-- $\sigma_k$ -->
    <defs>
     <path d="
M18.7031 -1.125
Q14.2656 -1.125 10.8125 1
Q7.375 3.125 5.48438 6.73438
Q3.60938 10.3594 3.60938 14.7031
Q3.60938 19.3438 5.70312 24.4688
Q7.8125 29.5938 11.4531 33.8438
Q15.0938 38.0938 19.6719 40.5938
Q24.2656 43.1094 29.1094 43.1094
L54.2969 43.1094
Q55.3281 43.1094 56.0469 42.4219
Q56.7812 41.75 56.7812 40.5781
Q56.7812 39.1094 55.7344 38.0156
Q54.6875 36.9219 53.2188 36.9219
L41.0156 36.9219
Q43.8906 32.625 43.8906 26.5156
Q43.8906 21.4844 41.9375 16.5938
Q39.9844 11.7188 36.5156 7.6875
Q33.0625 3.65625 28.4375 1.26562
Q23.8281 -1.125 18.7031 -1.125
M18.7969 1.51562
Q24.2656 1.51562 28.4844 5.78125
Q32.7188 10.0625 34.9531 16.2344
Q37.2031 22.4062 37.2031 27.6875
Q37.2031 31.9844 34.8281 34.4531
Q32.4688 36.9219 28.2188 36.9219
Q22.4062 36.9219 18.3281 33.0156
Q14.2656 29.1094 12.2344 23.1875
Q10.2031 17.2812 10.2031 11.8125
Q10.2031 7.51562 12.4688 4.51562
Q14.75 1.51562 18.7969 1.51562" id="Cmmi10-be"/>
    </defs>
    <g transform="translate(116.619501512 314.4)scale(0.2 -0.2)">
     <use transform="translate(0.0 0.890625)" xlink:href="#Cmmi10-be"/>
     <use transform="translate(57.080078125 -24.61875)scale(0.7)" xlink:href="#Cmmi10-6b"/>
    </g>
   </g>
  </g>
 </g>
 <defs>
  <clipPath id="p74930d0f3b">
   <rect height="288.0" width="446.4" x="38.6" y="7.2"/>
  </clipPath>
 </defs>
</svg>
