<?xml version="1.0" encoding="UTF-8" standalone="no"?>
<!-- Created with matplotlib (http://matplotlib.org/) -->

<svg
   xmlns:dc="http://purl.org/dc/elements/1.1/"
   xmlns:cc="http://creativecommons.org/ns#"
   xmlns:rdf="http://www.w3.org/1999/02/22-rdf-syntax-ns#"
   xmlns:svg="http://www.w3.org/2000/svg"
   xmlns="http://www.w3.org/2000/svg"
   xmlns:xlink="http://www.w3.org/1999/xlink"
   xmlns:sodipodi="http://sodipodi.sourceforge.net/DTD/sodipodi-0.dtd"
   xmlns:inkscape="http://www.inkscape.org/namespaces/inkscape"
   height="485.63638"
   version="1.1"
   viewBox="0 0 586.61132 388.5091"
   width="733.26416"
   id="svg2"
   inkscape:version="0.48.5 r10040"
   sodipodi:docname="hamming-filter.svg">
  <metadata
     id="metadata199">
    <rdf:RDF>
      <cc:Work
         rdf:about="">
        <dc:format>image/svg+xml</dc:format>
        <dc:type
           rdf:resource="http://purl.org/dc/dcmitype/StillImage" />
        <dc:title />
      </cc:Work>
    </rdf:RDF>
  </metadata>
  <sodipodi:namedview
     pagecolor="#ffffff"
     bordercolor="#666666"
     borderopacity="1"
     objecttolerance="10"
     gridtolerance="10"
     guidetolerance="10"
     inkscape:pageopacity="0"
     inkscape:pageshadow="2"
     inkscape:window-width="1366"
     inkscape:window-height="717"
     id="namedview197"
     showgrid="false"
     fit-margin-top="0"
     fit-margin-left="0"
     fit-margin-right="0"
     fit-margin-bottom="0"
     inkscape:zoom="0.43703703"
     inkscape:cx="-426.25175"
     inkscape:cy="428.16439"
     inkscape:window-x="0"
     inkscape:window-y="25"
     inkscape:window-maximized="1"
     inkscape:current-layer="svg2" />
  <defs
     id="defs4"
     style="stroke-linecap:butt;stroke-linejoin:round">
    <style
       type="text/css"
       id="style6">
*{stroke-linecap:butt;stroke-linejoin:round;}
  </style>
  </defs>
  <g
     id="patch_2"
     style="stroke-linecap:butt;stroke-linejoin:round"
     transform="translate(-61.888677,-36.243464)">
    <path
       d="m 90,388.8 558,0 0,-345.6 -558,0 z"
       style="fill:#ffffff;stroke-linecap:butt;stroke-linejoin:round"
       id="path14"
       inkscape:connector-curvature="0" />
  </g>
  <g
     id="line2d_1"
     style="stroke-linecap:butt;stroke-linejoin:round"
     transform="translate(-61.888677,-36.243464)">
    <path
       clip-path="url(#pd03f7f58b8)"
       d="m 90,43.2 2.2365,0.0856 2.2364,0.2567 2.2365,0.4277 2.2365,0.598 2.2361,0.768 2.237,0.937 2.236,1.1052 3.355,1.9707 3.355,2.3422 3.354,2.7084 3.355,3.0687 3.355,3.4221 3.355,3.7678 3.354,4.1052 3.355,4.4335 3.355,4.7517 3.354,5.0595 4.473,7.2051 4.473,7.7035 4.473,8.1714 4.473,8.607 5.591,11.319 5.592,11.876 5.591,12.359 6.709,15.362 7.828,18.48 12.3,29.733 15.656,37.819 7.827,18.376 6.71,15.237 5.591,12.231 5.591,11.728 5.591,11.15 4.473,8.458 4.473,8.011 4.473,7.533 4.473,7.024 3.355,4.917 3.355,4.604 3.354,4.282 3.355,3.949 3.355,3.607 3.354,3.258 3.355,2.902 3.355,2.538 3.355,2.169 3.354,1.796 2.237,0.988 2.236,0.818 2.237,0.649 2.236,0.479 2.237,0.308 2.236,0.137 16.774,0.008 318.697,0 0,0"
       style="fill:none;stroke:#000000;stroke-width:2;stroke-linecap:square;stroke-linejoin:round"
       id="path17"
       inkscape:connector-curvature="0" />
  </g>
  <g
     id="patch_3"
     style="stroke-linecap:butt;stroke-linejoin:round"
     transform="translate(-61.888677,-36.243464)">
    <path
       d="m 90,43.2 558,0"
       style="fill:none;stroke:#000000;stroke-width:1;stroke-linecap:square;stroke-linejoin:miter"
       id="path20"
       inkscape:connector-curvature="0" />
  </g>
  <g
     id="patch_4"
     style="stroke-linecap:butt;stroke-linejoin:round"
     transform="translate(-61.888677,-36.243464)">
    <path
       d="M 648,388.8 648,43.2"
       style="fill:none;stroke:#000000;stroke-width:1;stroke-linecap:square;stroke-linejoin:miter"
       id="path23"
       inkscape:connector-curvature="0" />
  </g>
  <g
     id="patch_5"
     style="stroke-linecap:butt;stroke-linejoin:round"
     transform="translate(-61.888677,-36.243464)">
    <path
       d="m 90,388.8 558,0"
       style="fill:none;stroke:#000000;stroke-width:1;stroke-linecap:square;stroke-linejoin:miter"
       id="path26"
       inkscape:connector-curvature="0" />
  </g>
  <g
     id="patch_6"
     style="stroke-linecap:butt;stroke-linejoin:round"
     transform="translate(-61.888677,-36.243464)">
    <path
       d="M 90,388.8 90,43.2"
       style="fill:none;stroke:#000000;stroke-width:1;stroke-linecap:square;stroke-linejoin:miter"
       id="path29"
       inkscape:connector-curvature="0" />
  </g>
  <g
     id="matplotlib.axis_1"
     style="stroke-linecap:butt;stroke-linejoin:round"
     transform="matrix(1.2552324,0,0,1.2552324,-163.00309,-123.08598)">
    <g
       id="xtick_1"
       style="stroke-linecap:butt;stroke-linejoin:round" />
    <g
       id="xtick_2"
       style="stroke-linecap:butt;stroke-linejoin:round" />
    <g
       id="xtick_3"
       style="stroke-linecap:butt;stroke-linejoin:round" />
    <g
       id="xtick_4"
       style="stroke-linecap:butt;stroke-linejoin:round" />
    <g
       id="xtick_5"
       style="stroke-linecap:butt;stroke-linejoin:round" />
    <g
       id="xtick_6"
       style="stroke-linecap:butt;stroke-linejoin:round" />
    <g
       id="text_1"
       style="stroke-linecap:butt;stroke-linejoin:round">
      <!-- $k$ -->
      <defs
         id="defs39">
        <path
           d="m 5.32812,1.8125 q 0,0.57812 0.09376,0.875 L 19.9219,60.5 q 0.3906,1.7031 0.4843,2.6875 0,1.6094 -6.4843,1.6094 -1.0313,0 -1.0313,1.3125 0.0469,0.25 0.2188,0.875 0.1718,0.6406 0.4375,0.9844 0.2656,0.3437 0.7656,0.3437 l 13.4687,1.0781 0.2969,0 q 0,-0.1094 0.3438,-0.2812 0.3437,-0.1563 0.3906,-0.2188 Q 29,68.4062 29,68.1094 L 18.5,26.3125 q 3.625,1.5156 9.1094,7.2031 5.5,5.6875 8.5937,8.1719 3.1094,2.5 7.7969,2.5 2.7812,0 4.7344,-1.9063 1.9531,-1.9062 1.9531,-4.6874 0,-1.75 -0.7344,-3.25 Q 49.2188,32.8594 47.8906,31.9219 46.5781,31 44.8281,31 q -1.6093,0 -2.7187,1 -1.0938,1.0156 -1.0938,2.625 0,2.3906 1.6875,4.0156 1.6875,1.6406 4.0781,1.6406 -0.9843,1.3282 -2.9843,1.3282 -2.9688,0 -5.7344,-1.7188 -2.7656,-1.7031 -5.9687,-4.9062 -3.1876,-3.2032 -5.8282,-5.8594 -2.625,-2.6562 -4.875,-4.0312 5.9063,-0.6719 10.25,-3.0938 4.3438,-2.4219 4.3438,-7.4062 0,-1.0157 -0.3906,-2.5782 Q 34.7188,8.25 34.7188,6 q 0,-4.48438 3.0781,-4.48438 3.6093,0 5.4843,3.95313 1.8907,3.95313 3.1094,9.23435 0.1875,0.5781 0.8282,0.5781 l 1.1718,0 q 0.3906,0 0.6563,-0.25 0.2656,-0.2343 0.2656,-0.625 0,-0.0937 -0.0937,-0.2968 -3.7657,-15.2344 -11.625,-15.2344 -2.8282,0 -5,1.3125 -2.1719,1.32812 -3.3438,3.59375 -1.1719,2.28125 -1.1719,5.10937 0,1.60938 0.4375,3.31248 0.2969,1.1719 0.2969,2.2031 0,3.8594 -3.4219,5.8594 -3.4218,2 -7.8125,2.4375 L 12.5,2.29688 Q 12.1094,0.78125 10.9844,-0.171875 9.85938,-1.125 8.40625,-1.125 7.125,-1.125 6.21875,-0.265625 5.32812,0.59375 5.32812,1.8125"
           id="Cmmi10-6b"
           inkscape:connector-curvature="0"
           style="stroke-linecap:butt;stroke-linejoin:round" />
      </defs>
      <g
         transform="matrix(0.18,0,0,-0.18,364.23,407.47719)"
         id="g42"
         style="stroke-linecap:butt;stroke-linejoin:round">
        <use
           transform="translate(0,0.609375)"
           xlink:href="#Cmmi10-6b"
           id="use44"
           style="stroke-linecap:butt;stroke-linejoin:round"
           x="0"
           y="0"
           width="720"
           height="432" />
      </g>
    </g>
  </g>
  <g
     id="line2d_2"
     style="stroke-linecap:butt;stroke-linejoin:round"
     transform="translate(-61.888677,-36.243464)">
    <defs
       id="defs49">
      <path
         d="M 0,0 4,0"
         id="m728421d6d4"
         style="stroke:#000000;stroke-width:0.5;stroke-linecap:butt;stroke-linejoin:round"
         inkscape:connector-curvature="0" />
    </defs>
    <g
       id="g52"
       style="stroke-linecap:butt;stroke-linejoin:round">
      <use
         style="stroke:#000000;stroke-width:0.5;stroke-linecap:butt;stroke-linejoin:round"
         x="90"
         xlink:href="#m728421d6d4"
         y="388.79999"
         id="use54"
         width="720"
         height="432" />
    </g>
  </g>
  <g
     id="line2d_3"
     style="stroke-linecap:butt;stroke-linejoin:round"
     transform="translate(-61.888677,-36.243464)">
    <defs
       id="defs57">
      <path
         d="M 0,0 -4,0"
         id="mcb0005524f"
         style="stroke:#000000;stroke-width:0.5;stroke-linecap:butt;stroke-linejoin:round"
         inkscape:connector-curvature="0" />
    </defs>
    <g
       id="g60"
       style="stroke-linecap:butt;stroke-linejoin:round">
      <use
         style="stroke:#000000;stroke-width:0.5;stroke-linecap:butt;stroke-linejoin:round"
         x="648"
         xlink:href="#mcb0005524f"
         y="388.79999"
         id="use62"
         width="720"
         height="432" />
    </g>
  </g>
  <g
     id="text_2"
     style="stroke-linecap:butt;stroke-linejoin:round"
     transform="matrix(1.3,0,0,1.3,-89.942,-152.56649)">
    <!-- 0.0 -->
    <defs
       id="defs65">
      <path
         d="m 31.7812,66.4062 q -7.6093,0 -11.4531,-7.5 Q 16.5,51.4219 16.5,36.375 q 0,-14.9844 3.8281,-22.4844 3.8438,-7.49998 11.4531,-7.49998 7.6719,0 11.5,7.49998 3.8438,7.5 3.8438,22.4844 0,15.0469 -3.8438,22.5312 -3.8281,7.5 -11.5,7.5 m 0,7.8126 q 12.2657,0 18.7344,-9.7032 6.4688,-9.6875 6.4688,-28.1406 0,-18.4062 -6.4688,-28.10938 -6.4687,-9.6875 -18.7344,-9.6875 -12.25,0 -18.7187,9.6875 -6.46875,9.70318 -6.46875,28.10938 0,18.4531 6.46875,28.1406 6.4687,9.7032 18.7187,9.7032"
         id="DejaVuSans-30"
         inkscape:connector-curvature="0"
         style="stroke-linecap:butt;stroke-linejoin:round" />
      <path
         d="M 10.6875,12.4062 21,12.4062 21,0 10.6875,0 z"
         id="DejaVuSans-2e"
         inkscape:connector-curvature="0"
         style="stroke-linecap:butt;stroke-linejoin:round" />
    </defs>
    <g
       transform="matrix(0.12,0,0,-0.12,68.504375,392.11125)"
       id="g69"
       style="stroke-linecap:butt;stroke-linejoin:round">
      <use
         xlink:href="#DejaVuSans-30"
         id="use71"
         style="stroke-linecap:butt;stroke-linejoin:round"
         x="0"
         y="0"
         width="720"
         height="432" />
      <use
         x="63.623047"
         xlink:href="#DejaVuSans-2e"
         id="use73"
         style="stroke-linecap:butt;stroke-linejoin:round"
         y="0"
         width="720"
         height="432" />
      <use
         x="95.410156"
         xlink:href="#DejaVuSans-30"
         id="use75"
         style="stroke-linecap:butt;stroke-linejoin:round"
         y="0"
         width="720"
         height="432" />
    </g>
  </g>
  <g
     id="line2d_4"
     style="stroke-linecap:butt;stroke-linejoin:round"
     transform="translate(-61.888677,-36.243464)">
    <g
       id="g79"
       style="stroke-linecap:butt;stroke-linejoin:round">
      <use
         style="stroke:#000000;stroke-width:0.5;stroke-linecap:butt;stroke-linejoin:round"
         x="90"
         xlink:href="#m728421d6d4"
         y="319.67999"
         id="use81"
         width="720"
         height="432" />
    </g>
  </g>
  <g
     id="line2d_5"
     style="stroke-linecap:butt;stroke-linejoin:round"
     transform="translate(-61.888677,-36.243464)">
    <g
       id="g84"
       style="stroke-linecap:butt;stroke-linejoin:round">
      <use
         style="stroke:#000000;stroke-width:0.5;stroke-linecap:butt;stroke-linejoin:round"
         x="648"
         xlink:href="#mcb0005524f"
         y="319.67999"
         id="use86"
         width="720"
         height="432" />
    </g>
  </g>
  <g
     id="text_3"
     style="stroke-linecap:butt;stroke-linejoin:round"
     transform="matrix(1.3,0,0,1.3,-90.00275,-131.83049)">
    <!-- 0.2 -->
    <defs
       id="defs89">
      <path
         d="m 19.1875,8.29688 34.4219,0 0,-8.29688 -46.28128,0 0,8.29688 Q 12.9375,14.1094 22.625,23.8906 q 9.7031,9.7969 12.1875,12.6406 4.7344,5.3126 6.6094,9 1.8906,3.6876 1.8906,7.25 0,5.8126 -4.0781,9.4688 -4.0782,3.6719 -10.625,3.6719 -4.6406,0 -9.7969,-1.6094 -5.1406,-1.6094 -11,-4.8906 l 0,9.9687 q 5.9531,2.3906 11.125,3.6094 5.1875,1.2188 9.4844,1.2188 11.3281,0 18.0625,-5.6719 6.7344,-5.6563 6.7344,-15.125 0,-4.5 -1.6876,-8.5313 Q 49.8594,40.875 45.4062,35.4062 44.1875,33.9844 37.6406,27.2188 31.1094,20.4531 19.1875,8.29688"
         id="DejaVuSans-32"
         inkscape:connector-curvature="0"
         style="stroke-linecap:butt;stroke-linejoin:round" />
    </defs>
    <g
       transform="matrix(0.12,0,0,-0.12,68.909375,322.99125)"
       id="g92"
       style="stroke-linecap:butt;stroke-linejoin:round">
      <use
         xlink:href="#DejaVuSans-30"
         id="use94"
         style="stroke-linecap:butt;stroke-linejoin:round"
         x="0"
         y="0"
         width="720"
         height="432" />
      <use
         x="63.623047"
         xlink:href="#DejaVuSans-2e"
         id="use96"
         style="stroke-linecap:butt;stroke-linejoin:round"
         y="0"
         width="720"
         height="432" />
      <use
         x="95.410156"
         xlink:href="#DejaVuSans-32"
         id="use98"
         style="stroke-linecap:butt;stroke-linejoin:round"
         y="0"
         width="720"
         height="432" />
    </g>
  </g>
  <g
     id="line2d_6"
     style="stroke-linecap:butt;stroke-linejoin:round"
     transform="translate(-61.888677,-36.243464)">
    <g
       id="g102"
       style="stroke-linecap:butt;stroke-linejoin:round">
      <use
         style="stroke:#000000;stroke-width:0.5;stroke-linecap:butt;stroke-linejoin:round"
         x="90"
         xlink:href="#m728421d6d4"
         y="250.56"
         id="use104"
         width="720"
         height="432" />
    </g>
  </g>
  <g
     id="line2d_7"
     style="stroke-linecap:butt;stroke-linejoin:round"
     transform="translate(-61.888677,-36.243464)">
    <g
       id="g107"
       style="stroke-linecap:butt;stroke-linejoin:round">
      <use
         style="stroke:#000000;stroke-width:0.5;stroke-linecap:butt;stroke-linejoin:round"
         x="648"
         xlink:href="#mcb0005524f"
         y="250.56"
         id="use109"
         width="720"
         height="432" />
    </g>
  </g>
  <g
     id="text_4"
     style="stroke-linecap:butt;stroke-linejoin:round"
     transform="matrix(1.3,0,0,1.3,-89.923437,-111.09449)">
    <!-- 0.4 -->
    <defs
       id="defs112">
      <path
         d="m 37.7969,64.3125 -24.9063,-38.9219 24.9063,0 z m -2.5938,8.5937 12.4063,0 0,-47.5156 10.4062,0 0,-8.2031 -10.4062,0 0,-17.1875 -9.8125,0 0,17.1875 -32.90628,0 0,9.5156 z"
         id="DejaVuSans-34"
         inkscape:connector-curvature="0"
         style="stroke-linecap:butt;stroke-linejoin:round" />
    </defs>
    <g
       transform="matrix(0.12,0,0,-0.12,68.380625,253.87125)"
       id="g115"
       style="stroke-linecap:butt;stroke-linejoin:round">
      <use
         xlink:href="#DejaVuSans-30"
         id="use117"
         style="stroke-linecap:butt;stroke-linejoin:round"
         x="0"
         y="0"
         width="720"
         height="432" />
      <use
         x="63.623047"
         xlink:href="#DejaVuSans-2e"
         id="use119"
         style="stroke-linecap:butt;stroke-linejoin:round"
         y="0"
         width="720"
         height="432" />
      <use
         x="95.410156"
         xlink:href="#DejaVuSans-34"
         id="use121"
         style="stroke-linecap:butt;stroke-linejoin:round"
         y="0"
         width="720"
         height="432" />
    </g>
  </g>
  <g
     id="line2d_8"
     style="stroke-linecap:butt;stroke-linejoin:round"
     transform="translate(-61.888677,-36.243464)">
    <g
       id="g125"
       style="stroke-linecap:butt;stroke-linejoin:round">
      <use
         style="stroke:#000000;stroke-width:0.5;stroke-linecap:butt;stroke-linejoin:round"
         x="90"
         xlink:href="#m728421d6d4"
         y="181.44"
         id="use127"
         width="720"
         height="432" />
    </g>
  </g>
  <g
     id="line2d_9"
     style="stroke-linecap:butt;stroke-linejoin:round"
     transform="translate(-61.888677,-36.243464)">
    <g
       id="g130"
       style="stroke-linecap:butt;stroke-linejoin:round">
      <use
         style="stroke:#000000;stroke-width:0.5;stroke-linecap:butt;stroke-linejoin:round"
         x="648"
         xlink:href="#mcb0005524f"
         y="181.44"
         id="use132"
         width="720"
         height="432" />
    </g>
  </g>
  <g
     id="text_5"
     style="stroke-linecap:butt;stroke-linejoin:round"
     transform="matrix(1.3,0,0,1.3,-89.935812,-90.358494)">
    <!-- 0.6 -->
    <defs
       id="defs135">
      <path
         d="m 33.0156,40.375 q -6.6406,0 -10.5312,-4.5469 -3.875,-4.5312 -3.875,-12.4375 0,-7.8594 3.875,-12.4375 3.8906,-4.56248 10.5312,-4.56248 6.6406,0 10.5156,4.56248 3.875,4.5781 3.875,12.4375 0,7.9063 -3.875,12.4375 -3.875,4.5469 -10.5156,4.5469 m 19.5782,30.9219 0,-8.9844 q -3.7188,1.75 -7.5,2.6719 -3.7813,0.9375 -7.5,0.9375 -9.7657,0 -14.9219,-6.5938 -5.1407,-6.5937 -5.875,-19.9219 2.875,4.25 7.2187,6.5157 4.3594,2.2656 9.5782,2.2656 10.9843,0 17.3593,-6.6719 6.375,-6.6562 6.375,-18.125 0,-11.2344 -6.6406,-18.03122 -6.6406,-6.78126 -17.6719,-6.78126 -12.6562,0 -19.3437,9.6875 -6.68752,9.70318 -6.68752,28.10938 0,17.2812 8.20312,27.5625 8.2031,10.2813 22.0156,10.2813 3.7188,0 7.5,-0.7344 3.7813,-0.7344 7.8907,-2.1875"
         id="DejaVuSans-36"
         inkscape:connector-curvature="0"
         style="stroke-linecap:butt;stroke-linejoin:round" />
    </defs>
    <g
       transform="matrix(0.12,0,0,-0.12,68.463125,184.75125)"
       id="g138"
       style="stroke-linecap:butt;stroke-linejoin:round">
      <use
         xlink:href="#DejaVuSans-30"
         id="use140"
         style="stroke-linecap:butt;stroke-linejoin:round"
         x="0"
         y="0"
         width="720"
         height="432" />
      <use
         x="63.623047"
         xlink:href="#DejaVuSans-2e"
         id="use142"
         style="stroke-linecap:butt;stroke-linejoin:round"
         y="0"
         width="720"
         height="432" />
      <use
         x="95.410156"
         xlink:href="#DejaVuSans-36"
         id="use144"
         style="stroke-linecap:butt;stroke-linejoin:round"
         y="0"
         width="720"
         height="432" />
    </g>
  </g>
  <g
     id="line2d_10"
     style="stroke-linecap:butt;stroke-linejoin:round"
     transform="translate(-61.888677,-36.243464)">
    <g
       id="g148"
       style="stroke-linecap:butt;stroke-linejoin:round">
      <use
         style="stroke:#000000;stroke-width:0.5;stroke-linecap:butt;stroke-linejoin:round"
         x="90"
         xlink:href="#m728421d6d4"
         y="112.32"
         id="use150"
         width="720"
         height="432" />
    </g>
  </g>
  <g
     id="line2d_11"
     style="stroke-linecap:butt;stroke-linejoin:round"
     transform="translate(-61.888677,-36.243464)">
    <g
       id="g153"
       style="stroke-linecap:butt;stroke-linejoin:round">
      <use
         style="stroke:#000000;stroke-width:0.5;stroke-linecap:butt;stroke-linejoin:round"
         x="648"
         xlink:href="#mcb0005524f"
         y="112.32"
         id="use155"
         width="720"
         height="432" />
    </g>
  </g>
  <g
     id="text_6"
     style="stroke-linecap:butt;stroke-linejoin:round"
     transform="matrix(1.3,0,0,1.3,-89.945654,-69.622494)">
    <!-- 0.8 -->
    <defs
       id="defs158">
      <path
         d="m 31.7812,34.625 q -7.0312,0 -11.0624,-3.7656 -4.0157,-3.7656 -4.0157,-10.3438 0,-6.5937 4.0157,-10.3594 4.0312,-3.76558 11.0624,-3.76558 7.0313,0 11.0782,3.78128 4.0625,3.7969 4.0625,10.3437 0,6.5782 -4.0313,10.3438 -4.0156,3.7656 -11.1094,3.7656 m -9.8593,4.1875 Q 15.5781,40.375 12.0312,44.7188 8.5,49.0781 8.5,55.3281 q 0,8.7344 6.2188,13.8125 6.2343,5.0782 17.0624,5.0782 10.8907,0 17.0938,-5.0782 6.2031,-5.0781 6.2031,-13.8125 0,-6.25 -3.5469,-10.6093 Q 48,40.375 41.7031,38.8125 q 7.125,-1.6563 11.0938,-6.5 3.9843,-4.8281 3.9843,-11.7969 0,-10.60935 -6.4687,-16.28122 -6.4687,-5.65626 -18.5313,-5.65626 -12.0468,0 -18.5312,5.65626 -6.46875,5.67187 -6.46875,16.28122 0,6.9688 3.99995,11.7969 4.0157,4.8437 11.1407,6.5 m -3.6094,15.5781 q 0,-5.6562 3.5313,-8.8281 3.5468,-3.1719 9.9374,-3.1719 6.3594,0 9.9376,3.1719 3.5937,3.1719 3.5937,8.8281 0,5.6719 -3.5937,8.8438 -3.5782,3.1718 -9.9376,3.1718 -6.3906,0 -9.9374,-3.1718 -3.5313,-3.1719 -3.5313,-8.8438"
         id="DejaVuSans-38"
         inkscape:connector-curvature="0"
         style="stroke-linecap:butt;stroke-linejoin:round" />
    </defs>
    <g
       transform="matrix(0.12,0,0,-0.12,68.52875,115.63125)"
       id="g161"
       style="stroke-linecap:butt;stroke-linejoin:round">
      <use
         xlink:href="#DejaVuSans-30"
         id="use163"
         style="stroke-linecap:butt;stroke-linejoin:round"
         x="0"
         y="0"
         width="720"
         height="432" />
      <use
         x="63.623047"
         xlink:href="#DejaVuSans-2e"
         id="use165"
         style="stroke-linecap:butt;stroke-linejoin:round"
         y="0"
         width="720"
         height="432" />
      <use
         x="95.410156"
         xlink:href="#DejaVuSans-38"
         id="use167"
         style="stroke-linecap:butt;stroke-linejoin:round"
         y="0"
         width="720"
         height="432" />
    </g>
  </g>
  <g
     id="line2d_12"
     style="stroke-linecap:butt;stroke-linejoin:round"
     transform="translate(-61.888677,-36.243464)">
    <g
       id="g171"
       style="stroke-linecap:butt;stroke-linejoin:round">
      <use
         style="stroke:#000000;stroke-width:0.5;stroke-linecap:butt;stroke-linejoin:round"
         x="90"
         xlink:href="#m728421d6d4"
         y="43.200001"
         id="use173"
         width="720"
         height="432" />
    </g>
  </g>
  <g
     id="line2d_13"
     style="stroke-linecap:butt;stroke-linejoin:round"
     transform="translate(-61.888677,-36.243464)">
    <g
       id="g176"
       style="stroke-linecap:butt;stroke-linejoin:round">
      <use
         style="stroke:#000000;stroke-width:0.5;stroke-linecap:butt;stroke-linejoin:round"
         x="648"
         xlink:href="#mcb0005524f"
         y="43.200001"
         id="use178"
         width="720"
         height="432" />
    </g>
  </g>
  <g
     id="text_7"
     style="stroke-linecap:butt;stroke-linejoin:round"
     transform="matrix(1.3,0,0,1.3,-90.179094,-48.886494)">
    <!-- 1.0 -->
    <defs
       id="defs181">
      <path
         d="m 12.4062,8.29688 16.1094,0 0,55.62502 -17.5312,-3.5157 0,8.9844 17.4375,3.5156 9.8593,0 0,-64.60932 16.1094,0 0,-8.29688 -41.9844,0 z"
         id="DejaVuSans-31"
         inkscape:connector-curvature="0"
         style="stroke-linecap:butt;stroke-linejoin:round" />
    </defs>
    <g
       transform="matrix(0.12,0,0,-0.12,69.03125,46.51125)"
       id="g184"
       style="stroke-linecap:butt;stroke-linejoin:round">
      <use
         xlink:href="#DejaVuSans-31"
         id="use186"
         style="stroke-linecap:butt;stroke-linejoin:round"
         x="0"
         y="0"
         width="720"
         height="432" />
      <use
         x="63.623047"
         xlink:href="#DejaVuSans-2e"
         id="use188"
         style="stroke-linecap:butt;stroke-linejoin:round"
         y="0"
         width="720"
         height="432" />
      <use
         x="95.410156"
         xlink:href="#DejaVuSans-30"
         id="use190"
         style="stroke-linecap:butt;stroke-linejoin:round"
         y="0"
         width="720"
         height="432" />
    </g>
  </g>
  <defs
     id="defs192">
    <clipPath
       id="pd03f7f58b8">
      <rect
         height="345.60001"
         width="558"
         x="90"
         y="43.200001"
         id="rect195"
         style="stroke-linecap:butt;stroke-linejoin:round" />
    </clipPath>
  </defs>
  <g
     transform="matrix(0.41771674,0,0,0.41771674,101.24194,224.24379)"
     id="g3189"
     style="stroke-linecap:butt;stroke-linejoin:round">
    <g
       style="font-style:normal;font-variant:normal;font-weight:normal;font-stretch:normal;letter-spacing:normal;word-spacing:normal;text-anchor:start;fill:none;stroke:#000000;stroke-width:1.91517341;stroke-linecap:butt;stroke-linejoin:miter;stroke-miterlimit:10.43299961;stroke-opacity:1;stroke-dasharray:none;stroke-dashoffset:0"
       word-spacing="normal"
       letter-spacing="normal"
       font-size-adjust="none"
       font-stretch="normal"
       font-weight="normal"
       font-variant="normal"
       font-style="normal"
       stroke-miterlimit="10.433"
       xml:space="preserve"
       transform="matrix(1.0629921,0,0,-1.0629921,-186.02362,789.27165)"
       id="content"><path
         style="fill:#000000;stroke-width:0;stroke-linecap:butt;stroke-linejoin:round"
         inkscape:connector-curvature="0"
         id="path3192"
         d="m 469.82,440.23 0,0 0,0.01 0,0 0,0.01 -0.01,0.02 0,0.01 0,0.02 0,0.02 0,0.02 -0.01,0.02 0,0.02 -0.01,0.02 -0.01,0.02 -0.01,0.03 -0.01,0.02 -0.01,0.03 -0.01,0.02 -0.02,0.03 -0.02,0.02 -0.02,0.02 -0.02,0.03 -0.01,0.01 -0.01,0.01 -0.02,0.01 -0.01,0.01 -0.02,0.01 -0.01,0.01 -0.02,0.01 -0.01,0.01 -0.02,0.01 -0.02,0.01 -0.02,0 -0.02,0.01 -0.02,0.01 -0.02,0 -0.02,0.01 -0.02,0.01 -0.03,0 -0.02,0 -0.03,0.01 -0.02,0 -0.03,0 -0.03,0.01 -0.02,0 -0.03,0 c -1.16,0 -4.79,-0.41 -6.08,-0.5 -0.41,-0.05 -0.96,-0.1 -0.96,-1 0,-0.6 0.46,-0.6 1.21,-0.6 2.39,0 2.48,-0.34 2.48,-0.84 l -0.15,-1 -7.22,-28.7 c -0.21,-0.69 -0.21,-0.8 -0.21,-1.1 0,-1.14 1,-1.39 1.46,-1.39 0.64,0 1.39,0.46 1.68,1.05 0.25,0.45 2.5,9.66 2.8,10.91 1.69,-0.15 5.78,-0.94 5.78,-4.24 0,-0.34 0,-0.55 -0.15,-1.05 -0.1,-0.59 -0.21,-1.18 -0.21,-1.73 0,-2.95 2,-4.94 4.6,-4.94 1.48,0 2.83,0.8 3.93,2.64 1.24,2.19 1.79,4.94 1.79,5.03 0,0.5 -0.44,0.5 -0.6,0.5 -0.5,0 -0.54,-0.2 -0.7,-0.9 -0.99,-3.63 -2.14,-6.17 -4.33,-6.17 -0.94,0 -1.59,0.54 -1.59,2.34 0,0.84 0.2,1.98 0.4,2.78 0.19,0.86 0.19,1.05 0.19,1.55 0,3.25 -3.14,4.69 -7.37,5.23 1.54,0.91 3.14,2.5 4.29,3.69 2.39,2.64 4.67,4.78 7.13,4.78 0.29,0 0.34,0 0.44,-0.05 0.6,-0.09 0.65,-0.09 1.04,-0.39 0.11,-0.06 0.11,-0.11 0.21,-0.2 -2.4,-0.16 -2.85,-2.09 -2.85,-2.69 0,-0.79 0.55,-1.75 1.89,-1.75 1.3,0 2.75,1.1 2.75,3.03 0,1.5 -1.15,3.14 -3.39,3.14 -1.39,0 -3.69,-0.39 -7.28,-4.37 -1.69,-1.89 -3.62,-3.89 -5.52,-4.64 z" /><path
         style="fill:#000000;stroke-width:0;stroke-linecap:butt;stroke-linejoin:round"
         inkscape:connector-curvature="0"
         id="path3194"
         d="m 496.71,412.11 -0.12,-0.03 -0.11,-0.02 -0.11,-0.03 -0.1,-0.04 -0.1,-0.03 -0.1,-0.04 -0.09,-0.05 -0.09,-0.05 -0.08,-0.05 -0.08,-0.05 -0.07,-0.06 -0.07,-0.06 -0.07,-0.06 -0.06,-0.07 -0.06,-0.06 -0.06,-0.07 -0.05,-0.07 -0.05,-0.07 -0.04,-0.07 -0.04,-0.08 -0.04,-0.07 -0.04,-0.08 -0.03,-0.07 -0.02,-0.08 -0.03,-0.07 -0.02,-0.08 -0.02,-0.08 -0.01,-0.07 -0.01,-0.08 -0.01,-0.07 0,-0.08 0,-0.07 c 0,-0.94 0.73,-1.28 1.36,-1.28 0.76,0 1.98,0.55 1.98,2.22 0,2.37 -2.72,3.03 -4.59,3.03 -5.24,0 -10.08,-4.8 -10.08,-9.64 0,-3 2.09,-6.06 6.45,-6.06 5.89,0 8.64,3.44 8.64,3.94 0,0.2 -0.31,0.59 -0.59,0.59 -0.21,0 -0.28,-0.08 -0.56,-0.36 -2.72,-3.2 -6.8,-3.2 -7.43,-3.2 -2.5,0 -3.62,1.7 -3.62,3.87 0,1 0.5,4.8 2.31,7.2 1.31,1.72 3.13,2.69 4.88,2.69 0.48,0 2.15,-0.06 3.03,-1.04 z" /><path
         style="fill:#000000;stroke-width:0;stroke-linecap:butt;stroke-linejoin:round"
         inkscape:connector-curvature="0"
         id="path3196"
         d="m 513.93,404.4 -0.01,-0.06 -0.02,-0.07 -0.02,-0.08 -0.02,-0.07 -0.02,-0.08 -0.02,-0.08 -0.01,-0.08 -0.03,-0.08 -0.04,-0.17 -0.04,-0.17 -0.04,-0.17 -0.02,-0.08 -0.02,-0.08 -0.02,-0.08 -0.02,-0.07 -0.02,-0.07 -0.02,-0.07 -0.02,-0.07 -0.01,-0.06 -0.02,-0.06 -0.02,-0.06 -0.01,-0.05 -0.01,-0.04 -0.02,-0.04 -0.01,-0.04 0,-0.01 -0.01,-0.01 0,-0.01 -0.01,-0.01 0,-0.01 -0.01,-0.01 0,0 0,0 c -0.67,-1.08 -2.07,-2.97 -4.22,-2.97 -2.41,0 -2.41,2.26 -2.41,2.89 0,2.06 0.97,4.53 1.95,7.08 0.29,0.7 0.49,1.21 0.49,1.78 0,1.81 -1.53,2.98 -3.31,2.98 -3.49,0 -5.05,-4.76 -5.05,-5.33 0,-0.45 0.48,-0.45 0.59,-0.45 0.49,0 0.52,0.17 0.63,0.56 0.83,2.86 2.37,4.25 3.72,4.25 0.59,0 0.87,-0.39 0.87,-1.22 0,-0.79 -0.28,-1.53 -0.62,-2.32 -1.88,-4.82 -1.88,-5.83 -1.88,-6.77 0,-0.59 0,-2.2 1.28,-3.31 1.02,-0.83 2.38,-1.11 3.6,-1.11 2.18,0 3.37,1.19 4.53,2.29 0.76,-2.23 3.09,-2.29 3.51,-2.29 1.19,0 2.1,0.69 2.75,1.84 0.77,1.36 1.25,3.38 1.25,3.49 0,0.45 -0.48,0.45 -0.57,0.45 -0.5,0 -0.53,-0.14 -0.78,-1.08 -0.41,-1.64 -1.08,-3.73 -2.54,-3.73 -0.9,0 -1.15,0.79 -1.15,1.7 0,0.59 0.28,1.86 0.53,2.77 0.23,0.93 0.58,2.35 0.76,3.12 l 0.8,3.11 c 0.2,0.87 0.6,2.41 0.6,2.58 0,0.69 -0.57,1.11 -1.16,1.11 -1.28,0 -1.53,-1.02 -1.81,-2.13 z" /><path
         style="fill:#000000;stroke-width:0;stroke-linecap:butt;stroke-linejoin:round"
         inkscape:connector-curvature="0"
         id="path3198"
         d="m 531.3,412.53 h 3.54 c 0.66,0 1.11,0 1.11,0.76 0,0.49 -0.45,0.49 -1.03,0.49 h -3.31 l 1.28,5.15 c 0.03,0.18 0.11,0.35 0.11,0.49 0,0.64 -0.48,1.12 -1.19,1.12 -0.87,0 -1.39,-0.59 -1.64,-1.5 -0.23,-0.87 0.22,0.8 -1.33,-5.26 h -3.54 c -0.66,0 -1.11,0 -1.11,-0.77 0,-0.48 0.4,-0.48 1.04,-0.48 h 3.3 l -2.05,-8.22 c -0.21,-0.88 -0.53,-2.13 -0.53,-2.58 0,-2.06 1.75,-3.31 3.74,-3.31 3.87,0 6.06,4.87 6.06,5.33 0,0.45 -0.45,0.45 -0.56,0.45 -0.41,0 -0.46,-0.08 -0.72,-0.66 -0.99,-2.2 -2.77,-4.15 -4.67,-4.15 -0.74,0 -1.22,0.45 -1.22,1.7 0,0.36 0.14,1.09 0.2,1.44 z" /></g>  </g>
  <path
     style="fill:none;stroke:#000000;stroke-width:1.60000002;stroke-linecap:butt;stroke-linejoin:miter;stroke-miterlimit:4;stroke-opacity:1;stroke-dasharray:none"
     d="m 243.80623,352.96671 0,7.05106"
     id="path3473"
     inkscape:connector-curvature="0" />
</svg>
